<svg width="650" height="467" viewBox="0 0 650 467" fill="none" xmlns="http://www.w3.org/2000/svg">
<path d="M0 466.436H104.554" stroke="#3F3D56" stroke-miterlimit="10"/>
<path d="M597.848 80.028H172.45C161.737 80.028 153.052 88.7127 153.052 99.426V374.921C153.052 385.634 161.737 394.319 172.45 394.319H597.848C608.561 394.319 617.246 385.634 617.246 374.921V99.426C617.246 88.7127 608.561 80.028 597.848 80.028Z" fill="#F2F2F2"/>
<path d="M583.676 60.188H158.278C147.565 60.188 138.88 68.8728 138.88 79.586V355.081C138.88 365.794 147.565 374.479 158.278 374.479H583.676C594.389 374.479 603.074 365.794 603.074 355.081V79.586C603.074 68.8728 594.389 60.188 583.676 60.188Z" stroke="#3F3D56" stroke-miterlimit="10"/>
<path d="M138.88 90.3199H603.074" stroke="#3F3D56" stroke-miterlimit="10"/>
<path opacity="0.3" d="M535.831 160.963H423.419C419.502 160.963 416.326 164.139 416.326 168.056V173.395C416.326 177.312 419.502 180.488 423.419 180.488H535.831C539.748 180.488 542.924 177.312 542.924 173.395V168.056C542.924 164.139 539.748 160.963 535.831 160.963Z" fill="#F9A826"/>
<path opacity="0.3" d="M560.08 215.129H399.17C395.253 215.129 392.077 218.305 392.077 222.222V223.782C392.077 227.699 395.253 230.875 399.17 230.875H560.08C563.997 230.875 567.173 227.699 567.173 223.782V222.222C567.173 218.305 563.997 215.129 560.08 215.129Z" fill="#F9A826"/>
<path opacity="0.3" d="M560.08 257.959H399.17C395.253 257.959 392.077 261.135 392.077 265.052V266.612C392.077 270.529 395.253 273.705 399.17 273.705H560.08C563.997 273.705 567.173 270.529 567.173 266.612V265.052C567.173 261.135 563.997 257.959 560.08 257.959Z" fill="#F9A826"/>
<path opacity="0.3" d="M560.08 300.788H399.17C395.253 300.788 392.077 303.964 392.077 307.881V309.441C392.077 313.358 395.253 316.534 399.17 316.534H560.08C563.997 316.534 567.173 313.358 567.173 309.441V307.881C567.173 303.964 563.997 300.788 560.08 300.788Z" fill="#F9A826"/>
<path d="M542.129 154.664H429.717C425.8 154.664 422.624 157.84 422.624 161.757V167.096C422.624 171.013 425.8 174.189 429.717 174.189H542.129C546.046 174.189 549.222 171.013 549.222 167.096V161.757C549.222 157.84 546.046 154.664 542.129 154.664Z" stroke="#3F3D56" stroke-miterlimit="10"/>
<path d="M566.378 208.831H405.468C401.551 208.831 398.375 212.007 398.375 215.924V217.484C398.375 221.401 401.551 224.577 405.468 224.577H566.378C570.295 224.577 573.471 221.401 573.471 217.484V215.924C573.471 212.007 570.295 208.831 566.378 208.831Z" stroke="#3F3D56" stroke-miterlimit="10"/>
<path d="M566.378 251.66H405.468C401.551 251.66 398.375 254.836 398.375 258.753V260.313C398.375 264.23 401.551 267.406 405.468 267.406H566.378C570.295 267.406 573.471 264.23 573.471 260.313V258.753C573.471 254.836 570.295 251.66 566.378 251.66Z" stroke="#3F3D56" stroke-miterlimit="10"/>
<path d="M566.378 294.489H405.468C401.551 294.489 398.375 297.665 398.375 301.582V303.142C398.375 307.059 401.551 310.235 405.468 310.235H566.378C570.295 310.235 573.471 307.059 573.471 303.142V301.582C573.471 297.665 570.295 294.489 566.378 294.489Z" stroke="#3F3D56" stroke-miterlimit="10"/>
<path opacity="0.3" d="M174.152 88.532C179.37 88.532 183.6 84.302 183.6 79.084C183.6 73.866 179.37 69.636 174.152 69.636C168.934 69.636 164.704 73.866 164.704 79.084C164.704 84.302 168.934 88.532 174.152 88.532Z" fill="#F9A826"/>
<path opacity="0.3" d="M200.605 88.532C205.823 88.532 210.053 84.302 210.053 79.084C210.053 73.866 205.823 69.636 200.605 69.636C195.387 69.636 191.157 73.866 191.157 79.084C191.157 84.302 195.387 88.532 200.605 88.532Z" fill="#F9A826"/>
<path opacity="0.3" d="M227.059 88.532C232.277 88.532 236.507 84.302 236.507 79.084C236.507 73.866 232.277 69.636 227.059 69.636C221.841 69.636 217.611 73.866 217.611 79.084C217.611 84.302 221.841 88.532 227.059 88.532Z" fill="#F9A826"/>
<path d="M177.931 84.7529C183.149 84.7529 187.379 80.5229 187.379 75.3049C187.379 70.0869 183.149 65.8569 177.931 65.8569C172.713 65.8569 168.483 70.0869 168.483 75.3049C168.483 80.5229 172.713 84.7529 177.931 84.7529Z" stroke="#3F3D56" stroke-miterlimit="10"/>
<path d="M204.384 84.7529C209.602 84.7529 213.832 80.5229 213.832 75.3049C213.832 70.0869 209.602 65.8569 204.384 65.8569C199.166 65.8569 194.936 70.0869 194.936 75.3049C194.936 80.5229 199.166 84.7529 204.384 84.7529Z" stroke="#3F3D56" stroke-miterlimit="10"/>
<path d="M230.838 84.7529C236.056 84.7529 240.286 80.5229 240.286 75.3049C240.286 70.0869 236.056 65.8569 230.838 65.8569C225.62 65.8569 221.39 70.0869 221.39 75.3049C221.39 80.5229 225.62 84.7529 230.838 84.7529Z" stroke="#3F3D56" stroke-miterlimit="10"/>
<path d="M285.541 361.249C284.011 353.292 283.517 345.171 284.072 337.088C284.072 337.088 276.072 301.951 269.781 298.673C269.681 298.797 266.631 302.801 266.243 315.19C265.85 327.776 261.393 336.036 261.393 336.036C261.393 336.036 262.835 351.724 262.011 361.247L285.541 361.249Z" fill="#F9A826"/>
<path d="M345 140H198C190.268 140 184 146.268 184 154V349C184 356.732 190.268 363 198 363H345C352.732 363 359 356.732 359 349V154C359 146.268 352.732 140 345 140Z" fill="#F9A826"/>
<path d="M270.664 172.001C264.172 171.981 257.076 173.849 249.764 177.952C245.355 180.428 253.278 191.499 256.905 189.629C257.269 189.441 257.631 189.274 257.989 189.1L255.728 184.881L260.586 187.951C289.337 176.251 295.281 212.613 279.458 226.62C282.71 230.482 289.458 236.659 295.407 238.125C312.297 201.177 296.132 172.079 270.664 172.001Z" fill="white"/>
<path d="M287.755 282.87C286.627 283.67 269.69 311.57 268.305 311.554C266.92 311.537 250.599 283.251 249.488 282.422C248.377 281.593 216.665 274.047 216.25 272.723C215.835 271.4 237.62 247.111 238.061 245.799C238.502 244.487 235.84 211.923 236.97 211.119C238.099 210.314 267.883 223.596 269.267 223.612C270.651 223.628 300.719 211.049 301.831 211.874C302.944 212.7 299.567 245.195 299.978 246.519C300.389 247.843 321.637 272.633 321.195 273.947C320.753 275.262 288.884 282.068 287.755 282.87Z" fill="white"/>
<path d="M268.568 289.286C267.186 289.288 237.257 302.295 236.135 301.483C235.013 300.671 237.98 268.164 237.549 266.846C237.119 265.529 215.552 241.075 215.976 239.755C216.4 238.436 248.209 231.173 249.325 230.356C250.442 229.539 267.04 201.419 268.427 201.413C269.814 201.408 286.5 229.431 287.622 230.243C288.743 231.054 320.571 238.129 321.004 239.445C321.437 240.76 299.943 265.342 299.516 266.66C299.088 267.978 302.163 300.472 301.043 301.29C299.924 302.109 269.954 289.282 268.568 289.286Z" fill="white"/>
<path fill-rule="evenodd" clip-rule="evenodd" d="M301.875 258.269C301.895 264.915 299.942 271.417 296.264 276.953C292.586 282.488 287.349 286.808 281.214 289.365C275.08 291.922 268.325 292.601 261.804 291.317C255.284 290.032 249.291 286.842 244.584 282.15C239.878 277.457 236.67 271.474 235.366 264.957C234.062 258.44 234.721 251.683 237.26 245.541C239.798 239.399 244.103 234.149 249.627 230.454C255.152 226.76 261.648 224.788 268.294 224.788C272.697 224.781 277.059 225.642 281.13 227.321C285.2 229 288.9 231.465 292.019 234.574C295.137 237.683 297.612 241.375 299.303 245.441C300.995 249.507 301.868 253.866 301.875 258.269Z" fill="white"/>
<path d="M261.187 267.771C250.593 258.706 259.187 247.861 267.8 247.81C276.413 247.759 284.049 259.81 273.85 267.641C276.75 273.321 281.802 285.001 283.491 288.136C272.708 293.455 260.346 292.336 253.157 288.113C256.266 282.728 260.686 268.354 261.186 267.771H261.187Z" fill="white"/>
<path d="M240.125 248.729C246.419 237.517 264.233 224.522 285.841 234.996C272.64 218.188 242.158 228.555 240.125 248.729Z" fill="white"/>
<path d="M319.807 120.653H192.255C179.126 120.653 168.483 131.296 168.483 144.425V320.475C168.483 333.604 179.126 344.247 192.255 344.247H319.807C332.936 344.247 343.579 333.604 343.579 320.475V144.425C343.579 131.296 332.936 120.653 319.807 120.653Z" stroke="#3F3D56" stroke-miterlimit="10"/>
<path d="M63.504 202.14C63.504 202.14 57.631 200.404 56.372 202.293C55.113 204.182 58.089 217.88 58.089 217.88L71.03 218.666L66.514 207.266L63.504 202.14Z" fill="#2F2E41"/>
<path d="M18.231 314.624C18.231 314.624 30.006 340.474 20.938 339.662C11.87 338.85 8.35101 314.624 8.35101 314.624H18.231Z" fill="#A0616A"/>
<path d="M95.239 311.93C95.239 311.93 90.074 339.862 98.675 336.879C107.276 333.896 104.825 309.538 104.825 309.538L95.239 311.93Z" fill="#A0616A"/>
<path d="M60.998 195.658C60.998 195.658 60.863 208.651 65.87 209.327C70.877 210.003 63.028 216.906 63.028 216.906L54.095 218.665L41.237 217.718L35.553 210.41C35.553 210.41 45.568 205.673 41.237 190.921L60.998 195.658Z" fill="#A0616A"/>
<path opacity="0.1" d="M60.998 195.658C60.998 195.658 60.863 208.651 65.87 209.327C70.877 210.003 63.028 216.906 63.028 216.906L54.095 218.665L41.237 217.718L35.553 210.41C35.553 210.41 45.568 205.673 41.237 190.921L60.998 195.658Z" fill="black"/>
<path d="M84.006 305.556C84.006 305.556 90.367 319.225 85.359 362.129C85.359 362.129 86.848 377.287 85.63 380.129C84.412 382.971 74.397 421.543 74.397 421.543C74.397 421.543 61.54 424.385 59.78 415.859C59.78 415.859 61.539 403.678 61.404 401.783C61.269 399.888 64.246 379.183 64.246 379.183L58.156 339.122L53.556 375.258C53.556 375.258 53.556 385.679 52.067 387.98C50.578 390.281 52.067 436.568 52.067 436.568C52.067 436.568 56.267 443.606 49.902 443.741C43.537 443.876 37.857 443.606 37.315 439.141C36.773 434.676 36.503 430.208 35.15 427.502C33.797 424.796 32.037 393.802 32.443 382.975C32.849 372.148 23.51 316.522 26.488 310.702C29.466 304.882 84.006 305.556 84.006 305.556Z" fill="#2F2E41"/>
<path d="M54.096 200.531C63.0657 200.531 70.337 193.26 70.337 184.29C70.337 175.32 63.0657 168.049 54.096 168.049C45.1264 168.049 37.855 175.32 37.855 184.29C37.855 193.26 45.1264 200.531 54.096 200.531Z" fill="#A0616A"/>
<path d="M37.855 210.682C37.855 210.682 47.735 217.99 62.081 212.171C62.081 212.171 66.818 209.871 66.412 206.351C66.006 202.831 76.292 234.637 76.292 234.637L86.713 289.992L86.172 312.592C86.172 312.592 81.572 310.292 67.224 315.434C52.876 320.576 29.464 309.614 29.464 309.614L30.276 251.553L31.088 217.718L33.253 210.274C33.253 210.274 34.336 208.246 37.855 210.682Z" fill="#F2F2F2"/>
<path d="M61.449 201.596C61.449 201.596 63.84 201.208 66.141 204.862C68.442 208.516 73.855 210.817 73.855 210.817C73.855 210.817 86.983 211.629 88.878 218.667C90.773 225.705 95.51 235.314 97.811 253.044C100.112 270.774 104.711 299.06 105.39 301.361C106.069 303.662 104.443 310.7 106.337 312.861C108.231 315.022 92.937 315.027 92.937 315.027C92.937 315.027 91.584 303.927 90.637 303.927C89.69 303.927 89.96 311.371 90.908 316.784C91.856 322.197 84.008 316.784 84.008 316.784C84.008 316.784 77.918 292.017 72.098 269.684C66.278 247.351 62.898 235.037 63.978 230.029C65.058 225.021 68.038 210.675 65.873 209.322C63.708 207.969 61.449 201.596 61.449 201.596Z" fill="#2F2E41"/>
<path d="M41.928 201.584C37.6344 204.133 33.4731 206.898 29.46 209.869C20.527 216.23 14.437 221.102 14.437 221.102C14.437 221.102 10.918 223.809 8.75303 239.914C6.58803 256.019 1.71803 297.71 3.61303 302.984C5.50803 308.258 6.18402 311.375 5.50802 314.484C4.83202 317.593 19.719 317.462 19.99 316.784C20.261 316.106 19.584 303.791 20.261 303.521C20.938 303.251 24.592 310.829 25.269 317.19C25.946 323.551 33.795 328.559 35.555 328.559C37.315 328.559 46.382 291.882 46.518 266.843C46.654 241.804 43.54 220.692 41.24 217.714C38.94 214.736 41.928 201.584 41.928 201.584Z" fill="#2F2E41"/>
<path d="M65.735 422.761C65.735 422.761 66.818 419.783 70.607 420.731C74.396 421.679 76.968 418.295 76.968 418.295C76.968 418.295 78.998 418.024 77.645 420.595C76.292 423.166 75.209 424.926 75.209 424.926C75.209 424.926 83.329 443.468 78.051 447.934C76.4862 449.217 74.6062 450.057 72.6067 450.366C70.6071 450.675 68.5612 450.443 66.682 449.693C66.682 449.693 60.727 445.493 60.998 434.399C60.998 434.399 60.727 430.88 57.479 425.199C54.231 419.518 51.795 410.853 55.72 409.229C59.645 407.605 60.655 407.545 60.655 407.545C60.655 407.545 58.818 415.945 63.563 418.881L65.735 422.761Z" fill="#3F3D56"/>
<path d="M40.561 443.74C40.561 443.74 37.313 437.65 42.726 436.973C48.139 436.296 53.959 435.89 53.689 438.732C53.419 441.574 52.742 445.905 52.742 445.905L53.689 449.018C53.689 449.018 53.96 456.732 54.907 457.68C55.854 458.628 60.997 466.748 50.035 466.748C39.073 466.748 35.824 465.53 36.772 462.959C37.72 460.388 37.99 447.662 37.99 447.662L40.561 443.74Z" fill="#3F3D56"/>
<path d="M48.952 171.297C48.952 171.297 56.531 173.327 60.452 174.139C64.373 174.951 63.971 172.65 63.971 172.65C63.971 172.65 69.114 173.327 68.843 172.785C68.572 172.243 71.008 169.401 68.166 166.153C65.324 162.905 66.136 160.469 66.136 160.469H63.702L63.025 159.522H59.235C59.235 159.522 56.393 158.439 48.949 159.522C41.505 160.605 31.355 160.875 30.543 165.342C29.731 169.809 25.535 175.357 27.024 177.929C28.513 180.501 37.039 191.057 37.851 195.523C38.663 199.989 42.451 200.982 42.318 198.185C42.185 195.388 38.392 185.643 41.64 185.237C44.888 184.831 50.441 176.575 48.952 171.297Z" fill="#2F2E41"/>
<path d="M588.827 4.26099C586.142 4.41266 583.553 5.30923 581.349 6.85014C579.145 8.39106 577.414 10.5154 576.35 12.985C573.23 20.527 577.25 29.385 583.278 34.885C589.306 40.385 597.055 43.528 604.093 47.66C613.547 53.21 622.042 60.914 626.772 70.803C631.502 80.692 632.005 92.942 626.445 102.39C621.284 111.159 611.9 116.407 602.95 121.247" stroke="#3F3D56" stroke-miterlimit="10"/>
<path d="M596.5 10C602.851 10 608 7.76142 608 5C608 2.23858 602.851 0 596.5 0C590.149 0 585 2.23858 585 5C585 7.76142 590.149 10 596.5 10Z" fill="#F9A826"/>
<path d="M605 45C611.075 45 616 42.7614 616 40C616 37.2386 611.075 35 605 35C598.925 35 594 37.2386 594 40C594 42.7614 598.925 45 605 45Z" fill="#F9A826"/>
<path d="M585 51C591.075 51 596 48.5376 596 45.5C596 42.4624 591.075 40 585 40C578.925 40 574 42.4624 574 45.5C574 48.5376 578.925 51 585 51Z" fill="#F9A826"/>
<path d="M617 81C623.075 81 628 78.5376 628 75.5C628 72.4624 623.075 70 617 70C610.925 70 606 72.4624 606 75.5C606 78.5376 610.925 81 617 81Z" fill="#F9A826"/>
<path d="M639 81C645.075 81 650 78.5376 650 75.5C650 72.4624 645.075 70 639 70C632.925 70 628 72.4624 628 75.5C628 78.5376 632.925 81 639 81Z" fill="#F9A826"/>
<path d="M31 242C33.7614 242 36 239.761 36 237C36 234.239 33.7614 232 31 232C28.2386 232 26 234.239 26 237C26 239.761 28.2386 242 31 242Z" fill="white"/>
<path d="M31.013 233.001C30.5948 233.009 30.1858 233.125 29.826 233.339C29.576 233.48 30.026 234.108 30.232 234.002L30.294 233.972L30.166 233.732L30.442 233.906C32.075 233.242 32.412 235.306 31.514 236.106C31.752 236.401 32.0649 236.626 32.42 236.759C33.378 234.657 32.46 233.005 31.013 233.001Z" fill="#FEAE01"/>
<path d="M31.9826 239.296C31.9183 239.342 30.9567 240.927 30.8786 240.926C30.8005 240.924 29.8733 239.318 29.8106 239.27C29.7478 239.223 27.9463 238.796 27.9197 238.719C27.8931 238.643 29.1323 237.266 29.1582 237.19C29.1841 237.115 29.034 235.27 29.0976 235.222C29.1611 235.173 30.8543 235.926 30.9318 235.931C31.0094 235.936 32.7192 235.218 32.7824 235.265C32.8455 235.312 32.6555 237.153 32.6769 237.232C32.6984 237.31 33.9071 238.715 33.8845 238.793C33.862 238.871 32.0473 239.25 31.9826 239.296Z" fill="#FEAE01"/>
<path d="M30.8933 239.66C30.8146 239.66 29.1149 240.399 29.0517 240.354C28.9885 240.308 29.1568 238.461 29.1331 238.386C29.1093 238.311 27.8831 236.923 27.9054 236.846C27.9277 236.768 29.7342 236.359 29.7991 236.312C29.8639 236.265 30.8045 234.673 30.8846 234.669C30.9648 234.666 31.9144 236.258 31.9748 236.307C32.0352 236.356 33.8468 236.755 33.8714 236.83C33.896 236.905 32.679 238.299 32.6512 238.375C32.6234 238.452 32.8015 240.296 32.738 240.346C32.6745 240.397 30.9728 239.66 30.8933 239.66Z" fill="#ED7806"/>
<path fill-rule="evenodd" clip-rule="evenodd" d="M32.785 237.9C32.7864 238.277 32.6757 238.647 32.467 238.961C32.2583 239.276 31.961 239.521 31.6126 239.667C31.2643 239.812 30.8807 239.851 30.5103 239.778C30.1399 239.705 29.7994 239.524 29.532 239.258C29.2646 238.992 29.0823 238.652 29.0082 238.282C28.934 237.912 28.9714 237.528 29.1155 237.179C29.2596 236.83 29.504 236.532 29.8178 236.322C30.1316 236.112 30.5005 236 30.878 236C31.1281 235.999 31.3759 236.048 31.6072 236.143C31.8386 236.238 32.0489 236.378 32.226 236.554C32.4032 236.731 32.5438 236.94 32.6397 237.171C32.7356 237.402 32.785 237.65 32.785 237.9Z" fill="#FEBD4D"/>
<path d="M30.475 238.439C30.3665 238.364 30.2848 238.256 30.2417 238.131C30.1986 238.006 30.1962 237.871 30.235 237.745C30.2738 237.619 30.3518 237.508 30.4576 237.429C30.5633 237.35 30.6915 237.307 30.8235 237.306C30.9555 237.305 31.0844 237.345 31.1917 237.422C31.2991 237.499 31.3791 237.608 31.4204 237.734C31.4616 237.859 31.4619 237.994 31.4212 238.12C31.3805 238.245 31.3009 238.355 31.194 238.432C31.359 238.755 31.646 239.418 31.741 239.596C31.4739 239.73 31.179 239.801 30.88 239.801C30.5809 239.801 30.2861 239.73 30.019 239.596C30.195 239.288 30.446 238.472 30.475 238.439Z" fill="#FFFB9D"/>
<path d="M29.279 237.355C29.5277 236.914 29.9373 236.587 30.422 236.442C30.9067 236.296 31.4288 236.344 31.879 236.575C31.6842 236.374 31.4377 236.23 31.1666 236.159C30.8954 236.088 30.61 236.093 30.3416 236.174C30.0732 236.254 29.8321 236.407 29.6447 236.615C29.4573 236.824 29.3308 237.08 29.279 237.355Z" fill="#FFFB9D"/>
</svg>
