<?xml version="1.0" encoding="utf-8"?>
<!-- Generator: Adobe Illustrator 23.1.0, SVG Export Plug-In . SVG Version: 6.00 Build 0)  -->
<svg version="1.1" id="Layer_1" xmlns="http://www.w3.org/2000/svg" xmlns:xlink="http://www.w3.org/1999/xlink" x="0px" y="0px"
	 viewBox="0 0 1911.7 380.2" style="enable-background:new 0 0 1911.7 380.2;" xml:space="preserve">
<style type="text/css">
	.st0{fill:#F2F2F2;}
	.st1{fill:#F9A826;}
	.st2{fill:#525252;}
</style>
<path class="st0" d="M1918.4,30.8c-400.4-85.1-688.9,33.1-688.9,33.1S911.3,153.2,594.6,81C278,8.8-0.5,104.4-0.5,104.4L14.9,398
	l1903.5-102.2V30.8z"/>
<path class="st1" d="M1917.7,113.9c-395.4-105.9-687.3,2-687.3,2s-322.5,72.6-634.9-16.1C283.1,11.1,0,92,0,92v294h1917.7V113.9z"/>
<path class="st2" d="M1268.7,104c-21.1,13.1-257.4,66.3-424.1,135.8c-151.9,63.3-236.2,144-236.2,144H-5.6V90.8
	c0,0,288.4-91.5,707.1,32.6c35.1,7.4,92.4,14.7,159.3,18.3c51.3,2.7,57.9,4.2,186.5-2.1c43.6-2.2,80.2-7.3,107.1-11.2
	C1206.3,120.8,1234.1,112.8,1268.7,104z"/>
</svg>
