<svg width="1082" height="591" viewBox="0 0 1082 591" fill="none" xmlns="http://www.w3.org/2000/svg">
<path d="M362 578C509.46 578 629 448.61 629 289C629 129.39 509.46 0 362 0C214.54 0 95 129.39 95 289C95 448.61 214.54 578 362 578Z" fill="#F2F2F2"/>
<path opacity="0.1" d="M557.784 590.291C648.911 590.291 722.784 579.546 722.784 566.291C722.784 553.036 648.911 542.291 557.784 542.291C466.657 542.291 392.784 553.036 392.784 566.291C392.784 579.546 466.657 590.291 557.784 590.291Z" fill="black"/>
<path opacity="0.1" d="M1081.06 469.959C1075.29 471.609 1068.79 473.139 1061.66 474.539C1032.3 480.319 992.238 483.869 948.128 483.869C898.848 483.869 854.678 479.439 824.748 472.429C799.908 466.609 784.868 459.039 784.868 450.729C784.868 443.429 796.508 436.669 816.238 431.199C887.568 435.819 950.868 442.889 1001.87 451.739C1033.2 457.159 1059.93 463.319 1081.06 469.959Z" fill="black"/>
<path opacity="0.1" d="M537.269 459.031C537.269 474.161 442.349 486.431 325.269 486.431C208.189 486.431 113.269 474.161 113.269 459.031C113.305 458.071 113.656 457.15 114.269 456.411C167.749 445.641 238.159 437.051 319.199 431.651H325.309C442.349 431.641 537.269 443.901 537.269 459.031Z" fill="black"/>
<path d="M200.391 316.281C200.391 344.125 191.484 368.078 173.672 388.141C155.109 408.953 132.047 419.359 104.484 419.359C76.8281 419.359 53.7656 409 35.2969 388.281C17.4844 368.312 8.57812 344.312 8.57812 316.281C8.57812 288.531 17.5781 264.578 35.5781 244.422C54.1406 223.516 77.1094 213.062 104.484 213.062C131.953 213.062 154.969 223.516 173.531 244.422C191.438 264.484 200.391 288.438 200.391 316.281ZM166.5 315.859C166.5 297.484 160.781 281.5 149.344 267.906C137.344 253.469 122.297 246.25 104.203 246.25C86.2969 246.25 71.3906 253.562 59.4844 268.188C48.2344 281.875 42.6094 297.906 42.6094 316.281C42.6094 334.562 48.2344 350.547 59.4844 364.234C71.3906 378.859 86.2969 386.172 104.203 386.172C122.391 386.172 137.484 378.859 149.484 364.234C160.828 350.547 166.5 334.422 166.5 315.859ZM513.141 382.516C513.141 383.641 512.25 385.234 510.469 387.297C492.188 408.484 469.547 419.078 442.547 419.078C414.422 419.078 391.922 408.812 375.047 388.281C359.297 369.156 351.422 345.25 351.422 316.562C351.422 287.875 359.438 263.875 375.469 244.562C392.531 223.75 415.078 213.344 443.109 213.344C471.516 213.344 493.5 222.953 509.062 242.172C510.562 244.141 511.312 245.781 511.312 247.094C511.312 248.688 508.828 253.422 503.859 261.297C498.891 269.078 495.891 272.969 494.859 272.969C493.641 272.969 490.781 270.672 486.281 266.078C480.75 260.453 475.547 256.234 470.672 253.422C462.609 248.828 453.703 246.531 443.953 246.531C425.391 246.531 410.953 253.609 400.641 267.766C391.453 280.422 386.859 296.359 386.859 315.578C386.859 334.797 391.406 350.875 400.5 363.812C410.812 378.344 425.203 385.609 443.672 385.609C452.859 385.609 461.719 383.312 470.25 378.719C475.875 375.719 481.594 371.453 487.406 365.922C492.281 361.328 494.953 359.031 495.422 359.031C495.984 359.031 499.078 362.781 504.703 370.281C510.328 377.688 513.141 381.766 513.141 382.516Z" fill="#FF8B14"/>
<path d="M336.234 231.906C334.359 235 331.781 239.688 328.5 245.969C327.469 248.875 325.641 253 323.016 258.344C322.453 259.188 321.703 259.609 320.766 259.609C320.859 259.609 316.312 257.969 307.125 254.688C298.031 251.312 290.531 249.625 284.625 249.625C267.375 249.625 258.75 257.219 258.75 272.406C258.75 280.844 264.797 288.203 276.891 294.484C297.234 305.078 308.484 311.172 310.641 312.766C322.734 322.422 328.781 335.453 328.781 351.859C328.781 372.859 320.484 389.406 303.891 401.5C288.984 412.375 270.656 417.812 248.906 417.812C238.781 417.812 233.344 416.688 232.594 414.438C232.219 410.875 231.375 405.672 230.062 398.828C229.312 396.016 228.141 391.797 226.547 386.172C226.266 385.328 226.125 384.531 226.125 383.781C226.125 382.469 226.828 381.812 228.234 381.812C230.484 381.812 233.906 382.047 238.5 382.516C243.188 382.984 246.703 383.219 249.047 383.219C278.109 383.219 292.641 373.844 292.641 355.094C292.641 345.906 286.781 337.938 275.062 331.188C253.688 319 242.766 312.672 242.297 312.203C230.484 302.641 224.578 289.797 224.578 273.672C224.578 256.234 230.297 242.266 241.734 231.766C252.891 221.641 267.328 216.578 285.047 216.578C292.547 216.578 301.172 217.797 310.922 220.234C321.516 222.953 329.484 226.234 334.828 230.078C335.297 230.453 335.766 231.062 336.234 231.906Z" fill="#6B6B6B"/>
<path opacity="0.1" d="M825.02 504.641C825.02 553.371 757.08 538.301 673.9 538.301C590.72 538.301 523.8 553.371 523.8 504.641C523.8 455.911 591.73 445.301 674.9 445.301C758.07 445.301 825.02 455.901 825.02 504.641Z" fill="black"/>
<path d="M825.02 492.641C825.02 541.371 757.08 526.301 673.9 526.301C590.72 526.301 523.8 541.371 523.8 492.641C523.8 443.911 591.73 433.301 674.9 433.301C758.07 433.301 825.02 443.901 825.02 492.641Z" fill="#525252"/>
<path d="M820.273 397.588L823.733 411.748C823.773 411.902 823.773 412.064 823.733 412.218L808.153 460.898C808.118 461.008 808.061 461.111 807.986 461.199C807.911 461.288 807.82 461.361 807.717 461.414C807.613 461.467 807.501 461.499 807.385 461.508C807.27 461.517 807.153 461.504 807.043 461.468C806.882 461.415 806.739 461.317 806.631 461.186C806.523 461.055 806.455 460.896 806.433 460.728L804.283 441.728C804.253 441.603 804.253 441.473 804.283 441.348L818.583 397.478C818.656 397.254 818.815 397.068 819.025 396.962C819.235 396.855 819.479 396.835 819.703 396.908C819.851 396.959 819.982 397.049 820.082 397.169C820.183 397.289 820.249 397.434 820.273 397.588V397.588Z" fill="#2F2E41"/>
<path d="M818.919 398.52L822.089 410.68L808.349 455.06L805.179 441.32L818.919 398.52Z" fill="#F2F2F2"/>
<path d="M746.953 465.571C747.483 467.161 801.953 465.041 802.433 464.521C802.893 463.857 803.282 463.146 803.593 462.401C804.093 461.351 804.543 460.291 804.543 460.291L802.433 443.181L748.543 441.271C748.543 441.271 747.193 455.771 746.923 462.401C746.828 463.456 746.838 464.518 746.953 465.571Z" fill="#2F2E41"/>
<path opacity="0.1" d="M795.752 445.282L796.812 460.072H773.032V445.282H795.752Z" fill="black"/>
<path opacity="0.1" d="M762.144 449.94L762.284 449.91L761.614 456.28H748.404V449.94H762.144Z" fill="black"/>
<path opacity="0.1" d="M746.879 465.813C747.409 467.403 801.879 465.283 802.359 464.763C802.819 464.099 803.208 463.389 803.519 462.643H746.819C746.734 463.699 746.754 464.761 746.879 465.813V465.813Z" fill="black"/>
<path d="M654.545 408.837H669.335L705.795 394.567C705.795 394.567 731.685 383.997 729.565 404.077C727.445 424.157 723.755 451.077 723.755 451.077C723.755 451.077 712.135 445.797 705.755 447.387C699.375 448.977 703.675 415.227 703.675 415.227C703.675 415.227 651.895 440.057 647.145 436.887C642.395 433.717 641.335 411.527 641.335 411.527L654.545 408.837Z" fill="#2F2E41"/>
<path opacity="0.1" d="M654.545 408.837H669.335L705.795 394.567C705.795 394.567 731.685 383.997 729.565 404.077C727.445 424.157 723.755 451.077 723.755 451.077C723.755 451.077 712.135 445.797 705.755 447.387C699.375 448.977 703.675 415.227 703.675 415.227C703.675 415.227 651.895 440.057 647.145 436.887C642.395 433.717 641.335 411.527 641.335 411.527L654.545 408.837Z" fill="black"/>
<path d="M681.814 361.544L699.724 387.264L741.454 422.134C741.454 422.134 780.024 431.134 774.734 437.454C769.444 443.774 737.224 431.114 737.224 431.114C737.224 431.114 689.154 396.264 687.564 393.604C685.974 390.944 668.564 366.134 668.564 366.134L681.814 361.544Z" fill="#A0616A"/>
<path opacity="0.1" d="M681.814 361.544L699.724 387.264L741.454 422.134C741.454 422.134 780.024 431.134 774.734 437.454C769.444 443.774 737.224 431.114 737.224 431.114C737.224 431.114 689.154 396.264 687.564 393.604C685.974 390.944 668.564 366.134 668.564 366.134L681.814 361.544Z" fill="black"/>
<path d="M673.468 327.631C686.601 327.631 697.248 316.984 697.248 303.851C697.248 290.718 686.601 280.071 673.468 280.071C660.335 280.071 649.688 290.718 649.688 303.851C649.688 316.984 660.335 327.631 673.468 327.631Z" fill="#A0616A"/>
<path d="M669.671 326.277C669.671 326.277 661.741 340.007 660.161 347.407C658.581 354.807 636.381 332.617 636.381 332.617L633.471 324.947C633.471 324.947 654.341 315.177 652.761 307.247C651.181 299.317 669.671 326.277 669.671 326.277Z" fill="#A0616A"/>
<path d="M664.191 337.789L675.811 360.509C675.811 360.509 673.171 371.609 668.941 372.669C664.711 373.729 646.751 358.929 646.751 358.929L664.191 337.789Z" fill="#D0CDE1"/>
<path d="M682.09 372.818L703.79 401.348L755.56 439.918C755.56 439.918 793.08 447.838 784.62 453.658C776.16 459.478 751.87 448.368 751.87 448.368C751.87 448.368 699.56 420.368 688.46 408.748C677.36 397.128 656.76 377.568 656.76 377.568L682.09 372.818Z" fill="#A0616A"/>
<path d="M646.649 418.341L652.989 428.341L690.829 416.431C694.929 415.107 699.267 414.69 703.544 415.208C707.821 415.726 711.934 417.167 715.599 419.431C722.209 423.591 726.439 430.201 716.919 439.971C697.919 459.521 685.219 448.971 685.219 448.971C685.219 448.971 621.289 479.101 610.729 464.281C600.169 449.461 599.629 442.081 599.629 442.081C599.629 442.081 640.309 416.751 646.649 418.341Z" fill="#2F2E41"/>
<path d="M729.575 453.757C729.575 453.757 746.475 464.857 726.405 470.137C706.335 475.417 691.535 468.027 691.535 468.027C691.535 468.027 674.095 468.027 674.095 459.027C674.095 450.027 679.905 449.027 679.905 449.027L697.905 451.667C697.905 451.667 719.535 445.827 729.575 453.757Z" fill="#D0CDE1"/>
<path d="M693.047 297.277C694.614 298.119 696.3 298.719 698.047 299.057C698.924 299.21 699.827 299.103 700.643 298.747C701.459 298.391 702.152 297.804 702.637 297.057C703.026 296.177 703.208 295.219 703.167 294.257C703.227 291.357 703.017 288.257 701.167 285.977C699.997 284.547 698.287 283.647 697.077 282.247C696.263 281.205 695.568 280.075 695.007 278.877C692.657 274.447 689.167 270.197 684.317 268.877C682.268 268.435 680.169 268.277 678.077 268.407L665.877 268.577C663.901 268.515 661.925 268.727 660.007 269.207C656.077 270.397 653.217 273.697 650.597 276.857C648.563 279.162 646.755 281.657 645.197 284.307C643.084 288.241 642.017 292.652 642.097 297.117C642.083 298.259 642.231 299.397 642.537 300.497C642.9 301.508 643.345 302.488 643.867 303.427C646.157 307.917 647.517 313.537 644.937 317.877C649.417 316.047 653.847 313.647 656.807 309.817C658.127 308.107 659.157 306.097 660.927 304.817C662.697 303.537 665.557 303.457 666.687 305.297C667.068 306.047 667.266 306.876 667.267 307.717C667.229 309.107 667.456 310.492 667.937 311.797C668.192 312.444 668.66 312.984 669.264 313.33C669.867 313.675 670.57 313.805 671.257 313.697C673.557 313.047 673.337 309.517 675.107 307.907C676.457 306.697 678.527 306.907 680.257 306.377C681.247 305.999 682.149 305.42 682.904 304.676C683.66 303.933 684.253 303.041 684.647 302.057C685.297 300.587 685.287 296.747 686.527 295.947C688.067 295.047 691.607 296.637 693.047 297.277Z" fill="#2F2E41"/>
<path d="M629.466 326.865C630.533 326.575 631.659 326.575 632.726 326.865C636.116 327.775 643.726 330.185 645.356 333.865C647.466 338.615 654.866 346.015 654.866 346.015C654.866 346.015 664.866 356.015 662.786 362.915C660.706 369.815 652.786 377.715 652.786 377.715C652.786 377.715 654.906 410.475 644.336 418.925C633.766 427.375 629.466 421.565 629.466 429.495C629.466 437.425 596.746 462.225 590.406 446.925C590.406 446.925 593.576 418.395 592.516 408.355C591.466 398.465 592.996 336.735 629.466 326.865Z" fill="#D0CDE1"/>
<path d="M648.491 337.521C648.491 337.521 680.721 361.291 674.911 371.331C674.911 371.331 655.361 380.841 651.131 380.331C646.901 379.821 630.531 361.331 626.301 359.731C622.071 358.131 619.961 329.571 648.491 337.521Z" fill="#D0CDE1"/>
<path d="M551 363.403C546 365.093 541.45 369.053 540.42 374.243C539.94 376.653 540.24 379.153 539.84 381.573C538.91 387.183 534.5 391.473 530.44 395.453C526.38 399.433 522.18 404.053 521.88 409.733C521.56 415.953 526.07 421.783 525.29 427.963C524.38 435.143 516.8 439.793 514.93 446.783C513.67 451.453 515.21 456.483 517.73 460.603C522.54 468.453 530.73 473.783 539.51 476.603C548.29 479.423 557.59 480.063 566.79 480.153C578.01 480.273 590.18 479.313 598.6 471.913C603.409 467.646 606.43 461.721 607.06 455.323C607.86 446.753 604.28 437.893 606.75 429.653C608.3 424.463 612.2 419.723 611.62 414.333C611.04 408.943 606.45 405.333 603.29 401.083C600.35 397.083 598.56 392.413 596.81 387.793L590.81 371.973C589.63 368.863 588.34 365.583 585.71 363.543C580.8 359.723 572.89 360.473 567.14 361.263C561.81 362.033 556.13 361.673 551 363.403Z" fill="#2F2E41"/>
<path d="M552.559 408.93C552.559 408.93 555.219 417.56 535.279 427.53C515.339 437.5 537.279 448.12 537.279 448.12L560.529 453.44C560.529 453.44 584.449 450.12 587.109 446.13C589.769 442.14 594.409 428.86 593.109 426.86C592.117 425.435 591.007 424.097 589.789 422.86C589.789 422.86 573.849 420.2 574.509 412.86C575.169 405.52 552.559 408.93 552.559 408.93Z" fill="#FFB9B9"/>
<path opacity="0.1" d="M552.559 408.93C552.559 408.93 555.219 417.56 535.279 427.53C515.339 437.5 537.279 448.12 537.279 448.12L560.529 453.44C560.529 453.44 584.449 450.12 587.109 446.13C589.769 442.14 594.409 428.86 593.109 426.86C592.117 425.435 591.007 424.097 589.789 422.86C589.789 422.86 573.849 420.2 574.509 412.86C575.169 405.52 552.559 408.93 552.559 408.93Z" fill="black"/>
<path d="M587.094 403.024C588.975 391.435 581.105 380.514 569.515 378.633C557.925 376.751 547.005 384.622 545.123 396.212C543.242 407.802 551.112 418.722 562.702 420.603C574.292 422.485 585.213 414.614 587.094 403.024Z" fill="#FFB9B9"/>
<path d="M562.712 444.881C562.712 444.881 537.102 443.011 536.622 425.341C536.622 425.341 527.502 424.291 524.842 426.941C522.182 429.591 509.086 438.779 509.086 445.429C509.086 452.079 524.842 464.958 524.842 464.958C524.842 464.958 536.162 491.391 532.812 496.041C529.462 500.691 528.812 512.651 528.812 512.651C528.812 512.651 562.022 509.991 567.342 512.651C572.662 515.311 593.912 515.301 595.242 512.651C596.572 510.001 593.912 476.771 593.912 476.771C593.912 476.771 604.97 472.258 603.62 462.988L616.535 444.881C616.535 444.881 608.512 422.961 599.235 422.961C599.235 422.961 586.615 419.631 586.235 421.301C585.855 422.971 592.602 441.561 562.712 444.881Z" fill="#232323"/>
<path d="M499.383 512.351C499.383 512.351 505.383 521.651 520.643 523.641C535.903 525.631 538.583 520.321 537.253 518.991C535.923 517.661 519.983 511.681 519.983 511.681L510.683 504.371L499.383 512.351Z" fill="#FFB9B9"/>
<path d="M616.578 504.371L599.308 514.371C599.308 514.371 576.718 513.041 585.308 519.681C593.898 526.321 609.888 523.681 609.888 523.681L625.218 516.301L616.578 504.371Z" fill="#FFB9B9"/>
<path d="M527.554 521.651C527.554 521.651 511.614 560.841 530.884 566.821C550.154 572.801 603.294 571.471 615.254 563.501C627.214 555.531 630.534 544.901 628.544 541.581C626.554 538.261 613.264 528.951 603.964 528.301C594.664 527.651 527.554 521.651 527.554 521.651Z" fill="#2F2E41"/>
<path opacity="0.05" d="M527.554 521.651C527.554 521.651 511.614 560.841 530.884 566.821C550.154 572.801 603.294 571.471 615.254 563.501C627.214 555.531 630.534 544.901 628.544 541.581C626.554 538.261 613.264 528.951 603.964 528.301C594.664 527.651 527.554 521.651 527.554 521.651Z" fill="black"/>
<path d="M606.181 524.081C606.181 524.081 662.461 503.711 661.801 528.301C661.141 552.891 625.931 559.531 625.931 559.531L615.301 560.851L556.831 562.851C556.831 562.851 558.831 552.221 554.181 550.851C554.181 550.851 569.461 546.851 570.121 546.201C570.781 545.551 608.641 532.301 611.301 531.611C613.961 530.921 621.931 525.611 627.911 526.301C627.911 526.301 634.561 520.981 641.861 522.301L621.271 523.631L606.181 524.081Z" fill="#2F2E41"/>
<path opacity="0.1" d="M606.181 524.081C606.181 524.081 662.461 503.711 661.801 528.301C661.141 552.891 625.931 559.531 625.931 559.531L615.301 560.851L556.831 562.851C556.831 562.851 558.831 552.221 554.181 550.851C554.181 550.851 569.461 546.851 570.121 546.201C570.781 545.551 608.641 532.301 611.301 531.611C613.961 530.921 621.931 525.611 627.911 526.301C627.911 526.301 634.561 520.981 641.861 522.301L621.271 523.631L606.181 524.081Z" fill="black"/>
<path d="M597.531 527.381L604.631 543.571L647.811 528.291L651.141 519.651L639.841 517.661L617.131 521.641L607.291 524.301L597.531 527.381Z" fill="#2F2E41"/>
<path opacity="0.1" d="M597.531 527.381L604.631 543.571L647.811 528.291L651.141 519.651L639.841 517.661L617.131 521.641L607.291 524.301L597.531 527.381Z" fill="black"/>
<path d="M494.871 546.891C494.871 546.891 507.491 562.841 522.111 566.821C536.731 570.801 544.701 565.501 544.701 565.501L540.051 546.891L538.051 534.891L529.421 528.891L512.141 520.891L491.551 514.301C491.551 514.301 482.911 512.971 482.911 514.301C482.911 515.631 490.911 535.561 490.911 535.561L494.871 546.891Z" fill="#2F2E41"/>
<path d="M511.651 555.531C511.651 555.531 514.311 574.801 517.651 576.121C520.991 577.441 530.941 574.801 533.591 573.471C536.241 572.141 545.281 566.011 545.281 566.011C545.281 566.011 513.641 554.201 511.651 555.531Z" fill="#F2F2F2"/>
<path d="M577.004 557.521L589.624 559.511L588.294 574.791L570.684 570.521L577.004 557.521Z" fill="#FFB9B9"/>
<path d="M586.643 561.781C586.643 561.781 580.723 568.781 586.703 572.781L590.703 576.101C590.703 576.101 603.983 578.761 605.313 580.101C606.643 581.441 611.963 578.101 611.963 578.101C611.963 578.101 612.623 558.171 611.963 556.841C611.303 555.511 603.323 554.181 602.653 555.511C601.983 556.841 594.023 558.831 589.373 557.511L586.643 561.781Z" fill="#F2F2F2"/>
<path d="M525.879 526.301C525.879 526.301 479.369 499.061 472.069 509.021C464.769 518.981 456.779 532.941 478.069 543.571C499.359 554.201 565.779 576.121 565.779 576.121C565.779 576.121 575.779 560.841 575.779 556.861C575.779 556.861 540.569 540.911 534.589 539.581C528.609 538.251 504.689 522.981 501.369 521.651C498.049 520.321 493.369 516.331 493.369 516.331L525.879 526.301Z" fill="#2F2E41"/>
<path d="M511.908 441.921L509.248 443.921C509.248 443.921 503.248 459.201 502.608 467.841C501.968 476.481 493.968 503.051 494.608 506.371C495.248 509.691 495.938 512.371 499.918 515.671C499.918 515.671 505.238 503.671 514.538 505.671L525.828 464.481L511.908 441.921Z" fill="#232323"/>
<path d="M615.129 443.921L620.449 449.921C620.449 449.921 623.769 457.921 623.769 459.921C623.769 461.921 630.409 491.151 631.079 492.471C631.749 493.791 634.399 510.411 631.079 514.401C627.759 518.391 621.779 521.041 621.779 521.041C621.779 521.041 625.779 507.091 613.139 506.431L614.469 501.111L602.469 461.251L615.129 443.921Z" fill="#232323"/>
<path d="M518.427 489.661V524.661C518.424 526.872 519.293 528.994 520.845 530.569C522.397 532.143 524.507 533.042 526.717 533.071L599.897 534.161C602.094 534.191 604.216 533.363 605.811 531.852C607.406 530.341 608.349 528.266 608.437 526.071L609.777 491.071C609.82 489.967 609.645 488.866 609.262 487.83C608.879 486.793 608.296 485.843 607.545 485.032C606.795 484.222 605.892 483.567 604.889 483.105C603.885 482.643 602.801 482.384 601.697 482.341H601.497L526.967 481.261C524.736 481.232 522.585 482.088 520.984 483.641C519.383 485.195 518.464 487.32 518.427 489.551V489.661Z" fill="#3F3D56"/>
<path d="M567.454 397.89C580.09 397.89 590.334 392.374 590.334 385.57C590.334 378.766 580.09 373.25 567.454 373.25C554.818 373.25 544.574 378.766 544.574 385.57C544.574 392.374 554.818 397.89 567.454 397.89Z" fill="#2F2E41"/>
<path d="M562.859 497C561.953 496.997 560.962 497.258 559.942 497.831C559.326 498.177 560.433 499.722 560.939 499.461C560.99 499.435 561.04 499.412 561.09 499.388L560.775 498.799L561.453 499.227C565.467 497.593 566.297 502.67 564.088 504.626C564.542 505.165 565.483 506.028 566.314 506.232C568.672 501.074 566.415 497.011 562.859 497Z" fill="#FEAE01"/>
<path d="M565.245 512.48C565.088 512.592 562.723 516.487 562.53 516.485C562.336 516.483 560.057 512.533 559.903 512.417C559.748 512.301 555.32 511.248 555.262 511.063C555.204 510.878 558.245 507.487 558.307 507.304C558.369 507.12 557.997 502.574 558.155 502.462C558.312 502.35 562.471 504.204 562.664 504.206C562.857 504.209 567.056 502.452 567.211 502.568C567.366 502.684 566.895 507.22 566.953 507.405C567.011 507.59 569.977 511.051 569.915 511.235C569.853 511.418 565.403 512.367 565.245 512.48Z" fill="#FEAE01"/>
<path d="M562.567 513.376C562.373 513.376 558.195 515.192 558.038 515.079C557.881 514.965 558.296 510.427 558.236 510.242C558.176 510.058 555.164 506.644 555.224 506.46C555.283 506.276 559.724 505.262 559.88 505.148C560.036 505.033 562.354 501.107 562.547 501.107C562.741 501.106 565.071 505.018 565.227 505.132C565.384 505.245 569.827 506.233 569.888 506.417C569.948 506.601 566.947 510.033 566.888 510.217C566.828 510.402 567.257 514.938 567.101 515.053C566.945 515.167 562.761 513.375 562.567 513.376Z" fill="#ED7806"/>
<path fill-rule="evenodd" clip-rule="evenodd" d="M567.217 509.045C567.22 509.973 566.947 510.881 566.434 511.654C565.92 512.427 565.189 513.03 564.332 513.387C563.476 513.744 562.533 513.839 561.622 513.66C560.712 513.48 559.875 513.035 559.218 512.38C558.561 511.725 558.113 510.889 557.931 509.979C557.748 509.069 557.84 508.126 558.195 507.268C558.549 506.411 559.15 505.677 559.922 505.162C560.693 504.646 561.6 504.37 562.528 504.37C563.143 504.369 563.752 504.49 564.32 504.724C564.889 504.958 565.405 505.302 565.841 505.737C566.276 506.171 566.622 506.686 566.858 507.254C567.094 507.822 567.216 508.43 567.217 509.045V509.045Z" fill="#FEBD4D"/>
<path d="M561.536 510.372C560.057 509.106 561.256 507.592 562.459 507.585C563.663 507.578 564.728 509.26 563.304 510.354C563.709 511.147 564.414 512.777 564.65 513.215C563.145 513.957 561.419 513.801 560.415 513.211C560.849 512.46 561.466 510.453 561.536 510.371L561.536 510.372Z" fill="#FFFB9D"/>
<path d="M558.595 507.713C559.474 506.148 561.961 504.333 564.978 505.796C563.135 503.449 558.879 504.896 558.595 507.713Z" fill="#FFFB9D"/>
</svg>
