<?xml version="1.0" encoding="utf-8"?>
<!-- Generator: Adobe Illustrator 23.1.0, SVG Export Plug-In . SVG Version: 6.00 Build 0)  -->
<svg version="1.1" id="Layer_1" xmlns="http://www.w3.org/2000/svg" xmlns:xlink="http://www.w3.org/1999/xlink" x="0px" y="0px"
	 viewBox="0 0 135 179.1" style="enable-background:new 0 0 135 179.1;" xml:space="preserve">
<style type="text/css">
	.st0{fill:#FEAE01;}
	.st1{fill:#ED7806;}
	.st2{fill-rule:evenodd;clip-rule:evenodd;fill:#FEBD4D;}
	.st3{fill:#FFFB9D;}
</style>
<path class="st0" d="M70.2,0c-8.3,0-17.4,2.4-26.8,7.6c-5.7,3.2,4.5,17.4,9.2,15c0.5-0.2,0.9-0.5,1.4-0.7L51,16.5l6.2,3.9
	c36.9-15,44.5,31.7,24.2,49.6c4.2,5,12.8,12.9,20.5,14.8C123.6,37.4,102.9,0.1,70.2,0z"/>
<path class="st0" d="M92.1,142.3c-1.5,1-23.2,36.8-25,36.8S44.4,142.8,43,141.7c-1.4-1.1-42.1-10.7-42.7-12.4
	c-0.5-1.7,27.4-32.9,28-34.6c0.6-1.7-2.8-43.5-1.4-44.5c1.4-1,39.7,16,41.5,16c1.8,0,40.4-16.1,41.8-15.1c1.4,1.1-2.9,42.8-2.4,44.5
	c0.5,1.7,27.8,33.5,27.2,35.2C134.5,132.5,93.6,141.3,92.1,142.3z"/>
<path class="st1" d="M67.5,150.5c-1.8,0-40.2,16.7-41.6,15.7c-1.4-1,2.4-42.8,1.8-44.5C27.1,120-0.5,88.7,0,87
	c0.5-1.7,41.4-11,42.8-12.1c1.4-1,22.7-37.1,24.5-37.1c1.8,0,23.2,36,24.6,37c1.4,1,42.3,10.1,42.8,11.8s-27,33.2-27.6,34.9
	c-0.5,1.7,3.4,43.4,2,44.4C107.7,167,69.3,150.5,67.5,150.5z"/>
<path class="st2" d="M110.2,110.7c0,8.5-2.5,16.9-7.2,24c-4.7,7.1-11.4,12.6-19.3,15.9c-7.9,3.3-16.5,4.2-24.9,2.5
	s-16.1-5.7-22.1-11.8c-6-6-10.2-13.7-11.8-22.1c-1.7-8.4-0.8-17,2.4-24.9c3.3-7.9,8.8-14.6,15.9-19.4c7.1-4.7,15.4-7.3,24-7.3
	c5.7,0,11.2,1.1,16.5,3.3c5.2,2.2,10,5.3,14,9.3c4,4,7.2,8.7,9.4,13.9C109.1,99.5,110.2,105.1,110.2,110.7z"/>
<path class="st3" d="M58,122.9c-13.6-11.6-2.6-25.6,8.5-25.6c11.1-0.1,20.9,15.4,7.8,25.5C78,130,84.5,145,86.6,149
	c-13.8,6.8-29.7,5.4-38.9,0C51.7,142.1,57.4,123.7,58,122.9L58,122.9z"/>
<path class="st3" d="M31,98.5c8.1-14.4,30.9-31.1,58.7-17.6C72.7,59.3,33.6,72.6,31,98.5z"/>
</svg>
