<svg width="21" height="21" viewBox="0 0 21 21" fill="none" xmlns="http://www.w3.org/2000/svg">
<path d="M14.1811 9.65119C14.3976 9.65119 14.5731 9.47568 14.5731 9.25919C14.5731 9.04269 14.3976 8.86719 14.1811 8.86719C13.9646 8.86719 13.7891 9.04269 13.7891 9.25919C13.7891 9.47568 13.9646 9.65119 14.1811 9.65119Z" fill="#F9A826"/>
<path d="M14.249 10.9411C14.198 10.9335 14.1459 10.9359 14.0959 10.9485C14.0458 10.961 13.9987 10.9832 13.9573 11.014C13.9158 11.0447 13.8809 11.0834 13.8544 11.1277C13.8279 11.1719 13.8105 11.221 13.803 11.2721C13.7108 11.6676 13.5079 12.0287 13.218 12.3131C12.9281 12.5976 12.5632 12.7935 12.166 12.8781C11.6235 13.0624 11.0408 13.0946 10.4813 12.9712C9.92172 12.8478 9.40666 12.5735 8.99199 12.1781C8.92158 12.1015 8.82359 12.0559 8.71961 12.0515C8.61562 12.0471 8.51413 12.0842 8.43749 12.1546C8.36084 12.225 8.31531 12.323 8.3109 12.427C8.30649 12.531 8.34357 12.6324 8.41399 12.7091C8.91778 13.2453 9.57955 13.6069 10.303 13.7411C10.5734 13.7948 10.8484 13.8215 11.124 13.8211C11.555 13.8213 11.9837 13.7576 12.396 13.6321C12.9362 13.5063 13.4289 13.2282 13.8158 12.8308C14.2028 12.4334 14.4676 11.9334 14.579 11.3901C14.5871 11.3389 14.5849 11.2866 14.5727 11.2363C14.5605 11.1859 14.5383 11.1385 14.5077 11.0967C14.477 11.055 14.4383 11.0197 14.3939 10.993C14.3495 10.9663 14.3003 10.9487 14.249 10.9411V10.9411Z" fill="#F9A826"/>
<path d="M9.04102 9.45204L15.083 6.48404L16.689 6.20504L18.2612 6.72903L19.7271 8.30004L20.5269 11.129C20.5269 11.129 19.7271 14.516 19.7271 14.729C19.2885 15.4627 18.7988 16.1645 18.2612 16.829L15.9912 18.365L13.8911 19.238L8.65283 19.448L4.35303 16.829L2.29297 13.616L1.27979 8.51604L3.41016 4.25603L5.95898 1.98604L8.64795 0.729034L11.0229 0.415039L11.8608 1.00904V2.44104L11.2671 3.62804L11.4419 4.74504L7.7749 7.81804H6.30811L4.63184 10.088L4.35303 11.136H6.30908L7.77588 10.647L8.47607 10.088L8.65088 9.45904L9.04102 9.45204Z" fill="#525252"/>
<path d="M19.7021 7.47108C18.9539 6.62631 17.9349 6.06837 16.8201 5.89308C17.8139 5.23837 18.7536 4.50502 19.6301 3.70008C20.6941 2.68708 21.0501 1.97408 20.7521 1.45908C20.4211 0.885076 19.4641 0.889076 17.7411 1.47208C15.9682 2.11329 14.2593 2.91949 12.6371 3.88008C12.3201 4.06308 12.0051 4.25108 11.6981 4.44008C11.5902 4.0954 11.5727 3.72877 11.6473 3.37539C11.7219 3.022 11.8861 2.69373 12.1241 2.42208C12.3064 2.20568 12.4239 1.94213 12.4628 1.66184C12.5017 1.38155 12.4606 1.09597 12.3441 0.838076C12.2022 0.571561 11.9872 0.351105 11.7243 0.202649C11.4614 0.0541934 11.1616 -0.0160873 10.8601 7.62688e-05H10.8421C8.38683 0.0231442 6.03091 0.972871 4.24609 2.65908C2.41565 4.31716 1.27198 6.60022 1.04009 9.05908C0.907894 10.4537 1.0679 11.8606 1.50989 13.1899C1.95188 14.5192 2.66616 15.7418 3.60713 16.7796C4.54809 17.8173 5.69509 18.6476 6.9749 19.2172C8.25471 19.7869 9.63923 20.0835 11.0401 20.0881C12.481 20.1007 13.9095 19.8221 15.2401 19.2691C16.4017 18.7794 17.4537 18.0623 18.3341 17.1601C19.1459 16.3342 19.7967 15.3643 20.2531 14.3001C20.6777 13.3202 20.9093 12.2677 20.9351 11.2001C20.9997 9.84732 20.5604 8.51867 19.7021 7.47108V7.47108ZM11.7441 5.33508C12.1591 5.07308 12.5921 4.81208 13.0301 4.55908C14.5481 3.6638 16.1415 2.9029 17.7921 2.28508C19.3031 1.75008 19.9221 1.78508 20.0661 1.85408C20.0541 1.94508 19.9401 2.35408 18.9491 3.26508C17.8893 4.20153 16.7519 5.04624 15.5491 5.79008C15.1171 6.06408 14.6671 6.33608 14.2121 6.59908C13.5851 6.96108 12.9581 7.29908 12.3431 7.60908C12.0997 6.89714 11.7218 6.23855 11.2301 5.66908C11.3968 5.55641 11.5681 5.44508 11.7441 5.33508ZM11.6271 7.95608C10.68 8.41875 9.69794 8.80628 8.69009 9.11508C8.60691 8.71369 8.39985 8.34853 8.09809 8.07108C8.869 7.35396 9.69486 6.69829 10.5681 6.11008C11.0463 6.64445 11.4067 7.27338 11.6261 7.95608H11.6271ZM20.1511 11.1851C20.0951 15.0851 16.5971 19.3031 11.0441 19.3031C8.6036 19.3068 6.26031 18.3469 4.52374 16.6322C2.78717 14.9174 1.79775 12.5864 1.7706 10.1461C1.74345 7.70574 2.68078 5.35334 4.37877 3.60039C6.07676 1.84743 8.39812 0.835661 10.8381 0.785076H10.8601C11.0144 0.7697 11.1698 0.798706 11.3082 0.868681C11.4466 0.938657 11.562 1.04669 11.6411 1.18008C11.6938 1.30546 11.7097 1.44328 11.6868 1.57736C11.664 1.71145 11.6034 1.83623 11.5121 1.93708C11.1729 2.33523 10.9485 2.81824 10.8631 3.33427C10.7776 3.85029 10.8343 4.37984 11.0271 4.86608C10.8171 5.00208 10.6101 5.13808 10.4101 5.27308C9.3392 5.9742 8.33498 6.77222 7.41009 7.65708C7.14576 7.56643 6.86503 7.53363 6.58692 7.56089C6.30881 7.58815 6.0398 7.67483 5.79809 7.81508C4.98309 8.28608 3.91309 10.4801 3.70609 10.9151C3.67883 10.9725 3.66592 11.0356 3.66847 11.0991C3.67103 11.1625 3.68897 11.2244 3.72074 11.2794C3.75252 11.3344 3.79719 11.3809 3.85091 11.4148C3.90462 11.4487 3.96577 11.469 4.02909 11.4741C4.24609 11.4921 4.86209 11.5361 5.54709 11.5361C6.29935 11.5853 7.05351 11.4749 7.76009 11.2121C7.99514 11.0746 8.19891 10.8895 8.35836 10.6688C8.51781 10.448 8.62943 10.1964 8.68609 9.93008C9.92085 9.572 11.1197 9.09997 12.2671 8.52008C13.0301 8.14908 13.8141 7.73108 14.5991 7.27808C14.9991 7.04808 15.3901 6.81108 15.7731 6.57208H15.7801C16.3815 6.54786 16.9811 6.65259 17.5386 6.87924C18.0962 7.10589 18.5988 7.4492 19.0127 7.88614C19.4266 8.32307 19.7423 8.84351 19.9385 9.41251C20.1346 9.9815 20.2068 10.5859 20.1501 11.1851H20.1511ZM7.94409 9.58808C7.932 9.78198 7.87206 9.96986 7.76963 10.1349C7.6672 10.3 7.52546 10.4371 7.35709 10.5341C6.47879 10.7603 5.56718 10.828 4.66509 10.7341C5.03304 9.90341 5.54644 9.14516 6.18109 8.49508C6.36548 8.38905 6.57514 8.33494 6.7878 8.33846C7.00047 8.34198 7.20822 8.40302 7.38899 8.5151C7.56977 8.62717 7.71683 8.7861 7.81456 8.97501C7.91229 9.16392 7.95705 9.37577 7.94409 9.58808Z" fill="#6B6B6B"/>
<path d="M7.9042 2.42603C7.59389 2.42603 7.29054 2.51804 7.03252 2.69045C6.77449 2.86285 6.57339 3.1079 6.45463 3.3946C6.33588 3.68129 6.30482 3.99676 6.36536 4.30112C6.4259 4.60548 6.57532 4.88504 6.79475 5.10447C7.01418 5.3239 7.29376 5.47334 7.59811 5.53388C7.90247 5.59442 8.21794 5.56335 8.50464 5.44459C8.79133 5.32584 9.03638 5.12474 9.20878 4.86672C9.38119 4.6087 9.4732 4.30534 9.4732 3.99503C9.47268 3.57906 9.30721 3.18029 9.01308 2.88616C8.71895 2.59203 8.32017 2.42655 7.9042 2.42603V2.42603ZM7.9042 4.78003C7.74895 4.78003 7.59717 4.73399 7.46808 4.64773C7.33898 4.56147 7.23837 4.43887 7.17895 4.29543C7.11954 4.15199 7.104 3.99416 7.13429 3.84188C7.16458 3.68961 7.23935 3.54973 7.34914 3.43995C7.45892 3.33016 7.59879 3.2554 7.75107 3.22511C7.90334 3.19482 8.06118 3.21036 8.20462 3.26978C8.34806 3.32919 8.47066 3.42981 8.55691 3.5589C8.64317 3.688 8.68921 3.83977 8.68921 3.99503C8.68894 4.20314 8.60616 4.40265 8.459 4.54981C8.31184 4.69697 8.11232 4.77976 7.9042 4.78003V4.78003Z" fill="#F9A826"/>
<path d="M5.94204 12.969C5.63173 12.969 5.32838 13.061 5.07036 13.2334C4.81233 13.4058 4.61124 13.6509 4.49248 13.9376C4.37373 14.2243 4.34265 14.5398 4.4032 14.8441C4.46374 15.1485 4.61316 15.428 4.83259 15.6475C5.05202 15.8669 5.3316 16.0163 5.63595 16.0768C5.94031 16.1374 6.25578 16.1063 6.54248 15.9876C6.82917 15.8688 7.07422 15.6677 7.24662 15.4097C7.41903 15.1517 7.51104 14.8483 7.51104 14.538C7.51052 14.122 7.34505 13.7233 7.05092 13.4291C6.75679 13.135 6.35801 12.9695 5.94204 12.969V12.969ZM5.94204 15.323C5.78679 15.323 5.63502 15.277 5.50592 15.1907C5.37683 15.1044 5.27622 14.9818 5.2168 14.8384C5.15739 14.695 5.14184 14.5371 5.17213 14.3849C5.20242 14.2326 5.27718 14.0927 5.38697 13.9829C5.49675 13.8732 5.63662 13.7984 5.7889 13.7681C5.94117 13.7378 6.09901 13.7534 6.24245 13.8128C6.38589 13.8722 6.5085 13.9728 6.59475 14.1019C6.68101 14.231 6.72705 14.3827 6.72705 14.538C6.72573 14.7454 6.64247 14.9439 6.49543 15.0902C6.34838 15.2365 6.14947 15.3187 5.94204 15.319V15.323Z" fill="#F9A826"/>
<path d="M9.86612 15.323C9.5558 15.323 9.25245 15.415 8.99443 15.5874C8.73641 15.7598 8.5353 16.0049 8.41655 16.2916C8.29779 16.5783 8.26673 16.8938 8.32727 17.1981C8.38781 17.5025 8.53724 17.782 8.75667 18.0015C8.9761 18.2209 9.25567 18.3703 9.56003 18.4308C9.86438 18.4914 10.1799 18.4603 10.4666 18.3416C10.7532 18.2228 10.9983 18.0217 11.1707 17.7637C11.3431 17.5057 11.4351 17.2023 11.4351 16.892C11.4346 16.476 11.2691 16.0773 10.975 15.7831C10.6809 15.489 10.2821 15.3235 9.86612 15.323ZM9.86612 17.677C9.71086 17.677 9.55908 17.631 9.42999 17.5447C9.3009 17.4585 9.20028 17.3359 9.14087 17.1924C9.08145 17.049 9.06592 16.8911 9.09621 16.7389C9.12649 16.5866 9.20126 16.4467 9.31105 16.3369C9.42083 16.2272 9.56071 16.1524 9.71298 16.1221C9.86526 16.0918 10.0231 16.1074 10.1665 16.1668C10.31 16.2262 10.4326 16.3268 10.5188 16.4559C10.6051 16.585 10.6511 16.7367 10.6511 16.892C10.6498 17.0994 10.5666 17.2979 10.4195 17.4442C10.2725 17.5905 10.0735 17.6727 9.86612 17.673V17.677Z" fill="#F9A826"/>
<path d="M14.5741 14.5381C14.2638 14.5381 13.9605 14.6301 13.7024 14.8025C13.4444 14.9749 13.2433 15.22 13.1246 15.5067C13.0058 15.7934 12.9747 16.1089 13.0353 16.4132C13.0958 16.7176 13.2453 16.9971 13.4647 17.2166C13.6841 17.436 13.9637 17.5854 14.268 17.6459C14.5724 17.7065 14.8879 17.6754 15.1746 17.5567C15.4613 17.4379 15.7063 17.2368 15.8787 16.9788C16.0511 16.7208 16.1431 16.4174 16.1431 16.1071C16.1426 15.6911 15.9771 15.2924 15.683 14.9982C15.3888 14.7041 14.9901 14.5386 14.5741 14.5381V14.5381ZM14.5741 16.8921C14.4189 16.8921 14.2671 16.8461 14.138 16.7598C14.0089 16.6735 13.9083 16.5509 13.8489 16.4075C13.7895 16.2641 13.7739 16.1062 13.8042 15.9539C13.8345 15.8017 13.9093 15.6618 14.019 15.552C14.1288 15.4422 14.2687 15.3675 14.421 15.3372C14.5733 15.3069 14.7311 15.3225 14.8745 15.3819C15.018 15.4413 15.1406 15.5419 15.2268 15.671C15.3131 15.8001 15.3591 15.9518 15.3591 16.1071C15.3578 16.3145 15.2745 16.513 15.1275 16.6593C14.9805 16.8056 14.7815 16.8878 14.5741 16.8881V16.8921Z" fill="#F9A826"/>
<path d="M17.713 10.615C17.4027 10.615 17.0994 10.707 16.8414 10.8794C16.5833 11.0518 16.3822 11.2969 16.2635 11.5836C16.1447 11.8703 16.1136 12.1858 16.1742 12.4901C16.2347 12.7945 16.3842 13.074 16.6036 13.2935C16.823 13.5129 17.1026 13.6623 17.4069 13.7228C17.7113 13.7834 18.0268 13.7523 18.3135 13.6336C18.6002 13.5148 18.8452 13.3137 19.0176 13.0557C19.19 12.7977 19.282 12.4943 19.282 12.184C19.2815 11.768 19.116 11.3693 18.8219 11.0751C18.5278 10.781 18.129 10.6155 17.713 10.615V10.615ZM17.713 12.969C17.5578 12.969 17.406 12.923 17.2769 12.8367C17.1478 12.7504 17.0472 12.6278 16.9878 12.4844C16.9284 12.341 16.9128 12.1831 16.9431 12.0309C16.9734 11.8786 17.0482 11.7387 17.158 11.6289C17.2677 11.5192 17.4076 11.4444 17.5599 11.4141C17.7122 11.3838 17.87 11.3994 18.0135 11.4588C18.1569 11.5182 18.2795 11.6188 18.3657 11.7479C18.452 11.877 18.498 12.0287 18.498 12.184C18.4967 12.3914 18.4135 12.5899 18.2664 12.7362C18.1194 12.8825 17.9205 12.9647 17.713 12.965V12.969Z" fill="#F9A826"/>
</svg>
