<svg width="21" height="18" viewBox="0 0 21 18" fill="none" xmlns="http://www.w3.org/2000/svg">
<path d="M20.9391 10.2949C20.8175 9.43888 20.5177 8.61787 20.0591 7.88491C19.6484 7.22818 19.1274 6.64731 18.5191 6.16791V6.16791L12.0271 1.18191L12.0121 1.16991C11.7729 0.997271 11.4839 0.907389 11.1891 0.913905C10.8846 0.910805 10.5864 1.00044 10.3341 1.17091C10.2188 1.24179 10.1218 1.33869 10.0508 1.45382C9.97978 1.56896 9.93671 1.69913 9.92506 1.83391C9.92408 1.9569 9.95209 2.07839 10.0068 2.18854C10.0615 2.29869 10.1414 2.3944 10.2401 2.46791C10.6581 2.79791 11.0751 3.13491 11.4921 3.46791C11.9091 3.80091 12.3151 4.13291 12.7301 4.46091L4.77906 4.4559C4.41033 4.40542 4.03604 4.49457 3.72966 4.70586C3.42328 4.91714 3.20693 5.23531 3.12306 5.59791C3.098 5.76138 3.10862 5.92834 3.15419 6.08732C3.19977 6.2463 3.27921 6.39353 3.38706 6.5189C3.50445 6.6579 3.65135 6.76897 3.81707 6.84405C3.98279 6.91912 4.16316 6.95631 4.34506 6.95291H4.95106C5.78806 6.95291 6.62906 6.95291 7.46906 6.95291H8.26906L1.05506 12.2889L1.02606 12.3099C0.63838 12.5943 0.378563 13.0201 0.30306 13.4949C0.278894 13.6516 0.286633 13.8116 0.325813 13.9652C0.364992 14.1188 0.434804 14.2629 0.53106 14.3889C0.652309 14.5378 0.806466 14.6564 0.981386 14.7356C1.15631 14.8147 1.34721 14.8521 1.53906 14.8449C1.97414 14.8372 2.39357 14.6813 2.72806 14.4029L6.62806 11.2139C6.54581 11.8094 6.61035 12.416 6.81606 12.9809C7.095 13.869 7.56462 14.6853 8.19206 15.3729C8.8653 16.1128 9.68679 16.7025 10.6031 17.1039C11.5967 17.5418 12.6712 17.766 13.7571 17.7619H13.7671C14.857 17.7634 15.935 17.5355 16.9311 17.0929C17.847 16.6883 18.668 16.0962 19.3411 15.3549C19.9682 14.666 20.4383 13.8492 20.7191 12.9609C20.9906 12.1001 21.0647 11.1893 20.9361 10.2959L20.9391 10.2949ZM13.8391 14.5079C13.2845 14.5678 12.7236 14.5103 12.1928 14.3391C11.6619 14.168 11.1731 13.8869 10.7581 13.5143C10.343 13.1417 10.0111 12.6859 9.78385 12.1765C9.55661 11.6672 9.43918 11.1157 9.43918 10.5579C9.43918 10.0002 9.55661 9.44865 9.78385 8.93928C10.0111 8.42991 10.343 7.97409 10.7581 7.60149C11.1731 7.22889 11.6619 6.94785 12.1928 6.77666C12.7236 6.60548 13.2845 6.54798 13.8391 6.60791C14.3936 6.54798 14.9545 6.60548 15.4853 6.77666C16.0162 6.94785 16.505 7.22889 16.9201 7.60149C17.3351 7.97409 17.667 8.42991 17.8943 8.93928C18.1215 9.44865 18.2389 10.0002 18.2389 10.5579C18.2389 11.1157 18.1215 11.6672 17.8943 12.1765C17.667 12.6859 17.3351 13.1417 16.9201 13.5143C16.505 13.8869 16.0162 14.168 15.4853 14.3391C14.9545 14.5103 14.3936 14.5678 13.8391 14.5079V14.5079Z" fill="#525252"/>
<path d="M13.8141 7.96597C14.1391 7.94904 14.4642 7.99698 14.7705 8.10699C15.0768 8.217 15.3581 8.38689 15.5981 8.60674C15.838 8.82659 16.0318 9.09201 16.1682 9.38752C16.3045 9.68303 16.3806 10.0027 16.3921 10.328C16.3928 10.6458 16.3284 10.9604 16.203 11.2525C16.0776 11.5446 15.8937 11.8078 15.6627 12.0262C15.4317 12.2445 15.1585 12.4133 14.8598 12.5221C14.5612 12.631 14.2434 12.6775 13.9261 12.659C12.5451 12.659 11.2761 11.884 11.2761 10.5C11.2592 10.0508 11.3686 9.60593 11.5921 9.21597C11.8309 8.84071 12.1587 8.53026 12.5463 8.31219C12.9339 8.09412 13.3695 7.97519 13.8141 7.96597V7.96597Z" fill="#F9A826"/>
</svg>
