<svg width="22" height="15" viewBox="0 0 22 15" fill="none" xmlns="http://www.w3.org/2000/svg">
<path d="M11.4871 14.61H17.3721C17.8887 14.61 18.3842 14.4047 18.7495 14.0394C19.1148 13.6741 19.3201 13.1786 19.3201 12.662V9.47797C19.2391 9.48397 19.1591 9.49097 19.0771 9.49097C18.213 9.48931 17.3758 9.19015 16.7063 8.64379C16.0368 8.09743 15.5759 7.33721 15.4011 6.49097H14.9691C14.4054 7.36614 13.5651 8.02761 12.582 8.3701C11.599 8.71258 10.5296 8.71641 9.54408 8.38097C9.54408 8.40197 9.53808 8.41997 9.53808 8.43997V9.22797L0.934082 6.77597V13.513L9.53408 11.16V12.66C9.53395 12.9163 9.5844 13.1702 9.68254 13.407C9.78067 13.6439 9.92457 13.859 10.106 14.0402C10.2874 14.2213 10.5028 14.3649 10.7398 14.4627C10.9768 14.5604 11.2307 14.6105 11.4871 14.61V14.61Z" fill="#525252"/>
<path d="M14.8961 4.01798C14.8959 3.22334 14.6601 2.44659 14.2185 1.78597C13.7768 1.12534 13.1493 0.610503 12.415 0.306543C11.6808 0.00258368 10.873 -0.0768432 10.0936 0.0783052C9.31427 0.233453 8.59843 0.61621 8.0366 1.17818C7.47477 1.74014 7.0922 2.45608 6.93724 3.23547C6.78229 4.01486 6.86191 4.8227 7.16606 5.55683C7.4702 6.29097 7.9852 6.91843 8.64593 7.35989C9.30667 7.80135 10.0835 8.03698 10.8781 8.03698C11.4058 8.03698 11.9284 7.93302 12.416 7.73103C12.9035 7.52904 13.3465 7.23299 13.7196 6.85978C14.0927 6.48657 14.3887 6.04351 14.5905 5.55591C14.7924 5.06831 14.8962 4.54571 14.8961 4.01798V4.01798ZM10.1271 4.01798C10.1271 3.86944 10.1712 3.72425 10.2537 3.60075C10.3362 3.47724 10.4535 3.38099 10.5907 3.32414C10.7279 3.2673 10.8789 3.25243 11.0246 3.28141C11.1703 3.31039 11.3041 3.38191 11.4091 3.48694C11.5142 3.59197 11.5857 3.72579 11.6147 3.87147C11.6437 4.01715 11.6288 4.16815 11.5719 4.30537C11.5151 4.4426 11.4188 4.55989 11.2953 4.64241C11.1718 4.72493 11.0266 4.76898 10.8781 4.76898C10.6789 4.76898 10.4879 4.68985 10.3471 4.54902C10.2062 4.40818 10.1271 4.21716 10.1271 4.01798V4.01798Z" fill="#F9A826"/>
<path d="M22.0001 5.81193C22.0001 5.20178 21.8191 4.60532 21.4802 4.098C21.1412 3.59067 20.6594 3.19526 20.0957 2.96176C19.5319 2.72827 18.9117 2.66717 18.3132 2.78621C17.7148 2.90524 17.1651 3.19906 16.7337 3.63051C16.3022 4.06195 16.0084 4.61165 15.8894 5.21008C15.7703 5.80851 15.8314 6.4288 16.0649 6.99251C16.2984 7.55622 16.6938 8.03803 17.2011 8.37701C17.7085 8.716 18.3049 8.89693 18.9151 8.89693C19.7333 8.89693 20.518 8.5719 21.0965 7.99335C21.6751 7.4148 22.0001 6.63012 22.0001 5.81193ZM18.9151 6.56293C18.7665 6.56293 18.6213 6.51889 18.4978 6.43636C18.3743 6.35384 18.2781 6.23655 18.2212 6.09933C18.1644 5.9621 18.1495 5.8111 18.1785 5.66542C18.2075 5.51974 18.279 5.38592 18.384 5.28089C18.4891 5.17586 18.6229 5.10434 18.7686 5.07536C18.9142 5.04638 19.0652 5.06126 19.2025 5.1181C19.3397 5.17494 19.457 5.2712 19.5395 5.3947C19.622 5.5182 19.6661 5.6634 19.6661 5.81193C19.6661 6.01111 19.587 6.20213 19.4461 6.34297C19.3053 6.48381 19.1143 6.56293 18.9151 6.56293V6.56293Z" fill="#F9A826"/>
</svg>
