<svg width="21" height="23" viewBox="0 0 21 23" fill="none" xmlns="http://www.w3.org/2000/svg">
<path d="M16.6502 20.6428C16.3423 21.2752 15.8519 21.8008 15.2422 22.1516C14.6325 22.5024 13.9317 22.6624 13.2302 22.6108H13.2182C12.9256 22.6265 12.6322 22.607 12.3442 22.5528C10.6032 22.2368 10.1952 21.3048 10.1222 20.7038C10.1121 20.6259 10.1071 20.5474 10.1072 20.4688C10.1074 20.5474 10.1024 20.6259 10.0922 20.7038C10.0192 21.3038 9.61121 22.2368 7.87021 22.5528C7.58224 22.607 7.28881 22.6265 6.99621 22.6108H6.98421C6.28272 22.6624 5.58188 22.5024 4.97222 22.1516C4.36257 21.8008 3.87211 21.2752 3.56421 20.6428C3.86972 20.8533 4.20992 21.0084 4.56921 21.1008C4.77461 21.1504 4.98916 21.1476 5.19321 21.0928C5.91741 20.7712 6.55893 20.289 7.06921 19.6828C7.23554 19.5045 7.43894 19.3647 7.66511 19.2735C7.89127 19.1823 8.13469 19.1418 8.37821 19.1548C9.32221 19.0658 10.0782 20.1598 10.0782 20.1598C10.0817 20.175 10.0843 20.1903 10.0862 20.2058C10.0884 20.2211 10.0884 20.2366 10.0862 20.2518C10.0862 20.2748 10.0942 20.3018 10.0982 20.3328C10.1022 20.3638 10.0982 20.4138 10.0982 20.4638C10.0982 20.4138 10.0982 20.3718 10.0982 20.3328C10.0982 20.2938 10.1062 20.2748 10.1102 20.2478C10.1082 20.2339 10.1082 20.2197 10.1102 20.2058C10.112 20.1903 10.1147 20.175 10.1182 20.1598C10.1182 20.1598 10.8772 19.0658 11.8182 19.1548C12.0617 19.1418 12.3051 19.1823 12.5313 19.2735C12.7575 19.3647 12.9609 19.5045 13.1272 19.6828C13.6376 20.289 14.2791 20.7711 15.0032 21.0928C15.2073 21.1476 15.4218 21.1504 15.6272 21.1008C15.9928 21.0103 16.3392 20.8552 16.6502 20.6428Z" fill="#805333"/>
<path d="M19.7352 22.9999C19.6845 23.0003 19.6343 22.9906 19.5874 22.9713C19.5406 22.9521 19.498 22.9237 19.4622 22.8879C19.4283 22.8504 19.4009 22.8074 19.3812 22.7609C19.3596 22.7153 19.349 22.6653 19.3502 22.6149C19.3514 22.513 19.3914 22.4153 19.4622 22.3419C19.5074 22.2981 19.5627 22.2661 19.6232 22.2487C19.6837 22.2313 19.7476 22.2289 19.8092 22.2419C19.835 22.2454 19.86 22.2532 19.8832 22.2649C19.9067 22.2727 19.9287 22.2846 19.9482 22.2999C19.9703 22.3132 19.9911 22.3286 20.0102 22.3459C20.0802 22.4197 20.1198 22.5172 20.1212 22.6189C20.1204 22.6691 20.1099 22.7187 20.0902 22.7649C20.0729 22.8127 20.0453 22.8562 20.0094 22.8921C19.9734 22.9281 19.93 22.9556 19.8822 22.9729C19.8354 22.9914 19.7855 23.0006 19.7352 22.9999Z" fill="#6B6B6B"/>
<path d="M19.3341 21.8489C19.331 21.7726 19.3506 21.697 19.3905 21.6318C19.4303 21.5666 19.4886 21.5147 19.558 21.4827C19.6273 21.4507 19.7047 21.4399 19.7801 21.4519C19.8556 21.4638 19.9258 21.4979 19.9819 21.5498C20.038 21.6017 20.0774 21.669 20.0952 21.7433C20.113 21.8176 20.1083 21.8956 20.0818 21.9672C20.0552 22.0389 20.008 22.101 19.9461 22.1458C19.8842 22.1906 19.8104 22.2161 19.7341 22.2189H19.7191C19.6194 22.2195 19.5234 22.1811 19.4515 22.112C19.3796 22.043 19.3375 21.9485 19.3341 21.8489ZM19.2841 21.0939C19.2769 21.0181 19.2924 20.9419 19.3285 20.8749C19.3647 20.8079 19.4199 20.7531 19.4871 20.7175C19.5544 20.6818 19.6307 20.6669 19.7064 20.6746C19.7822 20.6823 19.8539 20.7123 19.9126 20.7608C19.9713 20.8093 20.0143 20.8741 20.0362 20.947C20.058 21.02 20.0578 21.0977 20.0355 21.1705C20.0132 21.2433 19.9698 21.3078 19.9108 21.3559C19.8518 21.4041 19.7799 21.4336 19.7041 21.4409H19.6651C19.5699 21.4403 19.4783 21.4046 19.408 21.3405C19.3376 21.2765 19.2935 21.1886 19.2841 21.0939ZM19.1841 20.3459C19.1712 20.2705 19.181 20.1929 19.2123 20.1231C19.2435 20.0533 19.2948 19.9943 19.3596 19.9537C19.4244 19.9131 19.4999 19.8927 19.5764 19.895C19.6528 19.8973 19.7268 19.9223 19.7891 19.9668C19.8513 20.0113 19.8989 20.0733 19.9258 20.1449C19.9528 20.2165 19.9579 20.2945 19.9404 20.3689C19.9229 20.4434 19.8837 20.511 19.8278 20.5632C19.7718 20.6153 19.7016 20.6497 19.6261 20.6619C19.6057 20.6663 19.585 20.669 19.5641 20.6699C19.4734 20.6686 19.3861 20.6356 19.3172 20.5766C19.2483 20.5175 19.2023 20.4363 19.1871 20.3469L19.1841 20.3459ZM19.0331 19.6189C19.0194 19.57 19.0157 19.5189 19.0222 19.4686C19.0286 19.4183 19.0451 19.3697 19.0707 19.3259C19.0962 19.2821 19.1303 19.2438 19.1709 19.2134C19.2115 19.183 19.2578 19.1611 19.3071 19.1489C19.3566 19.1335 19.4086 19.1283 19.4601 19.1336C19.5117 19.1388 19.5616 19.1544 19.607 19.1794C19.6523 19.2044 19.6922 19.2382 19.7241 19.279C19.7561 19.3197 19.7795 19.3665 19.793 19.4165C19.8064 19.4665 19.8096 19.5187 19.8025 19.57C19.7953 19.6213 19.7778 19.6706 19.7511 19.715C19.7244 19.7594 19.6891 19.7979 19.6472 19.8283C19.6052 19.8587 19.5576 19.8803 19.5071 19.8919C19.4744 19.9006 19.4409 19.9056 19.4071 19.9069C19.3222 19.9068 19.2397 19.8785 19.1727 19.8263C19.1057 19.7742 19.058 19.7012 19.0371 19.6189H19.0331ZM18.8021 18.9299C18.7634 18.836 18.7636 18.7306 18.8026 18.6368C18.8416 18.5431 18.9162 18.4686 19.0101 18.4299C19.056 18.4098 19.1055 18.399 19.1556 18.3982C19.2057 18.3974 19.2554 18.4066 19.302 18.4252C19.3485 18.4439 19.3908 18.4715 19.4266 18.5067C19.4623 18.5418 19.4907 18.5837 19.5101 18.6299C19.5487 18.7228 19.5495 18.8272 19.5121 18.9207C19.4747 19.0141 19.4022 19.0892 19.3101 19.1299C19.2625 19.1494 19.2116 19.1599 19.1601 19.1609C19.084 19.1607 19.0097 19.1379 18.9467 19.0953C18.8836 19.0528 18.8347 18.9924 18.8061 18.9219L18.8021 18.9299Z" fill="#6B6B6B"/>
<path d="M18.7842 18.4859C18.7333 18.4864 18.6829 18.4767 18.6359 18.4575C18.5888 18.4382 18.5461 18.4098 18.5102 18.3739C18.4752 18.3366 18.4468 18.2936 18.4262 18.2468C18.4094 18.1999 18.4004 18.1506 18.3992 18.1008C18.3987 18.0437 18.411 17.9872 18.4351 17.9354C18.4592 17.8836 18.4946 17.8379 18.5386 17.8014C18.5825 17.765 18.6341 17.7388 18.6895 17.7247C18.7448 17.7107 18.8026 17.7091 18.8587 17.7202C18.9147 17.7312 18.9676 17.7546 19.0135 17.7887C19.0594 17.8227 19.0971 17.8665 19.124 17.9169C19.1508 17.9673 19.1661 18.0231 19.1687 18.0802C19.1714 18.1372 19.1613 18.1942 19.1392 18.2468C19.1219 18.2946 19.0942 18.338 19.0583 18.374C19.0224 18.4099 18.979 18.4375 18.9312 18.4549C18.8847 18.4747 18.8347 18.4852 18.7842 18.4859Z" fill="#6B6B6B"/>
<path d="M17.8081 15.8738C17.8081 16.3682 17.6615 16.8516 17.3868 17.2627C17.1121 17.6738 16.7216 17.9943 16.2648 18.1835C15.808 18.3727 15.3053 18.4222 14.8204 18.3257C14.3354 18.2293 13.89 17.9912 13.5403 17.6416C13.1907 17.2919 12.9526 16.8465 12.8561 16.3615C12.7597 15.8766 12.8092 15.3739 12.9984 14.9171C13.1876 14.4603 13.5081 14.0698 13.9192 13.7951C14.3303 13.5204 14.8137 13.3738 15.3081 13.3738C15.9711 13.3738 16.607 13.6372 17.0759 14.106C17.5447 14.5749 17.8081 15.2107 17.8081 15.8738Z" fill="#67B9CC"/>
<path d="M17.7091 7.53979C18.5331 7.50479 19.8621 7.57779 20.1241 8.36379C20.5091 9.51879 20.1241 12.6008 10.1101 12.6008C0.0960932 12.6008 -0.289907 9.51979 0.0960929 8.36379C0.358093 7.58179 1.68309 7.50479 2.50709 7.53579L17.7091 7.53979Z" fill="#6B6B6B"/>
<path d="M17.6161 6.52688C17.5281 6.55888 17.4021 6.59888 17.2371 6.64188C17.4021 6.59788 17.5281 6.55788 17.6161 6.52688C17.502 5.0758 17.3091 3.632 17.0381 2.20188C16.6881 0.795879 13.2061 0.352879 10.7681 0.287879C10.5371 0.275879 10.3131 0.275879 10.1051 0.275879C9.8971 0.275879 9.6741 0.275879 9.4431 0.287879C7.0051 0.352879 3.5231 0.795879 3.1731 2.20188C2.90213 3.632 2.70918 5.0758 2.5951 6.52688C2.6551 6.54888 2.7351 6.57488 2.8331 6.60388C2.7331 6.57588 2.6551 6.54988 2.5951 6.52688C2.4791 7.75888 2.4021 8.74888 2.4021 8.74888C2.4021 8.74888 2.4751 8.97188 3.1801 9.22288C4.0801 9.54288 5.9991 9.90488 10.1051 9.90488C14.2111 9.90488 16.1331 9.54288 17.0301 9.22288C17.7301 8.97288 17.8081 8.74888 17.8081 8.74888C17.8081 8.74888 17.7311 7.75888 17.6161 6.52688ZM17.1711 6.65988L17.0941 6.67888L17.1711 6.65988ZM2.9311 6.63088L2.8521 6.60888L2.9311 6.63088ZM3.0951 6.67288L3.0451 6.66088L3.0951 6.67288ZM3.2571 6.71188L3.4111 6.74488L3.2731 6.71588L3.2571 6.71188ZM7.4131 7.14988C6.07794 7.11658 4.74719 6.98287 3.4321 6.74988C4.74726 6.98235 6.07798 7.11606 7.4131 7.14988ZM9.3261 7.20188L10.0261 7.20888C9.7861 7.20888 9.55277 7.20688 9.3261 7.20288V7.20188ZM7.4691 7.15188L7.9381 7.16888C7.7781 7.16888 7.6201 7.15888 7.4691 7.15288V7.15188ZM8.0471 7.17288L8.4471 7.18388L8.0471 7.17388V7.17288ZM8.6691 7.18988L9.0081 7.19588L8.6691 7.18988ZM16.8921 6.72388L16.9431 6.71288H16.9301L16.8921 6.72388Z" fill="#2C3E50"/>
<path d="M17.8091 8.74886C17.8091 8.74886 17.7361 8.97185 17.0311 9.22285C16.1311 9.54285 14.2121 9.90486 10.1061 9.90486C6.00008 9.90486 4.07908 9.54285 3.18108 9.22285C2.48108 8.97285 2.40308 8.74886 2.40308 8.74886C2.40308 8.74886 2.48008 7.75886 2.59608 6.52686C2.81892 6.60507 3.04676 6.66822 3.27808 6.71587C5.50713 7.10123 7.76869 7.26635 10.0301 7.20886H10.1841C12.4451 7.26586 14.7063 7.10074 16.9351 6.71587C17.1664 6.66821 17.3942 6.60506 17.6171 6.52686C17.7321 7.75886 17.8091 8.74886 17.8091 8.74886Z" fill="#525252"/>
<path d="M17.6162 6.52688C17.4044 6.60041 17.1884 6.66086 16.9692 6.70788C14.7297 7.10165 12.4562 7.26916 10.1832 7.20788H10.0292C7.75619 7.26726 5.48294 7.09977 3.24319 6.70788C3.02389 6.6614 2.80778 6.60095 2.59619 6.52688C2.71027 5.0758 2.90322 3.63199 3.17419 2.20188C3.52319 0.795879 7.01019 0.352879 9.44319 0.287879C9.67419 0.275879 9.89819 0.275879 10.1102 0.275879C10.3222 0.275879 10.5412 0.275879 10.7722 0.287879C13.2102 0.352879 16.6922 0.795879 17.0422 2.20188C17.3118 3.63207 17.5034 5.07587 17.6162 6.52688Z" fill="#838383"/>
<path d="M16.9692 6.70788C14.7296 7.10165 12.4562 7.26916 10.1832 7.20788H10.0292C7.75616 7.26726 5.48291 7.09977 3.24316 6.70788C3.37416 5.10188 3.54316 3.36488 3.70516 2.52188C4.02816 0.895879 7.19816 0.375879 9.44316 0.287879C9.67916 0.275879 9.89816 0.275879 10.1062 0.275879C10.3142 0.275879 10.5372 0.275879 10.7682 0.287879C13.0142 0.375879 16.1792 0.895879 16.5072 2.52188C16.6732 3.36488 16.8382 5.10188 16.9692 6.70788Z" fill="#6B6B6B"/>
<path d="M4.24508 5.9328H4.20308C4.10166 5.92173 4.00878 5.87086 3.94485 5.79136C3.88091 5.71186 3.85115 5.61023 3.86208 5.5088C3.91608 5.0188 3.97408 4.5318 4.02808 4.0908C4.03349 4.04032 4.04899 3.99145 4.07365 3.94707C4.09832 3.9027 4.13165 3.86373 4.17166 3.83249C4.21168 3.80124 4.25756 3.77835 4.30659 3.76518C4.35562 3.75201 4.40679 3.74882 4.45708 3.7558C4.55838 3.7683 4.65057 3.82051 4.71339 3.90095C4.77621 3.9814 4.80452 4.0835 4.79208 4.1848C4.73808 4.6228 4.68108 5.1058 4.62708 5.5938C4.61584 5.68723 4.57076 5.77331 4.50038 5.83577C4.43 5.89823 4.33918 5.93275 4.24508 5.9328Z" fill="#95A5A5"/>
<path d="M8.37714 19.1559C8.00441 19.2043 7.66423 19.3931 7.42614 19.6839C6.43214 20.7549 5.93614 21.2939 5.19214 21.0939C5.91633 20.7723 6.55786 20.2902 7.06814 19.6839C7.23446 19.5056 7.43788 19.3659 7.66404 19.2747C7.8902 19.1834 8.13362 19.1429 8.37714 19.1559Z" fill="#AF8066"/>
<path d="M6.98201 22.6108C6.28052 22.6624 5.57968 22.5024 4.97002 22.1516C4.36037 21.8008 3.86991 21.2752 3.56201 20.6428C3.86752 20.8533 4.20771 21.0083 4.56701 21.1008C4.81604 21.5302 5.16625 21.8923 5.58715 22.1555C6.00805 22.4186 6.4869 22.575 6.98201 22.6108Z" fill="#603E26"/>
<path d="M16.6471 20.6428C16.3392 21.2752 15.8487 21.8008 15.239 22.1516C14.6294 22.5025 13.9285 22.6624 13.2271 22.6108C13.7222 22.5751 14.2011 22.4188 14.622 22.1556C15.0429 21.8924 15.3931 21.5303 15.6421 21.1008C16.0013 21.0083 16.3415 20.8533 16.6471 20.6428Z" fill="#603E26"/>
<path d="M15.0212 21.093C14.2782 21.293 13.7812 20.754 12.7872 19.683C12.5491 19.3921 12.2089 19.2033 11.8362 19.155C12.0797 19.1419 12.3231 19.1825 12.5493 19.2737C12.7754 19.3649 12.9788 19.5046 13.1452 19.683C13.6555 20.2891 14.297 20.7713 15.0212 21.093Z" fill="#AF8066"/>
<path d="M5.02317 2.7058C5.02317 2.78195 5.0006 2.85638 4.95829 2.9197C4.91599 2.98301 4.85586 3.03236 4.78551 3.0615C4.71516 3.09064 4.63775 3.09826 4.56307 3.0834C4.48839 3.06855 4.41978 3.03188 4.36594 2.97804C4.3121 2.9242 4.27543 2.85559 4.26057 2.78091C4.24572 2.70623 4.25334 2.62882 4.28248 2.55847C4.31162 2.48812 4.36097 2.42799 4.42428 2.38568C4.4876 2.34338 4.56203 2.3208 4.63818 2.3208C4.68874 2.3208 4.7388 2.33076 4.78551 2.35011C4.83222 2.36946 4.87466 2.39782 4.91041 2.43357C4.94616 2.46932 4.97452 2.51176 4.99387 2.55847C5.01322 2.60518 5.02317 2.65524 5.02317 2.7058Z" fill="#95A5A5"/>
<path d="M13.0561 17.3538C12.9801 17.3537 12.9057 17.3311 12.8425 17.2888C12.7793 17.2465 12.73 17.1864 12.7009 17.1161C12.6718 17.0458 12.6642 16.9685 12.679 16.8939C12.6938 16.8192 12.7304 16.7507 12.7841 16.6968L16.1272 13.3538C16.1994 13.2815 16.2974 13.241 16.3997 13.241C16.5019 13.241 16.5999 13.2815 16.6721 13.3538C16.7444 13.4261 16.785 13.5241 16.785 13.6263C16.785 13.7286 16.7444 13.8266 16.6721 13.8988L13.3281 17.2428C13.2557 17.3143 13.1579 17.3542 13.0561 17.3538Z" fill="#B0D3F0"/>
<path d="M14.2112 18.5089C14.1349 18.509 14.0603 18.4865 13.9969 18.4441C13.9334 18.4017 13.884 18.3415 13.8549 18.271C13.8257 18.2005 13.8182 18.1229 13.8332 18.0481C13.8482 17.9733 13.8851 17.9047 13.9392 17.8509L17.2822 14.5079C17.3545 14.4356 17.4525 14.395 17.5547 14.395C17.6569 14.395 17.7549 14.4356 17.8272 14.5079C17.8995 14.5802 17.9401 14.6782 17.9401 14.7804C17.9401 14.8826 17.8995 14.9806 17.8272 15.0529L14.4842 18.3959C14.4117 18.4682 14.3136 18.5088 14.2112 18.5089Z" fill="#B0D3F0"/>
<path d="M18.1941 18.7639C17.9654 18.7641 17.7418 18.6965 17.5516 18.5696C17.3614 18.4427 17.213 18.2622 17.1254 18.051C17.0377 17.8398 17.0147 17.6073 17.0592 17.383C17.1037 17.1587 17.2137 16.9526 17.3753 16.7908C17.537 16.6291 17.743 16.5189 17.9672 16.4742C18.1915 16.4295 18.424 16.4523 18.6352 16.5398C18.8465 16.6273 19.0272 16.7754 19.1542 16.9656C19.2813 17.1557 19.3491 17.3792 19.3491 17.6079C19.3492 17.7596 19.3195 17.91 19.2615 18.0502C19.2035 18.1905 19.1184 18.3179 19.0112 18.4252C18.9039 18.5326 18.7765 18.6178 18.6363 18.6759C18.4962 18.734 18.3459 18.7639 18.1941 18.7639ZM18.1941 17.2229C18.118 17.2229 18.0435 17.2455 17.9802 17.2878C17.9169 17.3301 17.8675 17.3902 17.8384 17.4605C17.8093 17.5309 17.8017 17.6083 17.8165 17.683C17.8314 17.7577 17.868 17.8263 17.9219 17.8801C17.9757 17.934 18.0443 17.9707 18.119 17.9855C18.1937 18.0004 18.2711 17.9927 18.3415 17.9636C18.4118 17.9345 18.4719 17.8851 18.5142 17.8218C18.5565 17.7585 18.5791 17.684 18.5791 17.6079C18.5791 17.5058 18.5385 17.4079 18.4663 17.3357C18.3941 17.2635 18.2962 17.2229 18.1941 17.2229Z" fill="#F9A826"/>
<path d="M15.305 18.7629C14.7336 18.7629 14.1751 18.5934 13.7 18.276C13.2249 17.9585 12.8546 17.5073 12.6359 16.9794C12.4173 16.4515 12.3601 15.8707 12.4715 15.3102C12.583 14.7498 12.8581 14.2351 13.2622 13.831C13.6662 13.427 14.181 13.1518 14.7414 13.0404C15.3018 12.9289 15.8827 12.9861 16.4106 13.2048C16.9385 13.4234 17.3897 13.7937 17.7071 14.2688C18.0246 14.7439 18.194 15.3025 18.194 15.8739C18.194 16.2533 18.1193 16.6289 17.9741 16.9794C17.8289 17.3299 17.6161 17.6484 17.3478 17.9167C17.0796 18.185 16.7611 18.3978 16.4106 18.543C16.0601 18.6882 15.6844 18.7629 15.305 18.7629ZM15.305 13.7559C14.8861 13.7559 14.4766 13.8801 14.1283 14.1128C13.78 14.3456 13.5085 14.6763 13.3482 15.0634C13.1879 15.4504 13.146 15.8762 13.2277 16.2871C13.3094 16.6979 13.5112 17.0753 13.8074 17.3715C14.1036 17.6677 14.481 17.8695 14.8918 17.9512C15.3027 18.0329 15.7285 17.991 16.1155 17.8307C16.5026 17.6704 16.8333 17.3989 17.0661 17.0506C17.2988 16.7023 17.423 16.2928 17.423 15.8739C17.4227 15.3123 17.1995 14.7738 16.8023 14.3769C16.4051 13.9799 15.8666 13.7569 15.305 13.7569V13.7559Z" fill="#FF8B14"/>
</svg>
