<svg width="24" height="17" viewBox="0 0 24 17" fill="none" xmlns="http://www.w3.org/2000/svg">
<path d="M11.6641 12.2589H15.4501C16.132 12.2591 16.7913 12.5031 17.3091 12.9469L20.9681 16.0849C21.0873 16.1888 21.2365 16.2519 21.3941 16.2651C21.5517 16.2782 21.7093 16.2406 21.8441 16.1579C25.6511 13.7489 21.0331 4.24088 20.1181 2.51488C20.0181 2.33188 19.8611 1.33788 19.6671 1.26688L16.5901 0.147878C16.4569 0.0997088 16.3142 0.0836599 16.1736 0.101036C16.033 0.118413 15.8986 0.168724 15.7811 0.247878C15.4493 0.472298 15.093 0.658165 14.7191 0.801878H8.71909C8.31171 0.655638 7.91952 0.470097 7.54809 0.247878C7.43062 0.168724 7.29613 0.118413 7.15556 0.101036C7.01498 0.0836599 6.87229 0.0997088 6.73909 0.147878L3.66009 1.26588C3.46509 1.33688 3.30609 2.33088 3.20909 2.51388C2.29409 4.23988 -2.32291 13.7479 1.48309 16.1569C1.61792 16.2393 1.77552 16.2767 1.93302 16.2636C2.09053 16.2505 2.23976 16.1875 2.35909 16.0839L6.01809 12.9459C6.53583 12.5021 7.19519 12.2581 7.87709 12.2579L11.6641 12.2589Z" fill="#525252"/>
<path d="M14.7471 10.2549C15.6329 10.2549 16.3511 9.53674 16.3511 8.65087C16.3511 7.76501 15.6329 7.04688 14.7471 7.04688C13.8612 7.04688 13.1431 7.76501 13.1431 8.65087C13.1431 9.53674 13.8612 10.2549 14.7471 10.2549Z" fill="#6B6B6B"/>
<path d="M5.5271 6.24584C6.41296 6.24584 7.1311 5.52771 7.1311 4.64184C7.1311 3.75598 6.41296 3.03784 5.5271 3.03784C4.64123 3.03784 3.9231 3.75598 3.9231 4.64184C3.9231 5.52771 4.64123 6.24584 5.5271 6.24584Z" fill="#6B6B6B"/>
<path d="M17.551 2.23682C17.7092 2.23682 17.8639 2.28374 17.9954 2.37164C18.127 2.45955 18.2295 2.58449 18.2901 2.73067C18.3506 2.87685 18.3665 3.0377 18.3356 3.19289C18.3047 3.34807 18.2285 3.49062 18.1167 3.6025C18.0048 3.71438 17.8622 3.79058 17.707 3.82144C17.5519 3.85231 17.391 3.83647 17.2448 3.77592C17.0986 3.71537 16.9737 3.61283 16.8858 3.48127C16.7979 3.34971 16.751 3.19504 16.751 3.03682C16.751 2.82464 16.8353 2.62116 16.9853 2.47113C17.1353 2.3211 17.3388 2.23682 17.551 2.23682V2.23682Z" fill="#FF9529"/>
<path d="M15.9502 5.44384C16.3931 5.44384 16.7522 5.08478 16.7522 4.64184C16.7522 4.19891 16.3931 3.83984 15.9502 3.83984C15.5073 3.83984 15.1482 4.19891 15.1482 4.64184C15.1482 5.08478 15.5073 5.44384 15.9502 5.44384Z" fill="#F9A826"/>
<path d="M19.157 5.44384C19.5999 5.44384 19.959 5.08478 19.959 4.64184C19.959 4.19891 19.5999 3.83984 19.157 3.83984C18.714 3.83984 18.355 4.19891 18.355 4.64184C18.355 5.08478 18.714 5.44384 19.157 5.44384Z" fill="#CB6A06"/>
<path d="M17.551 5.44385C17.7092 5.44385 17.8639 5.49077 17.9954 5.57867C18.127 5.66658 18.2295 5.79152 18.2901 5.9377C18.3506 6.08388 18.3665 6.24474 18.3356 6.39992C18.3047 6.5551 18.2285 6.69765 18.1167 6.80953C18.0048 6.92142 17.8622 6.99761 17.707 7.02848C17.5519 7.05934 17.391 7.0435 17.2448 6.98295C17.0986 6.9224 16.9737 6.81986 16.8858 6.6883C16.7979 6.55674 16.751 6.40207 16.751 6.24385C16.751 6.03167 16.8353 5.82819 16.9853 5.67816C17.1353 5.52813 17.3388 5.44385 17.551 5.44385V5.44385Z" fill="#FCAB59"/>
<path d="M12.742 1.21183C12.7419 1.1363 12.7345 1.06096 12.72 0.986828C12.707 0.918124 12.6775 0.853611 12.634 0.798828H11.64C11.606 0.798828 11.574 0.810828 11.54 0.810828C11.506 0.810828 11.473 0.801828 11.44 0.798828H10.44C10.4027 0.845719 10.3764 0.900399 10.363 0.958828C10.3316 1.12195 10.3343 1.28983 10.3711 1.45184C10.4079 1.61385 10.4779 1.76645 10.5767 1.89999C10.6756 2.03353 10.801 2.14509 10.9452 2.22761C11.0894 2.31014 11.2492 2.36182 11.4144 2.3794C11.5796 2.39698 11.7466 2.38006 11.9049 2.32972C12.0632 2.27938 12.2094 2.19671 12.3341 2.08696C12.4588 1.9772 12.5594 1.84275 12.6294 1.69211C12.6995 1.54147 12.7375 1.37792 12.741 1.21183H12.742Z" fill="#808080"/>
<path d="M10.939 7.70996H9.62204V6.39196C9.62204 6.31611 9.59191 6.24336 9.53827 6.18973C9.48464 6.13609 9.41189 6.10596 9.33604 6.10596H8.30504C8.22919 6.10596 8.15644 6.13609 8.10281 6.18973C8.04917 6.24336 8.01904 6.31611 8.01904 6.39196V7.70896H6.70104C6.66348 7.70896 6.62629 7.71636 6.59159 7.73073C6.55689 7.7451 6.52537 7.76617 6.49881 7.79272C6.47225 7.81928 6.45118 7.85081 6.43681 7.88551C6.42244 7.92021 6.41504 7.9574 6.41504 7.99496V9.02596C6.41504 9.06352 6.42244 9.10071 6.43681 9.1354C6.45118 9.1701 6.47225 9.20163 6.49881 9.22819C6.52537 9.25475 6.55689 9.27581 6.59159 9.29019C6.62629 9.30456 6.66348 9.31196 6.70104 9.31196H8.01404V10.629C8.01404 10.6665 8.02144 10.7037 8.03581 10.7384C8.05018 10.7731 8.07125 10.8046 8.09781 10.8312C8.12436 10.8577 8.15589 10.8788 8.19059 10.8932C8.22529 10.9076 8.26248 10.915 8.30004 10.915H9.33104C9.40689 10.915 9.47964 10.8848 9.53327 10.8312C9.58691 10.7776 9.61704 10.7048 9.61704 10.629V9.31296H10.934C11.0099 9.31296 11.0826 9.28283 11.1363 9.22919C11.1899 9.17556 11.22 9.10281 11.22 9.02696V7.99596C11.2201 7.92096 11.1906 7.84897 11.138 7.79547C11.0855 7.74198 11.014 7.71127 10.939 7.70996V7.70996Z" fill="#6B6B6B"/>
</svg>
