<svg width="25" height="27" viewBox="0 0 25 27" fill="none" xmlns="http://www.w3.org/2000/svg">
<path d="M20.2899 4.06005V24.25C20.2881 24.7149 20.1026 25.1603 19.7738 25.489C19.4451 25.8177 18.9998 26.0032 18.5349 26.005H2.73791C2.27246 26.005 1.82606 25.8201 1.49694 25.491C1.16781 25.1619 0.98291 24.7155 0.98291 24.25V2.30505C0.98291 1.83959 1.16781 1.3932 1.49694 1.06408C1.82606 0.73495 2.27246 0.550049 2.73791 0.550049H16.7829V3.18305C16.7834 3.41575 16.8761 3.63876 17.0407 3.80331C17.2052 3.96785 17.4282 4.06052 17.6609 4.06105L20.2899 4.06005Z" fill="#6B6B6B"/>
<path d="M20.29 17.988V24.245C20.2894 24.5016 20.2324 24.7549 20.123 24.987L17.723 22.587C17.6 22.7091 17.4437 22.7922 17.2737 22.8258C17.1036 22.8595 16.9275 22.8421 16.7673 22.776C16.6071 22.7099 16.4699 22.598 16.3731 22.4542C16.2763 22.3105 16.2241 22.1413 16.223 21.968C16.2244 21.7345 16.3174 21.5108 16.482 21.345L15.012 19.875C13.4333 20.7113 11.607 20.9533 9.86505 20.557C8.12309 20.1608 6.58118 19.1525 5.51965 17.7157C4.45812 16.2788 3.94748 14.5087 4.08055 12.7272C4.21363 10.9457 4.98159 9.27109 6.24481 8.00787C7.50803 6.74465 9.18262 5.97669 10.9641 5.84361C12.7456 5.71054 14.5157 6.22118 15.9526 7.28271C17.3895 8.34424 18.3977 9.88616 18.794 11.6281C19.1903 13.3701 18.9483 15.1964 18.112 16.775V16.775L19.582 18.245C19.6746 18.1533 19.7864 18.0833 19.9094 18.0401C20.0323 17.9968 20.1633 17.9815 20.293 17.995L20.29 17.988Z" fill="#525252"/>
<path d="M23.3569 22.016L20.2899 18.949L19.9429 18.602L18.7009 17.36L17.2309 15.89C16.5337 17.2123 15.4531 18.2929 14.1309 18.99L15.6009 20.46L16.8429 21.702L20.1249 24.984L20.2569 25.116C20.4571 25.334 20.6993 25.5091 20.969 25.631C21.2387 25.7529 21.5302 25.819 21.8261 25.8252C22.122 25.8315 22.4161 25.7778 22.6907 25.6675C22.9653 25.5571 23.2147 25.3924 23.424 25.1831C23.6332 24.9739 23.798 24.7244 23.9083 24.4498C24.0187 24.1752 24.0723 23.8811 24.0661 23.5853C24.0598 23.2894 23.9937 22.9978 23.8719 22.7281C23.75 22.4585 23.5748 22.2162 23.3569 22.016V22.016Z" fill="#EE8700"/>
<path d="M17.2279 15.885C16.5154 17.231 15.408 18.3266 14.0545 19.0247C12.7011 19.7228 11.1664 19.99 9.6566 19.7903C8.14685 19.5906 6.73437 18.9336 5.60895 17.9076C4.48353 16.8816 3.69907 15.5358 3.36097 14.0509C3.02288 12.566 3.14734 11.0132 3.71764 9.60107C4.28793 8.18898 5.27675 6.98525 6.55123 6.15162C7.8257 5.31799 9.32479 4.89438 10.8471 4.93771C12.3694 4.98105 13.8419 5.48925 15.0669 6.39403C16.5117 7.44899 17.5263 8.99084 17.9234 10.7352C18.3206 12.4795 18.0736 14.3086 17.2279 15.885Z" fill="#FF9811"/>
<path d="M14.6689 16.4301C13.7367 17.357 12.5121 17.9322 11.2035 18.0579C9.89497 18.1836 8.58329 17.852 7.49169 17.1195C6.40008 16.387 5.596 15.2989 5.21627 14.0404C4.83654 12.7819 4.90462 11.4306 5.40892 10.2166C5.91322 9.00264 6.82259 8.00088 7.98229 7.38184C9.14198 6.76279 10.4803 6.5647 11.7696 6.82127C13.0589 7.07785 14.2195 7.77323 15.0538 8.78909C15.8882 9.80495 16.3448 11.0785 16.3459 12.3931C16.3457 13.1433 16.1975 13.886 15.9098 14.5788C15.622 15.2715 15.2003 15.9007 14.6689 16.4301V16.4301Z" fill="#525252"/>
<path d="M20.29 4.06005H17.658C17.4255 4.05952 17.2026 3.96699 17.0381 3.80266C16.8736 3.63833 16.7808 3.41557 16.78 3.18305V0.550049L20.29 4.06005Z" fill="#525252"/>
<path d="M20.202 17.978C20.2021 18.0938 20.1792 18.2085 20.1348 18.3154C20.0903 18.4223 20.0251 18.5194 19.943 18.601L16.843 21.701C16.72 21.8231 16.5637 21.9062 16.3937 21.9398C16.2237 21.9735 16.0475 21.9561 15.8873 21.89C15.7271 21.8239 15.59 21.7119 15.4932 21.5682C15.3963 21.4245 15.3441 21.2553 15.343 21.082C15.3445 20.8485 15.4374 20.6248 15.602 20.459L18.702 17.359C18.825 17.2369 18.9813 17.1538 19.1513 17.1202C19.3214 17.0866 19.4975 17.1039 19.6577 17.1701C19.8179 17.2362 19.955 17.3481 20.0519 17.4919C20.1487 17.6356 20.2009 17.8047 20.202 17.978V17.978Z" fill="#FF9811"/>
<path d="M14.147 16.5531V16.8911C13.1451 17.6758 11.9091 18.1023 10.6365 18.1023C9.36382 18.1023 8.12787 17.6758 7.12598 16.8911V16.5531C7.12675 16.2272 7.2178 15.9078 7.38903 15.6305C7.56025 15.3532 7.80495 15.1288 8.09598 14.9821L8.75398 14.6531L9.31998 15.9081L10.636 15.0301L11.952 15.9081L12.518 14.6531L13.176 14.9821C13.4672 15.1286 13.7121 15.353 13.8835 15.6303C14.0549 15.9077 14.1461 16.2271 14.147 16.5531V16.5531Z" fill="#3D9AE2"/>
<path d="M12.519 14.6531L11.953 15.9081L10.637 15.0311L11.515 14.1531L12.519 14.6531Z" fill="#1E81CE"/>
<path d="M10.6359 15.0311L9.31991 15.9091L8.75391 14.6531L9.75391 14.1531L10.6359 15.0311Z" fill="#1E81CE"/>
<path d="M11.5138 12.8361V14.1521L10.6358 15.0301L9.75879 14.1521V12.8361H11.5138Z" fill="#FFC477"/>
<path d="M11.5138 12.8361V13.4771C11.2474 13.6322 10.9446 13.7139 10.6363 13.7139C10.328 13.7139 10.0252 13.6322 9.75879 13.4771V12.8361H11.5138Z" fill="#FFB655"/>
<path d="M12.3909 11.0821V11.5211C12.3909 11.9866 12.206 12.4329 11.8768 12.7621C11.5477 13.0912 11.1013 13.2761 10.6359 13.2761C10.1704 13.2761 9.72401 13.0912 9.39489 12.7621C9.06576 12.4329 8.88086 11.9866 8.88086 11.5211V11.0821H9.10486C9.45125 11.0826 9.79432 11.0146 10.1144 10.8821C10.4344 10.7497 10.7251 10.5553 10.9699 10.3101L11.0749 10.2041L11.2749 10.5951C11.3471 10.7416 11.4589 10.8649 11.5977 10.9509C11.7364 11.037 11.8966 11.0825 12.0599 11.0821H12.3909Z" fill="#FFC477"/>
<path d="M12.3909 10.203V11.081H12.0579C11.8946 11.0814 11.7344 11.0359 11.5957 10.9499C11.4569 10.8638 11.3451 10.7405 11.2729 10.594L11.0729 10.203L10.9679 10.308C10.7231 10.5532 10.4324 10.7476 10.1124 10.8801C9.79232 11.0125 9.44925 11.0805 9.10286 11.08H8.88086V10.202C8.88086 9.73657 9.06576 9.29017 9.39489 8.96105C9.72401 8.63192 10.1704 8.44702 10.6359 8.44702C11.1013 8.44702 11.5477 8.63192 11.8768 8.96105C12.206 9.29017 12.3909 9.73657 12.3909 10.202V10.203Z" fill="#3A3A3A"/>
<path d="M3.177 2.74402H5.81V3.62202H3.177V2.74402Z" fill="#525252"/>
<path d="M3.177 4.49902H5.81V5.37702H3.177V4.49902Z" fill="#525252"/>
<path d="M3.177 21.173H9.32V22.051H3.177V21.173Z" fill="#525252"/>
<path d="M3.177 22.9291H9.32V23.8071H3.177V22.9291Z" fill="#525252"/>
</svg>
