<svg width="22" height="27" viewBox="0 0 22 27" fill="none" xmlns="http://www.w3.org/2000/svg">
<path d="M7.72093 24.975C10.4286 25.7669 13.3239 25.626 15.9419 24.575L20.3189 18.744C21.9089 12.935 15.6369 7.724 15.4369 7.296C15.1783 6.08928 14.9824 4.86998 14.8499 3.643C14.8416 3.15942 14.738 2.68222 14.5451 2.23872C14.3521 1.79521 14.0736 1.3941 13.7255 1.05834C13.3774 0.722572 12.9665 0.45875 12.5163 0.281953C12.0661 0.105156 11.5855 0.0188585 11.1019 0.0280012C10.1354 0.0383105 9.20936 0.417294 8.51293 1.08752C7.8165 1.75774 7.40228 2.66862 7.35492 3.634C7.31292 4.144 7.70194 7.434 7.80094 8.996C5.92894 10.749 2.72593 15.111 2.90093 19.207L7.72093 24.975Z" fill="#525252"/>
<path d="M15.4379 7.29089C15.1788 6.08422 14.9826 4.86491 14.8499 3.6379C14.8307 2.66298 14.4253 1.73556 13.7227 1.0594C13.0201 0.383251 12.0778 0.0136809 11.1029 0.0318925C10.8836 0.0325912 10.6648 0.0523301 10.4489 0.0908906C11.2991 0.223105 12.0753 0.651604 12.6401 1.30066C13.205 1.94972 13.5223 2.77756 13.5359 3.6379C13.6684 4.86488 13.8643 6.08418 14.1229 7.29089C14.3229 7.71889 20.5939 12.9299 19.0049 18.7389L14.6279 24.5699C13.2376 25.0848 11.7767 25.3843 10.2959 25.4579C12.2187 25.5431 14.1391 25.2412 15.9429 24.5699L20.3189 18.7389C21.9079 12.9319 15.6359 7.71889 15.4379 7.29089Z" fill="#6B6B6B"/>
<path d="M16.324 25.736C15.488 24.301 15.604 19.687 16.583 18.628C17.956 18.214 21.441 18.292 21.733 20.163C22.191 23.083 18.349 26.465 16.324 25.736Z" fill="#F9A826"/>
<path d="M21.7319 20.1629C21.5129 18.7579 19.4909 18.3629 17.9169 18.4299C19.3479 18.4889 20.8849 18.9469 21.0749 20.1629C21.4679 22.6689 18.6949 25.5129 16.6199 25.8079C18.6989 26.1469 22.1689 22.9469 21.7319 20.1629Z" fill="#F9A826"/>
<path d="M7.74194 25.2069C7.68694 23.5629 5.48795 19.7619 3.70095 19.2549C2.42995 18.8549 -0.636049 21.3829 0.117951 23.1319C1.29595 25.8559 6.39894 26.8379 7.74194 25.2069Z" fill="#F9A826"/>
<path d="M3.70084 19.2541C3.48715 19.1978 3.26252 19.1978 3.04883 19.2541C4.83483 19.7681 7.02883 23.5621 7.08383 25.2051C6.82526 25.4606 6.51797 25.6614 6.18024 25.7958C5.8425 25.9301 5.48121 25.9952 5.11783 25.9871C5.58584 26.0609 6.06444 26.0289 6.51849 25.8936C6.97255 25.7583 7.39055 25.523 7.74184 25.2051C7.68584 23.5621 5.48684 19.7611 3.70084 19.2541Z" fill="#F9A826"/>
<path d="M9.54102 7.346C10.0267 6.86043 10.6113 6.48524 11.255 6.24599C11.9478 6.17769 12.6466 6.28356 13.288 6.55399C13.583 8.18499 12.588 7.80099 11.638 9.37599C10.144 8.45499 9.74802 8.482 9.54102 7.346Z" fill="#F9A826"/>
</svg>
