<svg width="23" height="23" viewBox="0 0 23 23" fill="none" xmlns="http://www.w3.org/2000/svg">
<path d="M11.9489 11.9179C11.9489 12.0067 11.9226 12.0935 11.8733 12.1674C11.8239 12.2412 11.7538 12.2988 11.6718 12.3327C11.5897 12.3667 11.4995 12.3756 11.4124 12.3583C11.3253 12.341 11.2453 12.2982 11.1825 12.2354C11.1197 12.1726 11.0769 12.0926 11.0596 12.0055C11.0422 11.9184 11.0511 11.8281 11.0851 11.7461C11.1191 11.664 11.1767 11.5939 11.2505 11.5446C11.3243 11.4952 11.4112 11.4689 11.5 11.4689C11.619 11.4689 11.7332 11.5162 11.8174 11.6004C11.9017 11.6846 11.9489 11.7988 11.9489 11.9179V11.9179ZM11.5 9.78091C11.4112 9.78091 11.3243 9.80725 11.2505 9.85658C11.1767 9.90592 11.1191 9.97605 11.0851 10.0581C11.0511 10.1401 11.0422 10.2304 11.0596 10.3175C11.0769 10.4046 11.1197 10.4846 11.1825 10.5474C11.2453 10.6102 11.3253 10.653 11.4124 10.6703C11.4995 10.6876 11.5897 10.6787 11.6718 10.6447C11.7538 10.6108 11.8239 10.5532 11.8733 10.4794C11.9226 10.4055 11.9489 10.3187 11.9489 10.2299C11.9491 10.1709 11.9376 10.1124 11.9151 10.0578C11.8926 10.0032 11.8595 9.95359 11.8178 9.91179C11.7761 9.86999 11.7265 9.83682 11.672 9.81419C11.6175 9.79157 11.559 9.77992 11.5 9.77992V9.78091ZM11.5 8.09293C11.4112 8.09293 11.3243 8.11926 11.2505 8.16859C11.1767 8.21793 11.1191 8.28806 11.0851 8.3701C11.0511 8.45215 11.0422 8.54242 11.0596 8.62952C11.0769 8.71661 11.1197 8.79661 11.1825 8.85941C11.2453 8.9222 11.3253 8.96498 11.4124 8.9823C11.4995 8.99962 11.5897 8.99073 11.6718 8.95674C11.7538 8.92276 11.8239 8.8652 11.8733 8.79137C11.9226 8.71753 11.9489 8.63072 11.9489 8.54192C11.9491 8.48287 11.9376 8.42437 11.9151 8.36978C11.8926 8.31519 11.8595 8.26558 11.8178 8.22379C11.7761 8.18199 11.7265 8.14882 11.672 8.12619C11.6175 8.10356 11.559 8.09192 11.5 8.09192V8.09293ZM9.08396 11.6009C9.02117 11.6637 8.9784 11.7437 8.96108 11.8308C8.94376 11.9179 8.95265 12.0082 8.98664 12.0902C9.02062 12.1723 9.07816 12.2424 9.152 12.2917C9.22583 12.3411 9.31264 12.3674 9.40145 12.3674C9.49025 12.3674 9.57706 12.3411 9.6509 12.2917C9.72473 12.2424 9.78229 12.1723 9.81627 12.0902C9.85026 12.0082 9.85915 11.9179 9.84183 11.8308C9.82451 11.7437 9.78174 11.6637 9.71895 11.6009C9.67732 11.5592 9.62787 11.526 9.57343 11.5034C9.51899 11.4807 9.46063 11.469 9.40166 11.4689C9.34269 11.4688 9.28428 11.4803 9.22977 11.5028C9.17526 11.5253 9.12572 11.5583 9.08396 11.5999V11.6009ZM7.88996 10.4069C7.82717 10.4697 7.7844 10.5497 7.76708 10.6368C7.74976 10.7239 7.75865 10.8142 7.79264 10.8962C7.82662 10.9783 7.88416 11.0484 7.958 11.0977C8.03183 11.1471 8.11864 11.1734 8.20745 11.1734C8.29625 11.1734 8.38306 11.1471 8.4569 11.0977C8.53073 11.0484 8.58829 10.9783 8.62227 10.8962C8.65626 10.8142 8.66515 10.7239 8.64783 10.6368C8.63051 10.5497 8.58774 10.4697 8.52495 10.4069C8.48332 10.3652 8.43387 10.332 8.37943 10.3094C8.32499 10.2867 8.26663 10.275 8.20766 10.2749C8.14869 10.2748 8.09028 10.2863 8.03577 10.3088C7.98126 10.3313 7.93172 10.3643 7.88996 10.4059V10.4069ZM6.69596 9.21292C6.63317 9.27572 6.5904 9.35571 6.57308 9.44281C6.55576 9.52991 6.56465 9.62018 6.59864 9.70222C6.63262 9.78427 6.69016 9.8544 6.764 9.90373C6.83783 9.95307 6.92464 9.9794 7.01345 9.9794C7.10225 9.9794 7.18906 9.95307 7.2629 9.90373C7.33673 9.8544 7.39429 9.78427 7.42827 9.70222C7.46226 9.62018 7.47115 9.52991 7.45383 9.44281C7.43651 9.35571 7.39374 9.27572 7.33095 9.21292C7.28926 9.17122 7.23975 9.13815 7.18528 9.11559C7.1308 9.09302 7.07241 9.08141 7.01345 9.08141C6.95448 9.08141 6.89609 9.09302 6.84162 9.11559C6.78714 9.13815 6.73765 9.17122 6.69596 9.21292V9.21292ZM16.303 9.21292C16.2402 9.15013 16.1602 9.10736 16.0731 9.09004C15.986 9.07272 15.8957 9.08162 15.8136 9.1156C15.7316 9.14959 15.6615 9.20714 15.6121 9.28098C15.5628 9.35481 15.5365 9.44162 15.5365 9.53043C15.5365 9.61923 15.5628 9.70602 15.6121 9.77986C15.6615 9.8537 15.7316 9.91125 15.8136 9.94524C15.8957 9.97922 15.986 9.98812 16.0731 9.97079C16.1602 9.95347 16.2402 9.91071 16.303 9.84792C16.3447 9.80629 16.3779 9.75685 16.4005 9.70241C16.4232 9.64797 16.4349 9.58959 16.435 9.53062C16.4351 9.47166 16.4235 9.41326 16.4011 9.35875C16.3786 9.30424 16.3456 9.25468 16.304 9.21292H16.303ZM14.474 10.4069C14.4112 10.4697 14.3684 10.5497 14.3511 10.6368C14.3338 10.7239 14.3427 10.8142 14.3766 10.8962C14.4106 10.9783 14.4682 11.0484 14.542 11.0977C14.6158 11.1471 14.7026 11.1734 14.7914 11.1734C14.8802 11.1734 14.9671 11.1471 15.0409 11.0977C15.1147 11.0484 15.1723 10.9783 15.2063 10.8962C15.2403 10.8142 15.2492 10.7239 15.2318 10.6368C15.2145 10.5497 15.1717 10.4697 15.109 10.4069C15.0673 10.3652 15.0179 10.332 14.9634 10.3094C14.909 10.2867 14.8506 10.275 14.7917 10.2749C14.7327 10.2748 14.6743 10.2863 14.6198 10.3088C14.5653 10.3313 14.5157 10.3643 14.474 10.4059V10.4069ZM13.28 11.6009C13.2172 11.6637 13.1744 11.7437 13.1571 11.8308C13.1398 11.9179 13.1487 12.0082 13.1826 12.0902C13.2166 12.1723 13.2742 12.2424 13.348 12.2917C13.4218 12.3411 13.5086 12.3674 13.5974 12.3674C13.6862 12.3674 13.7731 12.3411 13.8469 12.2917C13.9207 12.2424 13.9783 12.1723 14.0123 12.0902C14.0463 12.0082 14.0552 11.9179 14.0378 11.8308C14.0205 11.7437 13.9777 11.6637 13.915 11.6009C13.8309 11.5169 13.717 11.4696 13.5982 11.4694C13.4793 11.4692 13.3652 11.5161 13.2809 11.5999L13.28 11.6009Z" fill="#FF9529"/>
<path d="M19.3609 12.7009V19.5489C18.3366 20.5956 17.1136 21.4271 15.7636 21.9948C14.4136 22.5625 12.9639 22.855 11.4994 22.855C10.0349 22.855 8.58519 22.5625 7.23522 21.9948C5.88526 21.4271 4.66224 20.5956 3.63791 19.5489V13.8849L0.885909 15.5359C0.754795 15.6168 0.597049 15.6428 0.446929 15.6081C0.296809 15.5734 0.166437 15.4809 0.0841266 15.3506C0.00181594 15.2204 -0.0257869 15.0629 0.00731261 14.9124C0.0404121 14.7619 0.131541 14.6306 0.260909 14.5469L3.92591 12.1469L3.96191 12.1239C4.06711 12.0589 4.18825 12.0243 4.31191 12.0239H18.6869C18.8657 12.0239 19.0371 12.0949 19.1635 12.2213C19.2899 12.3477 19.3609 12.5192 19.3609 12.6979V12.7009Z" fill="#2A2A2A"/>
<path d="M22.9999 15.034C22.9996 15.1374 22.9719 15.2388 22.9197 15.328C22.8674 15.4172 22.7925 15.491 22.7024 15.5418C22.6124 15.5927 22.5105 15.6187 22.4071 15.6173C22.3037 15.6159 22.2026 15.5872 22.1139 15.534L19.3619 13.883V19.547C17.5015 21.4472 15.0159 22.6094 12.3649 22.8188C9.71379 23.0282 7.07658 22.2706 4.94092 20.686V12.701C4.94092 12.5222 5.01193 12.3508 5.13833 12.2244C5.26473 12.098 5.43617 12.027 5.61492 12.027H18.6869C18.8103 12.0274 18.9311 12.062 19.0359 12.127L19.0709 12.15L22.7369 14.55C22.8171 14.6029 22.8831 14.6747 22.9289 14.7591C22.9748 14.8435 22.9992 14.9379 22.9999 15.034Z" fill="#525252"/>
<path d="M8.39387 20.5619V21.3059C8.39387 21.425 8.34656 21.5392 8.26236 21.6234C8.17816 21.7076 8.06395 21.7549 7.94487 21.7549H7.20087C7.08178 21.7549 6.96758 21.7076 6.88338 21.6234C6.79917 21.5392 6.75187 21.425 6.75187 21.3059V20.5619C6.75187 20.4428 6.79917 20.3286 6.88338 20.2444C6.96758 20.1602 7.08178 20.1129 7.20087 20.1129H7.94487C8.06395 20.1129 8.17816 20.1602 8.26236 20.2444C8.34656 20.3286 8.39387 20.4428 8.39387 20.5619V20.5619ZM5.68587 20.1129H4.94187C4.85697 20.1131 4.77386 20.1373 4.70217 20.1828C4.63049 20.2283 4.57317 20.2932 4.53687 20.3699C5.03048 20.7734 5.55812 21.1335 6.11387 21.4459C6.12851 21.401 6.13593 21.3541 6.13586 21.3069V20.5629C6.136 20.5038 6.12445 20.4452 6.10188 20.3906C6.07932 20.3359 6.04617 20.2862 6.00436 20.2444C5.96254 20.2026 5.91289 20.1695 5.85823 20.1469C5.80357 20.1243 5.745 20.1128 5.68587 20.1129V20.1129ZM10.2039 20.1129H9.45987C9.34079 20.1129 9.22658 20.1602 9.14238 20.2444C9.05818 20.3286 9.01086 20.4428 9.01086 20.5619V21.3059C9.01086 21.425 9.05818 21.5392 9.14238 21.6234C9.22658 21.7076 9.34079 21.7549 9.45987 21.7549H10.2049C10.3239 21.7549 10.4382 21.7076 10.5224 21.6234C10.6066 21.5392 10.6539 21.425 10.6539 21.3059V20.5619C10.6539 20.5029 10.6422 20.4444 10.6196 20.3899C10.597 20.3353 10.5638 20.2858 10.522 20.2441C10.4802 20.2024 10.4306 20.1693 10.376 20.1468C10.3214 20.1243 10.2629 20.1128 10.2039 20.1129V20.1129Z" fill="#2A2A2A"/>
<path d="M4.26102 11.9819H4.31203H18.695C18.7733 11.983 18.8503 12.0024 18.9197 12.0386C18.9891 12.0749 19.049 12.1269 19.0947 12.1905C19.1403 12.2542 19.1703 12.3276 19.1824 12.405C19.1944 12.4823 19.1881 12.5614 19.164 12.6359L17.664 17.5899C17.6222 17.7284 17.5368 17.8498 17.4207 17.936C17.3045 18.0223 17.1637 18.0689 17.019 18.0689H5.89802C5.75181 18.069 5.60952 18.0216 5.49263 17.9337C5.37574 17.8459 5.29059 17.7224 5.25002 17.5819L3.82403 12.6299C3.80211 12.5586 3.79646 12.4832 3.80749 12.4093C3.81852 12.3354 3.84595 12.265 3.88776 12.2032C3.92958 12.1413 3.98472 12.0896 4.04914 12.0518C4.11356 12.0141 4.18562 11.9912 4.26002 11.9849L4.26102 11.9819Z" fill="#6B6B6B"/>
<path d="M15.0928 3.94092C15.0928 4.65179 14.882 5.3467 14.487 5.93775C14.0921 6.5288 13.5307 6.98945 12.8739 7.26144C12.2172 7.53343 11.4945 7.60455 10.7973 7.46579C10.1001 7.32704 9.45968 6.98464 8.95709 6.48191C8.4545 5.97918 8.11229 5.3387 7.97372 4.64147C7.83516 3.94423 7.90647 3.22157 8.17865 2.56487C8.45082 1.90817 8.91164 1.34693 9.50281 0.952136C10.094 0.557342 10.7889 0.346726 11.4998 0.346924C12.4528 0.347189 13.3667 0.725959 14.0405 1.39994C14.7143 2.07391 15.0928 2.98791 15.0928 3.94092V3.94092Z" fill="#6B6B6B"/>
<path d="M14.3939 6.06892C14.0873 6.48648 13.6941 6.83284 13.2412 7.08426C12.7883 7.33569 12.2864 7.48624 11.7699 7.5256C11.2534 7.56495 10.7345 7.49219 10.2487 7.3123C9.76293 7.1324 9.32178 6.84962 8.95549 6.48333C8.5892 6.11704 8.30642 5.67589 8.12652 5.19012C7.94663 4.70435 7.87386 4.18543 7.91322 3.66891C7.95258 3.1524 8.10313 2.6505 8.35455 2.19759C8.60598 1.74468 8.95234 1.35148 9.3699 1.04492C8.85986 1.73699 8.61487 2.58899 8.67941 3.44628C8.74395 4.30356 9.11373 5.10928 9.72163 5.71719C10.3295 6.32509 11.1353 6.69488 11.9925 6.75941C12.8498 6.82395 13.7018 6.57896 14.3939 6.06892V6.06892Z" fill="#525252"/>
<path d="M12.5809 1.69495C12.7563 1.69501 12.9295 1.73431 13.0879 1.80995L13.6879 2.09595C13.718 2.1109 13.7434 2.13401 13.761 2.16265C13.7787 2.19128 13.788 2.2243 13.7879 2.25795V3.31295C13.7879 3.36069 13.7689 3.40647 13.7351 3.44023C13.7014 3.47398 13.6556 3.49295 13.6079 3.49295H12.8439V5.96395C12.8439 6.02362 12.8202 6.08085 12.778 6.12305C12.7358 6.16525 12.6785 6.18895 12.6189 6.18895H10.3729C10.3132 6.18895 10.256 6.16525 10.2138 6.12305C10.1716 6.08085 10.1479 6.02362 10.1479 5.96395V3.49495H9.38387C9.36023 3.49495 9.33681 3.49029 9.31497 3.48125C9.29313 3.4722 9.27329 3.45894 9.25658 3.44223C9.23986 3.42552 9.22661 3.40567 9.21756 3.38383C9.20852 3.362 9.20386 3.33859 9.20386 3.31495V2.25795C9.20372 2.2243 9.21302 2.19128 9.2307 2.16265C9.24838 2.13401 9.27372 2.1109 9.30387 2.09595L9.90387 1.80995C10.0622 1.73434 10.2354 1.69505 10.4109 1.69495C10.434 1.69481 10.457 1.69924 10.4784 1.70799C10.4999 1.71674 10.5194 1.72964 10.5359 1.74595C10.6611 1.87209 10.81 1.97221 10.9741 2.04053C11.1382 2.10884 11.3141 2.14402 11.4919 2.14402C11.6696 2.14402 11.8456 2.10884 12.0096 2.04053C12.1737 1.97221 12.3227 1.87209 12.4479 1.74595C12.4643 1.72964 12.4838 1.71674 12.5053 1.70799C12.5267 1.69924 12.5497 1.69481 12.5729 1.69495H12.5809Z" fill="#FCAB59"/>
<path d="M7.18703 6.1869C7.18703 6.89777 6.97622 7.59267 6.58126 8.18372C6.1863 8.77477 5.62493 9.23542 4.96816 9.50742C4.31138 9.77941 3.5887 9.85052 2.8915 9.71177C2.19431 9.57301 1.55392 9.23061 1.05133 8.72788C0.54874 8.22515 0.206523 7.58467 0.0679609 6.88744C-0.0706015 6.1902 0.000714421 5.46754 0.272889 4.81084C0.545064 4.15414 1.00587 3.5929 1.59703 3.19811C2.1882 2.80332 2.88316 2.5927 3.59403 2.5929C4.54704 2.59316 5.46093 2.97193 6.13472 3.64591C6.80851 4.31989 7.18703 5.23388 7.18703 6.1869Z" fill="#6B6B6B"/>
<path d="M6.48789 8.3149C6.18133 8.73246 5.78813 9.07881 5.33522 9.33024C4.88232 9.58166 4.38041 9.73221 3.8639 9.77157C3.34738 9.81093 2.82846 9.73817 2.34269 9.55827C1.85692 9.37838 1.41578 9.09559 1.04948 8.7293C0.683194 8.36301 0.400414 7.92187 0.220516 7.4361C0.0406191 6.95032 -0.0321429 6.43141 0.00721547 5.91489C0.0465738 5.39838 0.197122 4.89647 0.448547 4.44357C0.699971 3.99066 1.04633 3.59745 1.46389 3.29089C0.953849 3.98296 0.70886 4.83497 0.773397 5.69225C0.837935 6.54953 1.20772 7.35526 1.81562 7.96317C2.42353 8.57107 3.22926 8.94085 4.08654 9.00539C4.94382 9.06992 5.79582 8.82494 6.48789 8.3149V8.3149Z" fill="#525252"/>
<path d="M5.61488 6.49792C5.59474 7.02058 5.37295 7.51512 4.99605 7.87778C4.61915 8.24044 4.11643 8.44303 3.59338 8.44303C3.07034 8.44303 2.56762 8.24044 2.19072 7.87778C1.81381 7.51512 1.59202 7.02058 1.57188 6.49792C1.56749 6.33719 1.60445 6.17801 1.67922 6.03566C1.75398 5.8933 1.86405 5.77254 1.99888 5.68492C2.13561 5.59218 2.29309 5.53454 2.45738 5.5171C2.62167 5.49966 2.78773 5.52296 2.94088 5.58492C3.07885 5.63919 3.22291 5.67646 3.36988 5.69592C3.37864 5.5238 3.42725 5.35606 3.51188 5.20592C3.34505 5.26225 3.16556 5.2695 2.99472 5.22684C2.82388 5.18418 2.66887 5.0934 2.5481 4.96525C2.42733 4.83711 2.34587 4.67701 2.3134 4.50394C2.28092 4.33088 2.29879 4.15213 2.36488 3.98892C2.53223 3.91719 2.71741 3.89791 2.89595 3.93362C3.07448 3.96932 3.23799 4.05834 3.36488 4.18892C3.47932 4.30057 3.56217 4.44052 3.60503 4.59455C3.64788 4.74858 3.64921 4.91121 3.60888 5.06592C3.71373 4.93021 3.8483 4.82035 4.00224 4.74477C4.15618 4.66919 4.32539 4.6299 4.49688 4.62992C4.52762 4.62787 4.55846 4.63215 4.58748 4.6425C4.6165 4.65285 4.64308 4.66906 4.66558 4.69011C4.68808 4.71116 4.70602 4.7366 4.71828 4.76486C4.73055 4.79313 4.73688 4.82361 4.73688 4.85442C4.73688 4.88523 4.73055 4.91571 4.71828 4.94398C4.70602 4.97224 4.68808 4.99769 4.66558 5.01874C4.64308 5.03978 4.6165 5.05598 4.58748 5.06634C4.55846 5.07669 4.52762 5.08097 4.49688 5.07892C4.32841 5.07902 4.16609 5.14222 4.04189 5.25605C3.9177 5.36988 3.84063 5.5261 3.82589 5.69392C3.97146 5.67449 4.11416 5.63756 4.25088 5.58392C4.40406 5.52204 4.5701 5.49879 4.73438 5.51623C4.89865 5.53367 5.05611 5.59126 5.19288 5.68392C5.32764 5.77161 5.43766 5.89239 5.51242 6.03473C5.58718 6.17707 5.62418 6.3362 5.61988 6.49692L5.61488 6.49792Z" fill="#FCAB59"/>
<path d="M23 6.1869C23 6.89772 22.7892 7.59259 22.3943 8.18362C21.9994 8.77465 21.4381 9.2353 20.7814 9.50732C20.1247 9.77934 19.402 9.85051 18.7049 9.71184C18.0077 9.57316 17.3673 9.23087 16.8647 8.72824C16.3621 8.22561 16.0197 7.58522 15.8811 6.88805C15.7424 6.19088 15.8136 5.46825 16.0856 4.81153C16.3576 4.15481 16.8183 3.59351 17.4093 3.19859C18.0003 2.80368 18.6952 2.5929 19.406 2.5929C20.3592 2.5929 21.2733 2.97155 21.9474 3.64555C22.6214 4.31956 23 5.23371 23 6.1869V6.1869Z" fill="#6B6B6B"/>
<path d="M22.2999 8.3149C21.9933 8.73246 21.6001 9.07881 21.1472 9.33024C20.6943 9.58166 20.1924 9.73221 19.6759 9.77157C19.1594 9.81093 18.6405 9.73817 18.1547 9.55827C17.6689 9.37838 17.2278 9.09559 16.8615 8.7293C16.4952 8.36301 16.2124 7.92187 16.0325 7.4361C15.8526 6.95032 15.7799 6.43141 15.8192 5.91489C15.8586 5.39838 16.0091 4.89647 16.2606 4.44357C16.512 3.99066 16.8583 3.59745 17.2759 3.29089C16.7659 3.98296 16.5209 4.83497 16.5854 5.69225C16.6499 6.54953 17.0197 7.35526 17.6276 7.96317C18.2355 8.57107 19.0413 8.94085 19.8985 9.00539C20.7558 9.06992 21.6078 8.82494 22.2999 8.3149V8.3149Z" fill="#525252"/>
<path d="M18.575 5.51297C18.575 5.57962 18.5552 5.64478 18.5182 5.7002C18.4812 5.75561 18.4285 5.79881 18.367 5.82432C18.3054 5.84982 18.2376 5.85649 18.1722 5.84349C18.1069 5.83049 18.0468 5.7984 17.9997 5.75127C17.9526 5.70414 17.9205 5.64408 17.9074 5.57871C17.8944 5.51334 17.9011 5.44558 17.9266 5.384C17.9521 5.32242 17.9953 5.2698 18.0508 5.23277C18.1062 5.19574 18.1713 5.17597 18.238 5.17597C18.3274 5.17597 18.4131 5.21147 18.4763 5.27467C18.5395 5.33787 18.575 5.42359 18.575 5.51297V5.51297ZM20.933 5.17597C20.8663 5.17597 20.8012 5.19574 20.7458 5.23277C20.6903 5.2698 20.6472 5.32242 20.6216 5.384C20.5961 5.44558 20.5895 5.51334 20.6025 5.57871C20.6155 5.64408 20.6475 5.70414 20.6947 5.75127C20.7418 5.7984 20.8019 5.83049 20.8672 5.84349C20.9326 5.85649 21.0004 5.84982 21.062 5.82432C21.1235 5.79881 21.1762 5.75561 21.2132 5.7002C21.2502 5.64478 21.27 5.57962 21.27 5.51297C21.27 5.42359 21.2345 5.33787 21.1713 5.27467C21.1081 5.21147 21.0224 5.17597 20.933 5.17597V5.17597ZM22.011 7.29197C22.0116 7.46386 21.9482 7.62982 21.833 7.75745C21.7179 7.88508 21.5593 7.96521 21.3883 7.9822C21.2172 7.99919 21.046 7.95182 20.908 7.84934C20.77 7.74686 20.6752 7.59663 20.642 7.42797L20.625 7.34097C20.5842 7.14308 20.4763 6.96534 20.3196 6.8378C20.163 6.71025 19.967 6.64073 19.765 6.64097H19.406C19.2039 6.64073 19.008 6.71025 18.8513 6.8378C18.6946 6.96534 18.5868 7.14308 18.546 7.34097L18.529 7.42797C18.5017 7.60255 18.4085 7.76004 18.2687 7.86806C18.1289 7.97609 17.953 8.02644 17.7772 8.00877C17.6014 7.9911 17.439 7.90675 17.3235 7.77306C17.2079 7.63936 17.148 7.46649 17.156 7.28997C17.155 6.85468 17.1884 6.41998 17.256 5.98997L17.393 5.12997C17.426 4.92409 17.5314 4.73672 17.6901 4.60147C17.8488 4.46622 18.0505 4.39195 18.259 4.39197H20.897C21.1055 4.39195 21.3072 4.46622 21.4659 4.60147C21.6246 4.73672 21.7299 4.92409 21.763 5.12997L21.901 5.98997C21.9685 6.41999 22.0019 6.85468 22.001 7.28997L22.011 7.29197ZM18.911 5.51197C18.911 5.37867 18.8715 5.24835 18.7974 5.13751C18.7233 5.02667 18.6181 4.94029 18.4949 4.88927C18.3718 4.83826 18.2362 4.82492 18.1055 4.85092C17.9748 4.87693 17.8546 4.94112 17.7604 5.03538C17.6661 5.12964 17.6019 5.24973 17.5759 5.38048C17.5499 5.51122 17.5633 5.64674 17.6143 5.7699C17.6653 5.89305 17.7517 5.99832 17.8625 6.07238C17.9734 6.14644 18.1037 6.18597 18.237 6.18597C18.3255 6.1861 18.4132 6.1688 18.495 6.13505C18.5768 6.1013 18.6512 6.05176 18.7139 5.98927C18.7766 5.92677 18.8263 5.85254 18.8603 5.77082C18.8943 5.6891 18.9119 5.60148 18.912 5.51297L18.911 5.51197ZM19.495 6.00597C19.495 5.97037 19.4844 5.93557 19.4646 5.90597C19.4449 5.87637 19.4167 5.85329 19.3839 5.83967C19.351 5.82604 19.3148 5.82248 19.2799 5.82943C19.2449 5.83637 19.2129 5.85352 19.1877 5.87869C19.1625 5.90387 19.1454 5.93594 19.1384 5.97086C19.1315 6.00577 19.1351 6.04196 19.1487 6.07485C19.1623 6.10774 19.1854 6.13585 19.215 6.15563C19.2446 6.17541 19.2794 6.18597 19.315 6.18597C19.3386 6.1861 19.3621 6.18158 19.3839 6.17265C19.4058 6.16373 19.4257 6.15058 19.4425 6.13396C19.4593 6.11734 19.4727 6.09756 19.4819 6.07578C19.4911 6.05399 19.4958 6.0306 19.496 6.00697L19.495 6.00597ZM20.034 6.00597C20.034 5.97037 20.0234 5.93557 20.0036 5.90597C19.9839 5.87637 19.9557 5.85329 19.9229 5.83967C19.89 5.82604 19.8538 5.82248 19.8189 5.82943C19.7839 5.83637 19.7519 5.85352 19.7267 5.87869C19.7015 5.90387 19.6844 5.93594 19.6774 5.97086C19.6705 6.00577 19.6741 6.04196 19.6877 6.07485C19.7013 6.10774 19.7244 6.13585 19.754 6.15563C19.7836 6.17541 19.8184 6.18597 19.854 6.18597C19.8776 6.1861 19.9011 6.18158 19.9229 6.17265C19.9448 6.16373 19.9647 6.15058 19.9815 6.13396C19.9984 6.11734 20.0117 6.09756 20.0209 6.07578C20.0301 6.05399 20.0348 6.0306 20.035 6.00697L20.034 6.00597ZM21.606 5.51197C21.606 5.37867 21.5664 5.24835 21.4924 5.13751C21.4183 5.02667 21.3131 4.94029 21.1899 4.88927C21.0668 4.83826 20.9312 4.82492 20.8005 4.85092C20.6697 4.87693 20.5497 4.94112 20.4554 5.03538C20.3611 5.12964 20.2969 5.24973 20.2709 5.38048C20.2449 5.51122 20.2583 5.64674 20.3093 5.7699C20.3603 5.89305 20.4467 5.99832 20.5575 6.07238C20.6684 6.14644 20.7987 6.18597 20.932 6.18597C21.0205 6.1861 21.1082 6.1688 21.19 6.13505C21.2718 6.1013 21.3462 6.05176 21.4089 5.98927C21.4715 5.92677 21.5213 5.85254 21.5553 5.77082C21.5893 5.6891 21.6068 5.60148 21.607 5.51297L21.606 5.51197Z" fill="#FCAB59"/>
</svg>
