<svg width="23" height="22" viewBox="0 0 23 22" fill="none" xmlns="http://www.w3.org/2000/svg">
<path d="M18.4359 4.276C19.2032 4.34972 19.9407 4.61106 20.5832 5.037C21.2258 5.46294 21.7537 6.04039 22.1205 6.71847C22.4872 7.39654 22.6815 8.15442 22.6863 8.92531C22.6911 9.6962 22.5062 10.4564 22.1479 11.139C21.8891 11.7543 21.6882 12.3924 21.5479 13.045C21.5288 14.7088 21.7384 16.3673 22.1709 17.974H17.4539L17.0298 16.287C16.9901 16.1293 16.8987 15.9895 16.7702 15.8898C16.6417 15.7901 16.4835 15.7363 16.3209 15.737H15.4209L15.4119 15.16H15.4799L16.7238 15.152C16.9473 15.15 17.1681 15.1041 17.3737 15.0167C17.5794 14.9293 17.7658 14.8023 17.9223 14.6428C18.0788 14.4833 18.2023 14.2946 18.2858 14.0873C18.3693 13.8801 18.4111 13.6584 18.4088 13.435L18.4029 12.735H18.4719C18.6731 12.7332 18.872 12.6916 19.0572 12.6127C19.2423 12.5338 19.41 12.419 19.5507 12.2751C19.6914 12.1312 19.8023 11.9609 19.877 11.774C19.9516 11.5871 19.9886 11.3872 19.9859 11.186V10.995C19.9806 10.5908 19.8153 10.2051 19.5263 9.9225C19.2373 9.63986 18.8481 9.48326 18.4438 9.487L18.4359 4.276Z" fill="#F9A826"/>
<path d="M18.4359 4.27602V9.49602C18.0332 9.49971 17.6483 9.66219 17.3648 9.94813C17.0813 10.2341 16.9221 10.6204 16.9219 11.023V11.045V11.236C16.927 11.6283 17.0828 12.0035 17.357 12.2841C17.6312 12.5646 18.0028 12.7289 18.3949 12.743L18.4009 13.443C18.4031 13.6664 18.3613 13.8881 18.2778 14.0953C18.1943 14.3026 18.0708 14.4913 17.9143 14.6508C17.7578 14.8103 17.5714 14.9373 17.3658 15.0247C17.1601 15.1121 16.9393 15.1581 16.7159 15.16L15.4719 15.168H15.4079L15.3979 14.514H13.6819V12.955H12.1869C12.1504 12.955 12.1146 12.9461 12.0823 12.9291C12.0501 12.9121 12.0225 12.8876 12.0018 12.8576C11.9812 12.8276 11.9681 12.7931 11.9638 12.7569C11.9594 12.7207 11.9639 12.6841 11.9769 12.65L12.9499 10.102C12.9499 10.102 12.9499 9.14102 12.9579 9.04902C13.0294 7.74471 13.6017 6.51838 14.5555 5.62576C15.5092 4.73315 16.7707 4.24317 18.0769 4.25802H18.2079C18.2859 4.25802 18.3619 4.26502 18.4389 4.27202L18.4359 4.27602Z" fill="#F9A826"/>
<path d="M10.227 12.892C10.2394 12.9245 10.2438 12.9595 10.2398 12.9941C10.2357 13.0287 10.2233 13.0617 10.2036 13.0905C10.1839 13.1192 10.1576 13.1427 10.1268 13.159C10.096 13.1753 10.0618 13.1839 10.027 13.184H8.59997V14.772C8.5999 14.9158 8.57097 15.0582 8.51491 15.1907C8.45885 15.3232 8.37679 15.4431 8.27358 15.5433C8.17037 15.6436 8.04811 15.7221 7.91403 15.7742C7.77995 15.8264 7.63677 15.8511 7.49297 15.847C7.41697 15.847 6.63097 15.841 6.07897 15.839C5.92382 15.8383 5.77293 15.8897 5.6504 15.9849C5.52786 16.08 5.44075 16.2135 5.40297 16.364L4.99997 17.974H0.488969C0.901748 16.4403 1.10195 14.8571 1.08397 13.269C0.95148 12.646 0.761327 12.0367 0.515969 11.449C0.164398 10.7812 -0.0128314 10.0355 0.000722972 9.28094C0.0142773 8.5264 0.218176 7.7875 0.593504 7.1328C0.968833 6.47809 1.50343 5.92878 2.14771 5.53583C2.79199 5.14287 3.52508 4.919 4.27897 4.88497H4.40397C5.65091 4.87047 6.85528 5.33802 7.76583 6.19006C8.67637 7.0421 9.22275 8.21282 9.29097 9.45798C9.29597 9.54598 9.29797 10.458 9.29797 10.458L10.227 12.892Z" fill="#525252"/>
<path d="M15.4761 15.455V14.87L16.7201 14.862C17.0935 14.858 17.4501 14.7061 17.7116 14.4395C17.9732 14.1729 18.1183 13.8134 18.1151 13.44L18.1071 12.533L18.692 12.527L18.7001 13.435C18.7033 13.9632 18.4974 14.4712 18.1274 14.8482C17.7574 15.2251 17.2532 15.4404 16.7251 15.447L15.4761 15.455Z" fill="#6B6B6B"/>
<path d="M18.144 4.26196H18.7291V9.49397H18.144V4.26196Z" fill="#6B6B6B"/>
<path d="M6.71806 3.12397C6.66339 3.12379 6.60986 3.10832 6.56352 3.0793C6.51718 3.05029 6.47989 3.00888 6.45586 2.95977C6.43182 2.91067 6.422 2.85581 6.42752 2.80142C6.43304 2.74702 6.45366 2.69526 6.48706 2.65197C7.03762 1.90958 7.73887 1.29193 8.54483 0.839509C9.35079 0.387087 10.2433 0.110112 11.1638 0.0267398C12.0843 -0.0566326 13.012 0.0554804 13.8861 0.355729C14.7603 0.655978 15.5611 1.13758 16.2361 1.76897C16.2906 1.82254 16.322 1.89531 16.3237 1.97174C16.3253 2.04817 16.297 2.12221 16.2448 2.17807C16.1926 2.23392 16.1206 2.26716 16.0443 2.27069C15.9679 2.27422 15.8932 2.24777 15.8361 2.19697C15.2209 1.62156 14.491 1.18273 13.6943 0.909299C12.8976 0.635865 12.0521 0.534004 11.2132 0.610401C10.3744 0.686798 9.56116 0.939725 8.82695 1.35258C8.09274 1.76544 7.45414 2.3289 6.95306 3.00597C6.92574 3.04285 6.89018 3.07283 6.8492 3.09349C6.80822 3.11415 6.76297 3.12494 6.71707 3.12497L6.71806 3.12397Z" fill="#FF9529"/>
<path d="M9.632 21.16C7.96704 21.16 6.36412 20.5281 5.147 19.392C5.09246 19.3384 5.06103 19.2657 5.05939 19.1892C5.05776 19.1128 5.08606 19.0388 5.13826 18.9829C5.19046 18.927 5.26242 18.8938 5.33878 18.8903C5.41515 18.8867 5.48987 18.9132 5.547 18.964C6.16215 19.5394 6.89203 19.9782 7.68874 20.2517C8.48545 20.5251 9.33098 20.627 10.1698 20.5506C11.0087 20.4742 11.8219 20.2212 12.5561 19.8084C13.2903 19.3955 13.9289 18.8321 14.43 18.155C14.4524 18.1224 14.4812 18.0946 14.5147 18.0734C14.5481 18.0523 14.5855 18.0381 14.6246 18.0317C14.6637 18.0254 14.7036 18.027 14.742 18.0366C14.7805 18.0461 14.8166 18.0633 14.8482 18.0872C14.8797 18.1111 14.9061 18.1411 14.9258 18.1755C14.9455 18.2098 14.9579 18.2478 14.9625 18.2872C14.9671 18.3265 14.9636 18.3663 14.9524 18.4043C14.9411 18.4422 14.9223 18.4775 14.897 18.508C14.2876 19.3304 13.4941 19.9986 12.58 20.4592C11.6658 20.9197 10.6566 21.1597 9.633 21.16H9.632Z" fill="#525252"/>
<path d="M18.3979 12.7409C18.0058 12.7268 17.6342 12.5625 17.36 12.282C17.0858 12.0014 16.93 11.6262 16.9248 11.2339V11.0429V11.0219C16.9223 10.6165 17.0809 10.2268 17.3658 9.93832C17.6507 9.64989 18.0385 9.48644 18.4438 9.48392C18.8492 9.4814 19.239 9.64003 19.5274 9.9249C19.8159 10.2098 19.9793 10.5975 19.9818 11.0029V11.1939C19.9846 11.3952 19.9476 11.595 19.8729 11.7819C19.7983 11.9688 19.6874 12.1391 19.5467 12.283C19.406 12.427 19.2383 12.5417 19.0532 12.6206C18.868 12.6995 18.6691 12.7411 18.4678 12.7429L18.3979 12.7409Z" fill="#525252"/>
<path d="M15.4159 15.741V15.856L13.3829 15.887C13.2924 15.8886 13.2024 15.8723 13.1182 15.8391C13.034 15.8058 12.9572 15.7563 12.8922 15.6933C12.8271 15.6303 12.7751 15.5551 12.7392 15.472C12.7033 15.3889 12.6842 15.2995 12.6829 15.209V15.199C12.6828 15.0179 12.7542 14.8441 12.8815 14.7153C13.0088 14.5865 13.1818 14.5131 13.3629 14.511H15.3919L15.4019 15.165L15.4159 15.741Z" fill="#525252"/>
<path d="M14.6659 18.3289L13.3188 17.4519L15.5619 16.9769L16.0369 19.2209L14.6659 18.3289Z" fill="#6B6B6B"/>
<path d="M6.71793 2.83097L8.06493 3.70797L5.82192 4.18296L5.34692 1.93896L6.71793 2.83097Z" fill="#FF9529"/>
</svg>
