<svg width="25" height="24" viewBox="0 0 25 24" fill="none" xmlns="http://www.w3.org/2000/svg">
<path d="M10.0239 22.76C10.0239 23.0889 10.1546 23.4043 10.3871 23.6368C10.6196 23.8694 10.935 24 11.2639 24H12.9239C13.2528 24 13.5682 23.8694 13.8007 23.6368C14.0333 23.4043 14.1639 23.0889 14.1639 22.76V20.28H10.0239V22.76Z" fill="#EBEBEB"/>
<path d="M8.081 15.798C7.71956 15.5648 7.37896 15.3008 7.063 15.009C6.96576 15.3823 6.76581 15.7208 6.48583 15.9862C6.20585 16.2516 5.85708 16.4332 5.4791 16.5103C5.10112 16.5874 4.70909 16.557 4.34752 16.4226C3.98595 16.2881 3.66932 16.055 3.43359 15.7496C3.19786 15.4442 3.05247 15.0789 3.01393 14.6951C2.97539 14.3112 3.04525 13.9243 3.21556 13.5781C3.38588 13.232 3.64983 12.9406 3.97745 12.7369C4.30507 12.5332 4.68323 12.4255 5.069 12.426C5.132 12.426 5.193 12.439 5.253 12.445C4.86104 11.5242 4.659 10.5337 4.659 9.53296H4.133L3.847 10.891C3.83302 10.9576 3.80278 11.0198 3.75896 11.0719C3.71515 11.1241 3.65912 11.1645 3.59587 11.1898C3.53261 11.215 3.4641 11.2242 3.39643 11.2166C3.32876 11.2089 3.26403 11.1847 3.208 11.146L2.066 10.359L0.826 11.599L1.611 12.741C1.64972 12.797 1.67398 12.8617 1.68162 12.9294C1.68927 12.9971 1.68006 13.0656 1.65482 13.1288C1.62958 13.1921 1.58909 13.2481 1.53695 13.2919C1.48481 13.3357 1.42265 13.366 1.356 13.38L0 13.666V15.321L1.358 15.607C1.42465 15.6209 1.48681 15.6512 1.53895 15.695C1.59109 15.7388 1.63158 15.7948 1.65682 15.8581C1.68206 15.9213 1.69127 15.9899 1.68362 16.0575C1.67598 16.1252 1.65172 16.1899 1.613 16.246L0.826 17.388L2.066 18.628L3.208 17.843C3.26409 17.8042 3.3289 17.78 3.39663 17.7724C3.46437 17.7648 3.53293 17.7741 3.5962 17.7995C3.65947 17.8248 3.71549 17.8654 3.75925 17.9177C3.80301 17.97 3.83315 18.0322 3.847 18.099L4.132 19.456H5.786L6.071 18.097C6.08498 18.0303 6.11522 17.9682 6.15904 17.916C6.20285 17.8639 6.25888 17.8234 6.32213 17.7981C6.38539 17.7729 6.4539 17.7637 6.52157 17.7713C6.58924 17.779 6.65397 17.8032 6.71 17.842L7.852 18.63L9.152 17.33C9.08466 17.0163 8.95531 16.7194 8.77156 16.4564C8.58781 16.1935 8.35337 15.97 8.082 15.799L8.081 15.798Z" fill="#6B6B6B"/>
<path d="M19.535 9.53314C19.5348 8.24184 19.1985 6.97284 18.5592 5.85091C17.9198 4.72899 16.9995 3.79278 15.8887 3.13435C14.7779 2.47592 13.5148 2.11793 12.2237 2.0956C10.9326 2.07326 9.65791 2.38735 8.52498 3.00697C7.39206 3.62659 6.43991 4.53042 5.76217 5.62956C5.08442 6.7287 4.70442 7.98531 4.65953 9.27583C4.61464 10.5663 4.9064 11.8463 5.50613 12.9899C6.10586 14.1335 6.9929 15.1013 8.08003 15.7981C8.41844 16.0077 8.69863 16.2991 8.89472 16.6455C9.09081 16.9919 9.1965 17.3821 9.20203 17.7801V19.4501C9.20203 19.779 9.33268 20.0944 9.56522 20.327C9.79777 20.5595 10.1132 20.6901 10.442 20.6901H13.749C14.0779 20.6901 14.3933 20.5595 14.6258 20.327C14.8584 20.0944 14.989 19.779 14.989 19.4501V17.8171C14.9938 17.4088 15.1011 17.0083 15.3012 16.6523C15.5013 16.2964 15.7877 15.9964 16.134 15.7801C17.1779 15.1058 18.0361 14.1804 18.6301 13.0887C19.224 11.9971 19.5348 10.7739 19.534 9.53114L19.535 9.53314Z" fill="#FFB41F"/>
<path d="M22.095 5.15996L23.395 4.18496L21.907 2.20096L20.607 3.17596C20.4761 3.27375 20.3193 3.33061 20.1562 3.33937C19.9931 3.34812 19.8311 3.30839 19.6905 3.22517C19.55 3.14196 19.4372 3.01899 19.3665 2.87178C19.2957 2.72456 19.2701 2.55969 19.293 2.39796L19.522 0.789965L17.067 0.438965L16.838 2.04596C16.8147 2.2078 16.7441 2.35911 16.6349 2.4808C16.5257 2.60248 16.3829 2.68907 16.2245 2.72963C16.0661 2.77019 15.8993 2.76289 15.745 2.70867C15.5908 2.65444 15.4561 2.55571 15.358 2.42496L14.384 1.12696L12.4 2.61496L13.374 3.91496C13.4717 4.04579 13.5286 4.20264 13.5374 4.36574C13.5461 4.52884 13.5064 4.69088 13.4232 4.83142C13.34 4.97197 13.217 5.08472 13.0698 5.15547C12.9226 5.22622 12.7577 5.25179 12.596 5.22896L10.988 4.99996L10.637 7.45496L12.245 7.68396C12.4068 7.70719 12.5581 7.77786 12.6798 7.88705C12.8015 7.99623 12.8881 8.13904 12.9286 8.29742C12.9692 8.4558 12.9619 8.62264 12.9077 8.77688C12.8534 8.93111 12.7547 9.06582 12.624 9.16397L11.324 10.139L12.812 12.123L14.112 11.149C14.2428 11.0512 14.3996 10.9943 14.5627 10.9856C14.7258 10.9768 14.8879 11.0165 15.0284 11.0998C15.169 11.183 15.2817 11.3059 15.3525 11.4532C15.4232 11.6004 15.4488 11.7652 15.426 11.927L15.195 13.534L17.65 13.885L17.881 12.277C17.9042 12.1151 17.9749 11.9638 18.084 11.8421C18.1932 11.7204 18.336 11.6339 18.4944 11.5933C18.6528 11.5527 18.8196 11.56 18.9739 11.6143C19.1281 11.6685 19.2628 11.7672 19.361 11.898L20.336 13.198L22.32 11.71L21.345 10.41C21.2472 10.2791 21.1903 10.1223 21.1816 9.95919C21.1728 9.79609 21.2125 9.63405 21.2957 9.49351C21.379 9.35296 21.5019 9.24021 21.6492 9.16946C21.7964 9.09871 21.9612 9.07314 22.123 9.09596L23.731 9.32596L24.082 6.87097L22.474 6.64096C22.3124 6.61755 22.1613 6.54683 22.0399 6.43771C21.9184 6.32859 21.832 6.18597 21.7914 6.0278C21.7509 5.86964 21.7581 5.70301 21.8121 5.54893C21.8661 5.39485 21.9645 5.26021 22.095 5.16196V5.15996ZM17.36 10.055C16.7878 10.055 16.2285 9.88529 15.7527 9.56741C15.2769 9.24952 14.9061 8.79769 14.6872 8.26907C14.4682 7.74044 14.4109 7.15876 14.5226 6.59757C14.6342 6.03638 14.9097 5.5209 15.3143 5.1163C15.7189 4.71171 16.2344 4.43618 16.7956 4.32455C17.3567 4.21293 17.9384 4.27022 18.4671 4.48918C18.9957 4.70815 19.4475 5.07895 19.7654 5.5547C20.0833 6.03045 20.253 6.58978 20.253 7.16196C20.253 7.54188 20.1781 7.91807 20.0327 8.26907C19.8874 8.62006 19.6743 8.93898 19.4056 9.20762C19.137 9.47626 18.8181 9.68936 18.4671 9.83475C18.1161 9.98013 17.7399 10.055 17.36 10.055V10.055Z" fill="#525252"/>
<path d="M10.0239 21.52H14.1569V22.347H10.0239V21.52Z" fill="#9E9E9E"/>
<path d="M11.677 18.2131H12.504V19.4532H11.677V18.2131Z" fill="#FFAA00"/>
<path d="M12.5082 17.387H11.6812C11.681 16.853 11.5189 16.3317 11.2163 15.8918C10.9137 15.4519 10.4848 15.1141 9.98621 14.923C8.98885 14.5328 8.11931 13.8736 7.47438 13.0186C6.82945 12.1636 6.43442 11.1464 6.33325 10.0803C6.23209 9.01412 6.42876 7.9408 6.90138 6.97977C7.374 6.01875 8.10403 5.20772 9.01021 4.63696L9.4492 5.33697C8.67198 5.82596 8.04576 6.52111 7.64028 7.345C7.23481 8.16889 7.066 9.08916 7.15267 10.0033C7.23934 10.9175 7.57808 11.7896 8.13116 12.5226C8.68423 13.2557 9.42994 13.8207 10.2852 14.155C10.9396 14.4053 11.5025 14.8485 11.8994 15.4258C12.2964 16.0031 12.5087 16.6873 12.5082 17.388V17.387Z" fill="#FFAA00"/>
<path d="M20.362 15.3201H22.429C22.5387 15.3201 22.6438 15.3636 22.7214 15.4412C22.7989 15.5187 22.8425 15.6239 22.8425 15.7336C22.8425 15.8432 22.7989 15.9484 22.7214 16.026C22.6438 16.1035 22.5387 16.1471 22.429 16.1471H20.362C20.2523 16.1471 20.1472 16.1035 20.0696 16.026C19.9921 15.9484 19.9485 15.8432 19.9485 15.7336C19.9485 15.6239 19.9921 15.5187 20.0696 15.4412C20.1472 15.3636 20.2523 15.3201 20.362 15.3201V15.3201Z" fill="#FFAA00"/>
<path d="M19.5351 17.8C19.5698 17.7583 19.6124 17.7238 19.6604 17.6985C19.7085 17.6733 19.761 17.6577 19.8151 17.6528C19.8691 17.6479 19.9236 17.6537 19.9754 17.6699C20.0272 17.686 20.0754 17.7122 20.1171 17.747L21.9621 19.284C22.0038 19.3187 22.0382 19.3613 22.0634 19.4094C22.0886 19.4574 22.1042 19.5099 22.1091 19.564C22.114 19.618 22.1082 19.6725 22.0921 19.7243C22.076 19.7761 22.0498 19.8243 22.015 19.866C21.9803 19.9077 21.9377 19.9421 21.8897 19.9673C21.8416 19.9926 21.7891 20.0081 21.735 20.013C21.681 20.0179 21.6265 20.0122 21.5747 19.996C21.5229 19.9799 21.4747 19.9537 21.433 19.919L19.588 18.3819C19.5463 18.3472 19.5119 18.3047 19.4866 18.2566C19.4614 18.2086 19.4458 18.156 19.4409 18.1019C19.436 18.0479 19.4418 17.9934 19.4579 17.9416C19.4741 17.8898 19.5003 17.8417 19.5351 17.8V17.8Z" fill="#FFAA00"/>
<path d="M17.882 18.627C17.9363 18.627 17.99 18.6377 18.0401 18.6584C18.0902 18.6792 18.1357 18.7096 18.174 18.7479C18.2124 18.7863 18.2428 18.8318 18.2636 18.8819C18.2843 18.932 18.295 18.9857 18.295 19.04V21.107C18.295 21.2166 18.2514 21.3218 18.1739 21.3994C18.0963 21.4769 17.9912 21.5205 17.8815 21.5205C17.7718 21.5205 17.6667 21.4769 17.5891 21.3994C17.5116 21.3218 17.468 21.2166 17.468 21.107V19.04C17.468 18.9857 17.4787 18.9319 17.4995 18.8817C17.5204 18.8315 17.5509 18.786 17.5893 18.7476C17.6278 18.7092 17.6734 18.6788 17.7237 18.6581C17.7739 18.6374 17.8277 18.6268 17.882 18.627V18.627Z" fill="#FFAA00"/>
<path d="M0.410116 6.96412L2.91012 6.33812C2.9638 6.32135 3.02035 6.31572 3.07629 6.32158C3.13223 6.32744 3.18638 6.34467 3.23542 6.3722C3.28447 6.39974 3.32737 6.437 3.36151 6.4817C3.39564 6.5264 3.42028 6.5776 3.43393 6.63217C3.44757 6.68673 3.44992 6.74352 3.44084 6.79902C3.43176 6.85453 3.41143 6.90759 3.38112 6.95497C3.3508 7.00234 3.31112 7.04303 3.26452 7.07452C3.21792 7.10602 3.16538 7.12766 3.11012 7.13813L0.610116 7.76413C0.55643 7.7809 0.499883 7.78652 0.443945 7.78066C0.388006 7.7748 0.333853 7.75758 0.284808 7.73005C0.235763 7.70251 0.192858 7.66525 0.158724 7.62055C0.12459 7.57585 0.0999472 7.52464 0.0863058 7.47007C0.0726644 7.41551 0.0703121 7.35873 0.0793933 7.30323C0.0884745 7.24772 0.108798 7.19466 0.139117 7.14728C0.169436 7.09991 0.209112 7.05922 0.255712 7.02773C0.302312 6.99623 0.354854 6.97459 0.410116 6.96412V6.96412Z" fill="#FFAA00"/>
<path d="M0.935107 2.50708C0.966329 2.46265 1.00601 2.42482 1.05187 2.39574C1.09773 2.36667 1.14887 2.34692 1.20237 2.33763C1.25587 2.32834 1.31068 2.32969 1.36365 2.34161C1.41663 2.35353 1.46674 2.37578 1.51111 2.40708L3.73111 3.99308C3.77648 4.02409 3.8152 4.06384 3.84501 4.11001C3.87482 4.15618 3.89512 4.20783 3.90472 4.26194C3.91431 4.31605 3.91301 4.37153 3.90089 4.42513C3.88877 4.47874 3.86607 4.52938 3.83413 4.5741C3.80219 4.61882 3.76165 4.65671 3.71487 4.68556C3.6681 4.71441 3.61604 4.73364 3.56174 4.74211C3.50744 4.75058 3.452 4.74813 3.39866 4.73491C3.34532 4.72168 3.29516 4.69794 3.25111 4.66508L1.03111 3.07908C0.943153 3.01548 0.883771 2.91981 0.865806 2.81277C0.84784 2.70573 0.872735 2.59591 0.935107 2.50708V2.50708Z" fill="#FFAA00"/>
<path d="M4.6371 0.0260819C4.74317 -0.000249326 4.85537 0.0165405 4.94909 0.0727727C5.04281 0.129005 5.11041 0.220094 5.1371 0.326082L5.7781 2.83208C5.79487 2.88577 5.8005 2.94231 5.79464 2.99825C5.78878 3.05419 5.77155 3.10834 5.74402 3.15739C5.71648 3.20644 5.67923 3.24934 5.63453 3.28347C5.58982 3.31761 5.53862 3.34225 5.48405 3.35589C5.42949 3.36953 5.3727 3.37189 5.3172 3.3628C5.26169 3.35372 5.20863 3.3334 5.16125 3.30308C5.11388 3.27276 5.0732 3.23309 5.04171 3.18649C5.01021 3.13989 4.98857 3.08734 4.9781 3.03208L4.33809 0.529082C4.31176 0.423005 4.32855 0.310817 4.38479 0.217096C4.44102 0.123376 4.53211 0.0557668 4.6381 0.0290819L4.6371 0.0260819Z" fill="#FFAA00"/>
</svg>
