<svg width="22" height="19" viewBox="0 0 22 19" fill="none" xmlns="http://www.w3.org/2000/svg">
<path d="M20.889 2.23895V11.8569C20.889 12.2916 20.7163 12.7085 20.409 13.0159C20.1016 13.3233 19.6847 13.4959 19.25 13.4959H10.243C10.0278 13.4959 9.81464 13.4535 9.61578 13.3712C9.41693 13.2888 9.23624 13.1681 9.08405 13.0159C8.93185 12.8637 8.81113 12.683 8.72876 12.4842C8.64639 12.2853 8.604 12.0722 8.604 11.8569V2.23895C8.604 1.82256 8.76941 1.42322 9.06384 1.12878C9.35827 0.834352 9.75761 0.668945 10.174 0.668945H19.319C19.7354 0.668945 20.1347 0.834352 20.4292 1.12878C20.7236 1.42322 20.889 1.82256 20.889 2.23895V2.23895Z" fill="#F9A826"/>
<path d="M19.3189 0.665039H18.2069C18.6233 0.665039 19.0227 0.83045 19.3171 1.12488C19.6115 1.41931 19.7769 1.81865 19.7769 2.23504V11.853C19.7769 12.2877 19.6043 12.7046 19.2969 13.012C18.9895 13.3194 18.5726 13.492 18.1379 13.492H19.2499C19.6846 13.492 20.1015 13.3194 20.4089 13.012C20.7163 12.7046 20.8889 12.2877 20.8889 11.853V2.23904C20.8895 2.03253 20.8493 1.82794 20.7706 1.637C20.6919 1.44605 20.5764 1.27251 20.4305 1.12629C20.2847 0.980081 20.1114 0.864081 19.9207 0.784931C19.7299 0.705781 19.5255 0.665038 19.3189 0.665039V0.665039Z" fill="#FF9529"/>
<path d="M17.988 7.11714V16.7351C17.988 17.1698 17.8154 17.5867 17.508 17.8941C17.2006 18.2015 16.7837 18.3741 16.349 18.3741H1.95004C1.73471 18.3741 1.5215 18.3317 1.32259 18.2493C1.12367 18.1669 0.942942 18.046 0.790734 17.8937C0.638525 17.7414 0.517819 17.5606 0.43551 17.3617C0.353201 17.1627 0.310904 16.9495 0.311035 16.7341V7.11613C0.311035 6.69974 0.476446 6.30041 0.770878 6.00598C1.06531 5.71155 1.46465 5.54614 1.88104 5.54614H16.418C16.6243 5.54614 16.8285 5.58678 17.0191 5.66574C17.2096 5.7447 17.3827 5.86044 17.5285 6.00633C17.6743 6.15223 17.79 6.32543 17.8688 6.51602C17.9477 6.70662 17.9882 6.91088 17.988 7.11714V7.11714Z" fill="#525252"/>
<path d="M16.418 5.54712H15.279C15.4852 5.54699 15.6894 5.58751 15.8799 5.66637C16.0705 5.74522 16.2436 5.86085 16.3894 6.00667C16.5352 6.15248 16.6509 6.32562 16.7297 6.51616C16.8086 6.7067 16.8491 6.91091 16.849 7.11713V16.7351C16.849 17.1698 16.6763 17.5867 16.3689 17.8941C16.0616 18.2014 15.6447 18.3741 15.21 18.3741H16.349C16.7837 18.3741 17.2005 18.2014 17.5079 17.8941C17.8153 17.5867 17.988 17.1698 17.988 16.7351V7.11713C17.988 6.70074 17.8226 6.30141 17.5281 6.00697C17.2337 5.71254 16.8344 5.54712 16.418 5.54712V5.54712Z" fill="#6B6B6B"/>
<path d="M17.988 7.11713V7.83812H0.311035V7.11713C0.311035 6.70074 0.476445 6.30141 0.770877 6.00697C1.06531 5.71254 1.46464 5.54712 1.88103 5.54712H16.418C16.8344 5.54712 17.2338 5.71254 17.5282 6.00697C17.8226 6.30141 17.988 6.70074 17.988 7.11713V7.11713Z" fill="#525252"/>
<path d="M16.419 5.54712H15.28C15.6964 5.54712 16.0958 5.71254 16.3902 6.00697C16.6846 6.30141 16.85 6.70074 16.85 7.11713V7.83812H17.989V7.11713C17.989 6.70074 17.8236 6.30141 17.5292 6.00697C17.2347 5.71254 16.8354 5.54712 16.419 5.54712V5.54712Z" fill="#6B6B6B"/>
<path d="M20.889 2.23895V2.95994H8.60498V2.23895C8.60498 1.82256 8.77039 1.42322 9.06482 1.12878C9.35925 0.834352 9.7586 0.668945 10.175 0.668945H19.32C19.7362 0.66921 20.1353 0.834736 20.4295 1.12914C20.7237 1.42354 20.889 1.82273 20.889 2.23895V2.23895Z" fill="#6B6B6B"/>
<path d="M19.32 0.665042H18.209C18.6254 0.665042 19.0247 0.830453 19.3191 1.12488C19.6136 1.41932 19.779 1.81865 19.779 2.23504V2.95604H20.893V2.23504C20.893 2.02861 20.8523 1.82421 20.7732 1.63354C20.6941 1.44286 20.5782 1.26965 20.4321 1.12382C20.286 0.977997 20.1125 0.862414 19.9217 0.78369C19.7309 0.704967 19.5264 0.664647 19.32 0.665042V0.665042Z" fill="#525252"/>
<path d="M5.74691 16.569C7.76828 16.569 9.40691 14.9304 9.40691 12.909C9.40691 10.8877 7.76828 9.24902 5.74691 9.24902C3.72555 9.24902 2.08691 10.8877 2.08691 12.909C2.08691 14.9304 3.72555 16.569 5.74691 16.569Z" fill="#F9A826"/>
<path d="M5.74794 9.24902C5.57531 9.24892 5.40288 9.26094 5.23193 9.28502C6.10524 9.40842 6.90461 9.84303 7.48299 10.5089C8.06138 11.1747 8.37986 12.0271 8.37986 12.909C8.37986 13.791 8.06138 14.6433 7.48299 15.3092C6.90461 15.975 6.10524 16.4096 5.23193 16.533C5.72909 16.6033 6.23539 16.5705 6.71933 16.4367C7.20327 16.3029 7.6545 16.0709 8.04496 15.7553C8.43542 15.4396 8.75676 15.047 8.98899 14.6018C9.22122 14.1567 9.35936 13.6685 9.39484 13.1676C9.43032 12.6668 9.36238 12.164 9.19523 11.6906C9.02808 11.2171 8.76529 10.7831 8.42323 10.4156C8.08116 10.048 7.66713 9.75478 7.20689 9.55409C6.74664 9.35341 6.25004 9.24956 5.74794 9.24902Z" fill="#FF9529"/>
<path d="M18.0239 17.5581L15.2749 14.8091H16.4189C16.5947 14.8091 16.7631 14.7393 16.8874 14.6151C17.0116 14.4908 17.0815 14.3223 17.0815 14.1466C17.0815 13.9709 17.0116 13.8024 16.8874 13.6782C16.7631 13.5539 16.5947 13.4841 16.4189 13.4841H13.6759C13.5004 13.4852 13.3324 13.5554 13.2083 13.6795C13.0842 13.8036 13.014 13.9716 13.0129 14.1471V16.8871C13.0129 17.0628 13.0827 17.2313 13.207 17.3556C13.3312 17.4798 13.4997 17.5496 13.6754 17.5496C13.8512 17.5496 14.0196 17.4798 14.1439 17.3556C14.2681 17.2313 14.338 17.0628 14.338 16.8871V15.7431L17.0869 18.4921C17.2127 18.6134 17.3807 18.6812 17.5555 18.6812C17.7302 18.6812 17.8981 18.6134 18.0239 18.4921C18.1472 18.3679 18.2163 18.2001 18.2163 18.0251C18.2163 17.8502 18.1472 17.6823 18.0239 17.5581Z" fill="#FF9529"/>
<path d="M16.212 14.1779C16.2005 14.3499 16.1237 14.511 15.9973 14.6281C15.8708 14.7453 15.7043 14.8096 15.532 14.8079H16.422C16.5977 14.8079 16.7662 14.7381 16.8904 14.6139C17.0147 14.4896 17.0845 14.3211 17.0845 14.1454C17.0845 13.9697 17.0147 13.8012 16.8904 13.677C16.7662 13.5527 16.5977 13.4829 16.422 13.4829H15.554C15.6434 13.4835 15.7318 13.5021 15.8138 13.5378C15.8958 13.5734 15.9698 13.6252 16.0312 13.6901C16.0927 13.755 16.1404 13.8317 16.1714 13.9155C16.2025 13.9994 16.2163 14.0886 16.212 14.1779V14.1779Z" fill="#D67007"/>
<path d="M18.022 17.5569L15.2741 14.8079H14.6531C14.6322 14.8064 14.6113 14.8115 14.5935 14.8225C14.5756 14.8335 14.5617 14.8498 14.5536 14.8691C14.5455 14.8885 14.5438 14.9099 14.5485 14.9303C14.5532 14.9507 14.5643 14.9691 14.5801 14.9829L17.1541 17.5569C17.25 17.6528 17.3142 17.7759 17.338 17.9095C17.3617 18.043 17.344 18.1807 17.2871 18.3039V18.3039C17.2723 18.3334 17.2506 18.3591 17.2239 18.3786C17.1973 18.3981 17.1663 18.411 17.1337 18.4162C17.101 18.4214 17.0676 18.4187 17.0362 18.4084C17.0048 18.3981 16.9763 18.3804 16.953 18.3569L16.87 18.2749C16.9253 18.3719 17.001 18.4556 17.092 18.5204C17.1829 18.5852 17.2868 18.6294 17.3965 18.6499C17.5062 18.6705 17.6191 18.6669 17.7273 18.6394C17.8355 18.612 17.9364 18.5613 18.023 18.4909C18.1461 18.3666 18.2151 18.1986 18.2149 18.0237C18.2148 17.8487 18.1454 17.681 18.022 17.5569V17.5569Z" fill="#D67007"/>
<path d="M15.0601 12.3781H11.8021C11.6549 12.3781 11.5137 12.3197 11.4096 12.2156C11.3055 12.1115 11.2471 11.9703 11.2471 11.8231V11.3731C11.2471 11.2259 11.3055 11.0848 11.4096 10.9807C11.5137 10.8766 11.6549 10.8181 11.8021 10.8181H15.0601C15.2073 10.8181 15.3484 10.8766 15.4525 10.9807C15.5566 11.0848 15.6151 11.2259 15.6151 11.3731V11.8231C15.6151 11.9703 15.5566 12.1115 15.4525 12.2156C15.3484 12.3197 15.2073 12.3781 15.0601 12.3781Z" fill="#FF9529"/>
<path d="M15.0609 10.8181H13.9199C14.0671 10.8181 14.2083 10.8766 14.3124 10.9807C14.4165 11.0848 14.4749 11.2259 14.4749 11.3731V11.8231C14.4749 11.9703 14.4165 12.1115 14.3124 12.2156C14.2083 12.3197 14.0671 12.3781 13.9199 12.3781H15.0609C15.2081 12.3781 15.3493 12.3197 15.4534 12.2156C15.5575 12.1115 15.6159 11.9703 15.6159 11.8231V11.3731C15.6159 11.2259 15.5575 11.0848 15.4534 10.9807C15.3493 10.8766 15.2081 10.8181 15.0609 10.8181Z" fill="#FCAB59"/>
<path d="M3.87597 6.40699H2.39796C2.35571 6.4046 2.3134 6.41085 2.27365 6.42537C2.23389 6.43989 2.19752 6.46237 2.16675 6.49144C2.13599 6.5205 2.11148 6.55555 2.09473 6.59442C2.07798 6.63329 2.06934 6.67517 2.06934 6.7175C2.06934 6.75982 2.07798 6.8017 2.09473 6.84057C2.11148 6.87944 2.13599 6.91449 2.16675 6.94355C2.19752 6.97262 2.23389 6.9951 2.27365 7.00962C2.3134 7.02414 2.35571 7.0304 2.39796 7.028H3.87696C3.91922 7.0304 3.96152 7.02414 4.00128 7.00962C4.04104 6.9951 4.07742 6.97262 4.10818 6.94355C4.13895 6.91449 4.16345 6.87944 4.1802 6.84057C4.19695 6.8017 4.20559 6.75982 4.20559 6.7175C4.20559 6.67517 4.19695 6.63329 4.1802 6.59442C4.16345 6.55555 4.13895 6.5205 4.10818 6.49144C4.07742 6.46237 4.04104 6.43989 4.00128 6.42537C3.96152 6.41085 3.91922 6.4046 3.87696 6.40699H3.87597Z" fill="#6B6B6B"/>
<path d="M19.319 0.35498H10.174C9.67556 0.35551 9.19768 0.553751 8.84522 0.906204C8.49277 1.25866 8.29453 1.73654 8.294 2.23498V2.23498V4.10498C8.2985 4.18428 8.33318 4.25886 8.39091 4.31341C8.44865 4.36796 8.52507 4.39835 8.6045 4.39835C8.68393 4.39835 8.76035 4.36796 8.81809 4.31341C8.87582 4.25886 8.9105 4.18428 8.915 4.10498V3.26998H20.578V11.855C20.578 12.2074 20.4382 12.5454 20.1892 12.7947C19.9402 13.0441 19.6024 13.1845 19.25 13.185H18.3V7.11698C18.2992 6.61862 18.1009 6.14089 17.7485 5.78849C17.3961 5.4361 16.9184 5.23777 16.42 5.23698H1.88C1.38156 5.23751 0.903678 5.43575 0.551224 5.7882C0.19877 6.14066 0.000529416 6.61854 0 7.11698H0V16.735C0.000793444 17.2516 0.206389 17.7469 0.571725 18.1123C0.937062 18.4776 1.43234 18.6832 1.949 18.684H15.173C15.2153 18.6864 15.2576 18.6801 15.2973 18.6656C15.3371 18.6511 15.3734 18.6286 15.4042 18.5995C15.435 18.5705 15.4595 18.5354 15.4762 18.4966C15.493 18.4577 15.5016 18.4158 15.5016 18.3735C15.5016 18.3312 15.493 18.2893 15.4762 18.2504C15.4595 18.2115 15.435 18.1765 15.4042 18.1474C15.3734 18.1184 15.3371 18.0959 15.2973 18.0814C15.2576 18.0668 15.2153 18.0606 15.173 18.063H1.949C1.59695 18.0625 1.25948 17.9224 1.01055 17.6734C0.761613 17.4245 0.621529 17.087 0.621 16.735V8.14798H17.677V16.735C17.677 16.747 17.677 16.759 17.677 16.771L16.026 15.12H16.42C16.6781 15.12 16.9255 15.0175 17.108 14.835C17.2905 14.6525 17.393 14.405 17.393 14.147C17.393 13.8889 17.2905 13.6414 17.108 13.459C16.9255 13.2765 16.6781 13.174 16.42 13.174H13.673C13.5423 13.1752 13.4131 13.2023 13.2929 13.2538C13.1728 13.3053 13.064 13.3802 12.973 13.474C12.8845 13.5628 12.8148 13.6685 12.7679 13.7848C12.721 13.9011 12.6979 14.0256 12.7 14.151V16.891C12.7 17.149 12.8025 17.3965 12.985 17.579C13.1675 17.7615 13.4149 17.864 13.673 17.864C13.9311 17.864 14.1785 17.7615 14.361 17.579C14.5435 17.3965 14.646 17.149 14.646 16.891V16.497L16.865 18.716C17.0501 18.8935 17.2966 18.9926 17.553 18.9926C17.8094 18.9926 18.0559 18.8935 18.241 18.716C18.4235 18.5335 18.526 18.286 18.526 18.028C18.526 17.7699 18.4235 17.5225 18.241 17.34L18.21 17.309C18.2672 17.1234 18.2962 16.9302 18.296 16.736V13.806H19.248C19.7655 13.806 20.2619 13.6005 20.6279 13.2346C20.994 12.8688 21.1997 12.3725 21.2 11.855V2.23898C21.2003 1.99175 21.1518 1.74689 21.0574 1.51839C20.963 1.28989 20.8245 1.08223 20.6498 0.907267C20.4752 0.732308 20.2677 0.593481 20.0394 0.498718C19.811 0.403955 19.5662 0.355112 19.319 0.35498V0.35498ZM17.806 18.273C17.738 18.336 17.6487 18.3709 17.556 18.3709C17.4633 18.3709 17.374 18.336 17.306 18.273L14.559 15.526C14.5155 15.4828 14.4601 15.4534 14.3999 15.4416C14.3397 15.4298 14.2774 15.436 14.2208 15.4596C14.1641 15.4831 14.1157 15.5228 14.0816 15.5738C14.0475 15.6247 14.0292 15.6846 14.029 15.746V16.89C14.0198 16.9764 13.9789 17.0563 13.9143 17.1143C13.8497 17.1724 13.7659 17.2045 13.679 17.2045C13.5921 17.2045 13.5083 17.1724 13.4437 17.1143C13.3791 17.0563 13.3382 16.9764 13.329 16.89V14.147C13.329 14.147 13.329 14.147 13.329 14.141C13.3282 14.0979 13.3363 14.0551 13.3526 14.0152C13.3689 13.9753 13.3932 13.9392 13.424 13.909C13.4914 13.8393 13.5831 13.7985 13.68 13.795H16.424C16.5104 13.8042 16.5903 13.8451 16.6483 13.9097C16.7064 13.9743 16.7385 14.0581 16.7385 14.145C16.7385 14.2318 16.7064 14.3156 16.6483 14.3803C16.5903 14.4449 16.5104 14.4857 16.424 14.495H15.275C15.2137 14.4951 15.1538 14.5134 15.1028 14.5476C15.0518 14.5817 15.0121 14.6301 14.9886 14.6867C14.9651 14.7434 14.9588 14.8057 14.9706 14.8659C14.9825 14.9261 15.0118 14.9814 15.055 15.025L17.627 17.597C17.812 17.766 18.038 17.981 17.806 18.27V18.273ZM0.621 7.52698V7.11698C0.621 7.10298 0.621 7.08998 0.621 7.07698C0.621 7.06398 0.621 7.06098 0.621 7.05298C0.63716 6.72993 0.776843 6.42543 1.01117 6.20246C1.24549 5.97949 1.55654 5.85509 1.88 5.85498H16.418C16.7518 5.85525 17.0719 5.98797 17.308 6.22403C17.544 6.46008 17.6767 6.78015 17.677 7.11398V7.52398H0.621V7.52698ZM8.915 2.64898V2.23898C8.91553 1.90523 9.04834 1.58531 9.28434 1.34932C9.52033 1.11332 9.84025 0.980509 10.174 0.97998H19.319C19.6527 0.980509 19.9727 1.11332 20.2087 1.34932C20.4447 1.58531 20.5775 1.90523 20.578 2.23898V2.64898H8.915Z" fill="#464646"/>
<path d="M12.1721 1.52906H10.6921C10.6128 1.53357 10.5382 1.56824 10.4836 1.62598C10.4291 1.68372 10.3987 1.76013 10.3987 1.83957C10.3987 1.919 10.4291 1.99542 10.4836 2.05315C10.5382 2.11089 10.6128 2.14556 10.6921 2.15007H12.1721C12.2143 2.15247 12.2566 2.14621 12.2964 2.13169C12.3361 2.11718 12.3725 2.09469 12.4033 2.06562C12.434 2.03656 12.4585 2.00151 12.4753 1.96264C12.492 1.92377 12.5007 1.88189 12.5007 1.83957C12.5007 1.79724 12.492 1.75536 12.4753 1.71649C12.4585 1.67762 12.434 1.64258 12.4033 1.61351C12.3725 1.58444 12.3361 1.56196 12.2964 1.54744C12.2566 1.53292 12.2143 1.52667 12.1721 1.52906Z" fill="#6B6B6B"/>
<path d="M8.61902 10.1719C7.98233 9.50655 7.13385 9.08363 6.21928 8.97577C5.30471 8.86792 4.38113 9.08185 3.60713 9.58085C2.83313 10.0798 2.25701 10.8328 1.97772 11.7103C1.69842 12.5878 1.73338 13.5352 2.07658 14.3898C2.41977 15.2443 3.0498 15.9528 3.85847 16.3934C4.66714 16.834 5.60397 16.9793 6.50811 16.8043C7.41224 16.6293 8.22725 16.145 8.81318 15.4346C9.3991 14.7241 9.71938 13.8318 9.71902 12.9109C9.71594 11.8909 9.32232 10.9107 8.61902 10.1719V10.1719ZM3.50701 15.3989C3.45008 14.6362 3.52656 13.8694 3.73302 13.1329C3.97924 13.4848 4.26549 13.807 4.58602 14.0929C4.28712 14.585 4.01991 15.0958 3.78602 15.6219C3.68947 15.5526 3.59667 15.4781 3.50802 15.3989H3.50701ZM4.32102 15.9409C4.54096 15.4411 4.79247 14.9558 5.07402 14.4879C5.39689 14.7217 5.73875 14.9281 6.09601 15.1049C5.6288 15.5036 5.09405 15.8155 4.51702 16.0259C4.45202 15.9989 4.38602 15.9709 4.32202 15.9409H4.32102ZM5.22101 13.8229C4.73826 13.4309 4.33152 12.9537 4.02101 12.4149C4.32646 11.7906 4.78166 11.2516 5.34601 10.8459C5.95346 10.4115 6.64996 10.1178 7.38502 9.98591C7.56656 10.0875 7.7383 10.2056 7.89802 10.3389C7.49997 10.6535 7.12066 10.9911 6.76202 11.3499C6.70394 11.4082 6.67134 11.4871 6.67134 11.5694C6.67134 11.6517 6.70394 11.7306 6.76202 11.7889C6.82139 11.8449 6.89991 11.8761 6.98152 11.8761C7.06312 11.8761 7.14164 11.8449 7.20101 11.7889C7.55978 11.4296 7.94052 11.093 8.34102 10.7809C8.43325 10.8933 8.51809 11.0115 8.59502 11.1349C8.19145 12.4405 7.50596 13.6415 6.58702 14.6529C6.09731 14.4355 5.63728 14.1566 5.21802 13.8229H5.22101ZM6.35902 9.6169C5.87533 9.78952 5.41796 10.0285 5.00001 10.3269C4.47725 10.7018 4.03516 11.1778 3.70002 11.7269C3.55265 11.3328 3.46469 10.9189 3.43902 10.4989C3.82139 10.1305 4.2862 9.85875 4.79478 9.70621C5.30336 9.55367 5.84101 9.52477 6.36302 9.62191L6.35902 9.6169ZM2.89302 11.1629C2.98179 11.6071 3.12837 12.0378 3.32902 12.4439C3.05178 13.1452 2.90046 13.89 2.88201 14.6439C2.56397 14.1186 2.39675 13.5159 2.39869 12.9019C2.40063 12.2878 2.57166 11.6862 2.89302 11.1629V11.1629ZM5.52402 16.2509C5.95726 16.0106 6.36014 15.7192 6.72402 15.3829C7.02402 15.5039 7.32401 15.6059 7.61801 15.6899C7.06657 16.0621 6.41631 16.2606 5.75102 16.2599C5.67102 16.2599 5.59301 16.2559 5.52101 16.2509H5.52402ZM8.19002 15.2009C7.85359 15.1186 7.52179 15.0185 7.19602 14.9009C7.59217 14.4578 7.94137 13.9749 8.23802 13.4599C8.51741 12.9795 8.75882 12.478 8.96002 11.9599C9.12658 12.5205 9.14303 13.115 9.00772 13.6839C8.87242 14.2529 8.59011 14.7763 8.18902 15.2019L8.19002 15.2009Z" fill="#525252"/>
<path d="M16.127 6.42896C16.0665 6.42896 16.0073 6.44691 15.957 6.48053C15.9067 6.51415 15.8675 6.56193 15.8443 6.61784C15.8212 6.67376 15.8151 6.73529 15.8269 6.79465C15.8387 6.85401 15.8679 6.90853 15.9107 6.95132C15.9535 6.99412 16.008 7.02327 16.0673 7.03508C16.1267 7.04689 16.1882 7.04081 16.2441 7.01765C16.3 6.99449 16.3478 6.95527 16.3815 6.90495C16.4151 6.85463 16.433 6.79548 16.433 6.73495C16.433 6.6538 16.4008 6.57597 16.3434 6.51859C16.286 6.4612 16.2082 6.42896 16.127 6.42896Z" fill="#6B6B6B"/>
<path d="M15.1649 6.42896C15.1044 6.42896 15.0452 6.44691 14.9949 6.48053C14.9445 6.51415 14.9053 6.56193 14.8822 6.61784C14.859 6.67376 14.853 6.73529 14.8648 6.79465C14.8766 6.85401 14.9057 6.90853 14.9485 6.95132C14.9913 6.99412 15.0458 7.02327 15.1052 7.03508C15.1645 7.04689 15.2261 7.04081 15.282 7.01765C15.3379 6.99449 15.3857 6.95527 15.4193 6.90495C15.4529 6.85463 15.4709 6.79548 15.4709 6.73495C15.4709 6.6538 15.4386 6.57597 15.3813 6.51859C15.3239 6.4612 15.246 6.42896 15.1649 6.42896V6.42896Z" fill="#6B6B6B"/>
<path d="M19.2101 2.14594C19.3791 2.14594 19.5161 2.00893 19.5161 1.83994C19.5161 1.67094 19.3791 1.53394 19.2101 1.53394C19.0411 1.53394 18.9041 1.67094 18.9041 1.83994C18.9041 2.00893 19.0411 2.14594 19.2101 2.14594Z" fill="#6B6B6B"/>
<path d="M15.926 11.8231V11.3731C15.9257 11.1437 15.8345 10.9239 15.6723 10.7617C15.5102 10.5996 15.2903 10.5083 15.061 10.5081H11.803C11.5736 10.5083 11.3538 10.5996 11.1917 10.7617C11.0295 10.9239 10.9383 11.1437 10.938 11.3731V11.8231C10.9383 12.0524 11.0295 12.2723 11.1917 12.4344C11.3538 12.5966 11.5736 12.6878 11.803 12.6881H15.061C15.2903 12.6878 15.5102 12.5966 15.6723 12.4344C15.8345 12.2723 15.9257 12.0524 15.926 11.8231V11.8231ZM11.559 11.8231V11.3731C11.559 11.3084 11.5847 11.2463 11.6305 11.2005C11.6762 11.1548 11.7383 11.1291 11.803 11.1291H15.06C15.092 11.1291 15.1238 11.1354 15.1534 11.1476C15.183 11.1599 15.2099 11.1779 15.2325 11.2005C15.2552 11.2232 15.2732 11.2501 15.2854 11.2797C15.2977 11.3093 15.304 11.341 15.304 11.3731V11.8231C15.3037 11.8877 15.2779 11.9496 15.2322 11.9953C15.1865 12.041 15.1246 12.0668 15.06 12.0671H11.803C11.7383 12.0671 11.6762 12.0414 11.6305 11.9956C11.5847 11.9498 11.559 11.8878 11.559 11.8231V11.8231Z" fill="#525252"/>
</svg>
